M48
;Layer_Color=9474304
;FILE_FORMAT=4:4
METRIC,LZ
;TYPE=PLATED
T01F00S00C0.2500
T02F00S00C0.5000
T03F00S00C0.7000
T04F00S00C0.7620
T05F00S00C0.8000
T06F00S00C1.0000
T07F00S00C1.0900
T08F00S00C1.4000
T09F00S00C1.6000
T10F00S00C3.2000
;TYPE=NON_PLATED
T11F00S00C3.2000
T12F00S00C5.0000
%
T01
X00075Y00025
X001
X00125
X001125Y0005
X00110001Y00070001
X00120001
X00115001Y00080001
X00105001
X00100001Y00090001
Y00110001
Y00130001
X00145001Y00140001
Y00120001
X00140001Y00110001
Y00090001
X00145001Y00080001
X00140001Y00070001
X00150001
X00180001Y00090001
X00190001
X00185001Y00100001
X00180001Y00110001
X00190001
X00210002Y00130001
X00220002
X00225002Y00140001
Y00120001
X0025Y00125
X002625Y001
X00259Y00073
X00245Y00035
X0025Y00025
X00275
X00225
X002
X00175
X001875Y0005
X00205Y0006
X00190001Y00150001
X00180001
X00185001Y00160001
X00180001Y00170001
X00190001
X0025Y00175
X00225Y00275
X0015Y00225
X00125
X000875Y002
X00025Y00175
X0005Y00125
Y00275
X00325
X004
X00425
X004625
X00475Y0025
X0045
X004625Y002
X004875
X005125
X005375
X005625
X005875
X006125
X006375
X006625
X0065Y00175
X00625
X006
X00575
X0055
X00525
X005
X005125Y0015
X005375
X005625
X005875
X006125
X006375
X006625
X0065Y00125
X00625
X006
X006125Y001
X006375
X006625
X0065Y00075
X00625
X006125Y0005
X00625Y00025
X006
X0057Y0008
X005875Y001
X005375
X00525Y00125
X00491Y00095
X00489Y0008
X004875Y0005
X00475Y00025
X0045
X004375Y0005
X00422Y00035
X004312Y0008
X00449Y00073
X00421Y00095
X00365001Y00090001
X00355001
X00360001Y00100001
X00365001Y00110001
X00355001
Y00150001
X00365001
X00360001Y00160001
X00365001Y00170001
X00355001
X00320001Y00140001
Y00120001
X00315002Y00110001
Y00090001
X00295002
X00285002
X00280002Y00100001
X00290002
X00295002Y00110001
X00285002
X00280002Y00120001
X002875Y002
X004125
X0045Y00175
X004625Y0015
X00395001Y00130001
X00385001
X003537Y0006
X0035Y00025
X00325
X0033Y00035
X00323Y00048
Y00073005
X003Y00025
X00675Y00075
Y00125
Y00175
Y0025
Y003
Y0035
Y004
Y0045
Y005
X006625Y00525
X006375
X006125
X005875
X005625
X005375
X005125
X004875
X004625
X004375
X004125
X003875
X00375Y005
X003375
X00325Y00525
X003
X00325Y00475
X003375Y0045
X003125
X0035Y00425
X00425
X0045Y0045
X004625Y00475
X004875
X005Y005
X00475
X0045
X00425
X004375Y00475
X0045Y004
Y0035
X004625Y00325
X00475Y003
X005
X00525
X0055
X00575
X006
X00625
X0065
X006625Y00325
X0065Y0035
X006625Y00375
X0065Y004
X006625Y00425
X00625Y005
X00575Y0045
Y0035
X005
X004125
X00425Y00375
Y00325
X004
X004125Y003
X0045
X0035Y00325
X00325
X003375Y0035
X003625
X002875
X00275Y00325
X002375Y0035
X001875
X002125Y004
X00225Y00425
X002375Y0045
X002625
X0025Y00475
X002625Y005
X00275Y00525
X0025
X00225
X002
X00175
X0015
X00125
X001
X00075
X0005
X00025
X000875Y005
X00075Y00475
X00094Y00432
X00098Y0042
X00084
X00128Y00416
X00025Y00425
X002125Y0045
T02
X00209Y0021
X00329Y00394
X00216Y00341
T03
X00121Y0021
Y00251
T04
X004622Y00128405
X004368Y00153805
X004876
T05
X00022Y00085751
X000695Y00111251
X005373Y0013
X005627
X0056Y0036
X00585
X005627Y004
X005373
X00625Y0032
X00647
X00368Y0031
X00227
T06
X00499Y0032
X00525
X0056
X00586
X001724Y0035
Y003754
Y004008
X00147
Y003754
Y0035
X001216
Y003754
Y004008
X000962
Y003754
Y0035
X000708
Y003754
Y004008
T07
X004746Y004628
X005023
X0053
X005577
X005854
X0057155Y004912
X0054385
X0051615
X0048845
X0021155
X0018385
X0015615
X0012845
X001146Y004628
X001423
X0017
X001977
X002254
T08
X001852Y0013
X003602
T09
X001598Y001046
X002106
Y001554
X001598
X003348
X003856
Y001046
X003348
T10
X00295Y00477
X00405
X00655
X00045
T11
X00035Y00035
X00665
T12
X0007Y0023
X00512Y00259
X00573
X00636
M30
