G04*
G04 #@! TF.GenerationSoftware,Altium Limited,Altium Designer,23.9.2 (47)*
G04*
G04 Layer_Color=8732672*
%FSLAX44Y44*%
%MOMM*%
G71*
G04*
G04 #@! TF.SameCoordinates,B568AE66-8DF3-4FEE-8232-9B1AC1FE23A7*
G04*
G04*
G04 #@! TF.FilePolarity,Negative*
G04*
G01*
G75*
%ADD10C,0.1000*%
%ADD33C,1.6400*%
%ADD38C,2.1400*%
%ADD48C,1.6640*%
%ADD49C,5.1400*%
%ADD50C,1.7400*%
%ADD51C,1.3400*%
%ADD52R,1.3400X1.3400*%
%ADD53C,4.9400*%
%ADD54C,1.7900*%
G04:AMPARAMS|DCode=55|XSize=1.79mm|YSize=1.79mm|CornerRadius=0.4825mm|HoleSize=0mm|Usage=FLASHONLY|Rotation=180.000|XOffset=0mm|YOffset=0mm|HoleType=Round|Shape=RoundedRectangle|*
%AMROUNDEDRECTD55*
21,1,1.7900,0.8250,0,0,180.0*
21,1,0.8250,1.7900,0,0,180.0*
1,1,0.9650,-0.4125,0.4125*
1,1,0.9650,0.4125,0.4125*
1,1,0.9650,0.4125,-0.4125*
1,1,0.9650,-0.4125,-0.4125*
%
%ADD55ROUNDEDRECTD55*%
%ADD56C,2.6400*%
%ADD57C,2.9400*%
%ADD58R,1.6400X1.6400*%
%ADD59C,3.3400*%
%ADD60C,1.4100*%
D10*
X20000Y570000D02*
G03*
X0Y550000I0J-20000D01*
G01*
X700000D02*
G03*
X680000Y570000I-20000J0D01*
G01*
X680000Y0D02*
G03*
X700000Y20000I0J20000D01*
G01*
X0D02*
G03*
X20000Y0I20000J0D01*
G01*
X700000Y550000D02*
X700000Y20000D01*
X20000Y570000D02*
X680000D01*
X-0Y550000D02*
X0Y20000D01*
X20000Y0D02*
X680000D01*
D33*
X121000Y210000D02*
D03*
Y251000D02*
D03*
X172400Y375400D02*
D03*
Y400800D02*
D03*
X147000Y375400D02*
D03*
Y400800D02*
D03*
X121600Y375400D02*
D03*
Y400800D02*
D03*
X96200Y375400D02*
D03*
Y400800D02*
D03*
X70800Y375400D02*
D03*
Y400800D02*
D03*
D38*
X525000Y320000D02*
D03*
X499000D02*
D03*
X586000D02*
D03*
X560000D02*
D03*
D48*
X462200Y128405D02*
D03*
X436800Y153805D02*
D03*
X487600D02*
D03*
D49*
X573000Y259000D02*
D03*
X70000Y230000D02*
D03*
X512000Y259000D02*
D03*
X636000D02*
D03*
D50*
X625000Y320000D02*
D03*
X647000D02*
D03*
X560000Y360000D02*
D03*
X585000D02*
D03*
D51*
X562700Y400000D02*
D03*
X562700Y130000D02*
D03*
D52*
X537300Y400000D02*
D03*
X537300Y130000D02*
D03*
D53*
X405000Y477000D02*
D03*
X655000D02*
D03*
X295000D02*
D03*
X45000D02*
D03*
D54*
X571550Y491200D02*
D03*
X543850D02*
D03*
X516150D02*
D03*
X488450D02*
D03*
X502300Y462800D02*
D03*
X474600D02*
D03*
X557700D02*
D03*
X530000D02*
D03*
X170000D02*
D03*
X197700D02*
D03*
X225400D02*
D03*
X142300D02*
D03*
X128450Y491200D02*
D03*
X156150D02*
D03*
X183850D02*
D03*
X211550D02*
D03*
D55*
X585400Y462800D02*
D03*
X114600D02*
D03*
D56*
X360200Y130000D02*
D03*
X185200D02*
D03*
D57*
X385600Y104600D02*
D03*
Y155400D02*
D03*
X334800D02*
D03*
Y104600D02*
D03*
X210600D02*
D03*
Y155400D02*
D03*
X159800D02*
D03*
Y104600D02*
D03*
D58*
X172400Y350000D02*
D03*
X147000Y350000D02*
D03*
X121600D02*
D03*
X96200D02*
D03*
X70800D02*
D03*
D59*
X35000Y35000D02*
D03*
X665000D02*
D03*
D60*
X209000Y210000D02*
D03*
X329000Y394000D02*
D03*
M02*
