G04*
G04 #@! TF.GenerationSoftware,Altium Limited,Altium Designer,23.9.2 (47)*
G04*
G04 Layer_Physical_Order=4*
G04 Layer_Color=16711680*
%FSLAX44Y44*%
%MOMM*%
G71*
G04*
G04 #@! TF.SameCoordinates,B568AE66-8DF3-4FEE-8232-9B1AC1FE23A7*
G04*
G04*
G04 #@! TF.FilePolarity,Positive*
G04*
G01*
G75*
%ADD10C,0.1000*%
%ADD17C,1.5000*%
%ADD23C,2.0000*%
%ADD61C,0.3000*%
%ADD62C,0.6000*%
%ADD63C,1.0000*%
%ADD66C,1.5000*%
%ADD67C,1.5240*%
%ADD68C,5.0000*%
%ADD69C,1.6000*%
%ADD70C,1.2000*%
%ADD71R,1.2000X1.2000*%
%ADD72C,4.8000*%
%ADD73C,1.6500*%
G04:AMPARAMS|DCode=74|XSize=1.65mm|YSize=1.65mm|CornerRadius=0.4125mm|HoleSize=0mm|Usage=FLASHONLY|Rotation=180.000|XOffset=0mm|YOffset=0mm|HoleType=Round|Shape=RoundedRectangle|*
%AMROUNDEDRECTD74*
21,1,1.6500,0.8250,0,0,180.0*
21,1,0.8250,1.6500,0,0,180.0*
1,1,0.8250,-0.4125,0.4125*
1,1,0.8250,0.4125,0.4125*
1,1,0.8250,0.4125,-0.4125*
1,1,0.8250,-0.4125,-0.4125*
%
%ADD74ROUNDEDRECTD74*%
%ADD75C,2.5000*%
%ADD76C,2.8000*%
%ADD77R,1.5000X1.5000*%
%ADD78C,3.2000*%
%ADD79C,0.6000*%
%ADD80C,0.6010*%
%ADD81C,1.3000*%
%ADD82C,1.2700*%
%ADD83C,1.0000*%
G36*
X690000Y225000D02*
X440000D01*
Y450000D01*
X413386D01*
X413185Y451270D01*
X415364Y451978D01*
X419151Y453908D01*
X422589Y456405D01*
X425594Y459411D01*
X428092Y462849D01*
X430022Y466636D01*
X431335Y470677D01*
X432000Y474875D01*
Y479125D01*
X431335Y483322D01*
X430022Y487364D01*
X428092Y491151D01*
X425594Y494589D01*
X422589Y497594D01*
X419151Y500092D01*
X415364Y502022D01*
X411323Y503335D01*
X407125Y504000D01*
X402875D01*
X398677Y503335D01*
X394636Y502022D01*
X390849Y500092D01*
X387411Y497594D01*
X384406Y494589D01*
X381908Y491151D01*
X379978Y487364D01*
X378665Y483322D01*
X378000Y479125D01*
Y474875D01*
X378665Y470677D01*
X379978Y466636D01*
X381908Y462849D01*
X384406Y459411D01*
X387411Y456405D01*
X390849Y453908D01*
X394636Y451978D01*
X396815Y451270D01*
X396614Y450000D01*
X355000D01*
Y560000D01*
X690000D01*
Y225000D01*
D02*
G37*
G36*
X407942Y88430D02*
X402375Y82864D01*
X304200D01*
Y69117D01*
X271534D01*
X269200Y71452D01*
Y154864D01*
X316530D01*
X316942Y154864D01*
X317800Y153950D01*
Y153726D01*
X318453Y150441D01*
X319735Y147347D01*
X321595Y144563D01*
X323963Y142195D01*
X326748Y140335D01*
X329841Y139053D01*
X333126Y138400D01*
X333300D01*
Y155400D01*
Y172400D01*
X333126D01*
X329841Y171747D01*
X326748Y170465D01*
X323963Y168605D01*
X321595Y166237D01*
X319735Y163452D01*
X318453Y160359D01*
X318212Y159144D01*
X316942Y159270D01*
Y175864D01*
X407942D01*
Y88430D01*
D02*
G37*
G36*
X350000Y445000D02*
X435000D01*
Y220000D01*
X690000D01*
Y62508D01*
X688847Y61976D01*
X686226Y64215D01*
X681394Y67175D01*
X676159Y69344D01*
X670649Y70667D01*
X665000Y71111D01*
X659351Y70667D01*
X653841Y69344D01*
X648606Y67175D01*
X643774Y64215D01*
X639465Y60535D01*
X635785Y56226D01*
X632825Y51394D01*
X630656Y46159D01*
X629333Y40649D01*
X628889Y35000D01*
X629333Y29351D01*
X630656Y23841D01*
X632825Y18606D01*
X635785Y13774D01*
X638024Y11153D01*
X637492Y10000D01*
X62508D01*
X61976Y11153D01*
X64215Y13774D01*
X67175Y18606D01*
X69344Y23841D01*
X70667Y29351D01*
X71111Y35000D01*
X70667Y40649D01*
X69344Y46159D01*
X67175Y51394D01*
X65620Y53932D01*
X66624Y54724D01*
X90724Y30624D01*
X92709Y29298D01*
X95050Y28832D01*
X204947D01*
X205199Y28883D01*
X422000D01*
X422566Y28995D01*
X423195D01*
X423775Y29236D01*
X424341Y29348D01*
X424821Y29669D01*
X425402Y29909D01*
X425846Y30354D01*
X426326Y30674D01*
X426646Y31154D01*
X427091Y31598D01*
X427331Y32179D01*
X427652Y32659D01*
X427764Y33225D01*
X428005Y33805D01*
Y34434D01*
X428117Y35000D01*
X428005Y35566D01*
Y36195D01*
X427764Y36775D01*
X427652Y37341D01*
X427331Y37821D01*
X427091Y38402D01*
X426646Y38846D01*
X426326Y39326D01*
X425846Y39646D01*
X425402Y40091D01*
X424821Y40331D01*
X424341Y40652D01*
X423775Y40764D01*
X423195Y41005D01*
X422566D01*
X422000Y41118D01*
X413827D01*
X413383Y42293D01*
X413400Y42387D01*
X415326Y43674D01*
X438534Y66883D01*
X471466D01*
X471674Y66674D01*
X473659Y65348D01*
X476000Y64882D01*
X561000D01*
X563341Y65348D01*
X565326Y66674D01*
X574326Y75674D01*
X574646Y76154D01*
X575091Y76598D01*
X575331Y77179D01*
X575652Y77659D01*
X575764Y78225D01*
X576005Y78805D01*
Y79434D01*
X576118Y80000D01*
X576005Y80566D01*
Y81194D01*
X575764Y81775D01*
X575652Y82341D01*
X575331Y82821D01*
X575091Y83402D01*
X574646Y83846D01*
X574326Y84326D01*
X573846Y84646D01*
X573402Y85091D01*
X572821Y85331D01*
X572341Y85652D01*
X571775Y85764D01*
X571194Y86005D01*
X570566D01*
X570000Y86117D01*
X569434Y86005D01*
X568806D01*
X568225Y85764D01*
X567659Y85652D01*
X567179Y85331D01*
X566598Y85091D01*
X566154Y84646D01*
X565674Y84326D01*
X558466Y77118D01*
X495449D01*
X494743Y78173D01*
X495005Y78805D01*
Y81194D01*
X494091Y83402D01*
X492402Y85091D01*
X490195Y86005D01*
X489484D01*
X488244Y87244D01*
X486756Y88239D01*
X485000Y88588D01*
X436667D01*
X436034Y89858D01*
X436452Y90412D01*
X487103D01*
X487601Y89913D01*
X489807Y89000D01*
X492193D01*
X494399Y89913D01*
X496087Y91601D01*
X497000Y93806D01*
Y96194D01*
X496087Y98399D01*
X494399Y100086D01*
X492193Y101000D01*
X489807D01*
X487601Y100086D01*
X487103Y99588D01*
X434000D01*
X432244Y99239D01*
X430756Y98244D01*
X428173Y95662D01*
X427000Y96148D01*
Y96194D01*
X426087Y98399D01*
X424399Y100086D01*
X422193Y101000D01*
X419807D01*
X417601Y100086D01*
X415913Y98399D01*
X415000Y96194D01*
Y95489D01*
X412174Y92662D01*
X411001Y93149D01*
Y175864D01*
X410768Y177035D01*
X410105Y178027D01*
X409112Y178690D01*
X407942Y178923D01*
X316942D01*
X315771Y178690D01*
X314779Y178027D01*
X314116Y177035D01*
X313883Y175864D01*
Y159270D01*
X313898Y159193D01*
X313403Y158335D01*
X312972Y157960D01*
X312928Y157942D01*
X312856Y157923D01*
X269200D01*
X268029Y157690D01*
X267037Y157027D01*
X266374Y156035D01*
X266141Y154864D01*
Y76170D01*
X264968Y75684D01*
X263326Y77326D01*
X262846Y77646D01*
X262402Y78091D01*
X261821Y78331D01*
X261341Y78652D01*
X260775Y78764D01*
X260194Y79005D01*
X259566D01*
X259000Y79117D01*
X234073D01*
X233690Y80387D01*
X234363Y80837D01*
X235026Y81830D01*
X235259Y83000D01*
Y176000D01*
X235026Y177171D01*
X234363Y178163D01*
X233370Y178826D01*
X232200Y179059D01*
X141200D01*
X140029Y178826D01*
X139037Y178163D01*
X138374Y177171D01*
X138141Y176000D01*
Y158059D01*
X95200D01*
X94030Y157826D01*
X93037Y157163D01*
X92374Y156171D01*
X92141Y155000D01*
Y68306D01*
X90871Y67780D01*
X75617Y83034D01*
Y103933D01*
X77102Y105418D01*
X78352Y107584D01*
X79000Y110000D01*
Y112501D01*
X78352Y114918D01*
X77102Y117084D01*
X75333Y118853D01*
X73167Y120103D01*
X70751Y120751D01*
X68249D01*
X65833Y120103D01*
X63667Y118853D01*
X61898Y117084D01*
X60647Y114918D01*
X60000Y112501D01*
Y110000D01*
X60647Y107584D01*
X61898Y105418D01*
X63382Y103933D01*
Y80500D01*
X63848Y78159D01*
X65174Y76174D01*
X84674Y56674D01*
X86659Y55348D01*
X89000Y54882D01*
X182000D01*
X184341Y55348D01*
X186326Y56674D01*
X196534Y66883D01*
X202618D01*
X202871Y65613D01*
X201601Y65087D01*
X199913Y63399D01*
X199000Y61193D01*
Y58807D01*
X199913Y56601D01*
X201601Y54914D01*
X203806Y54000D01*
X204511D01*
X206756Y51756D01*
X208244Y50761D01*
X210000Y50412D01*
X316067D01*
X316291Y50290D01*
X316995Y49194D01*
Y48566D01*
X316882Y48000D01*
X316995Y47434D01*
Y46806D01*
X317236Y46225D01*
X317348Y45659D01*
X317669Y45179D01*
X317909Y44598D01*
X318354Y44154D01*
X318674Y43674D01*
X319154Y43354D01*
X319598Y42909D01*
X320179Y42669D01*
X320600Y42387D01*
X320617Y42293D01*
X320173Y41118D01*
X204997D01*
X204746Y41068D01*
X97584D01*
X48575Y90076D01*
X46590Y91403D01*
X44249Y91868D01*
X29317D01*
X27833Y93352D01*
X25667Y94603D01*
X23251Y95251D01*
X20749D01*
X18333Y94603D01*
X16167Y93352D01*
X14398Y91584D01*
X13147Y89417D01*
X12500Y87001D01*
Y84500D01*
X13147Y82084D01*
X14398Y79917D01*
X16167Y78149D01*
X18333Y76898D01*
X20749Y76251D01*
X23251D01*
X25667Y76898D01*
X27833Y78149D01*
X29317Y79633D01*
X41715D01*
X54724Y66624D01*
X53933Y65620D01*
X51394Y67175D01*
X46159Y69344D01*
X40649Y70667D01*
X35000Y71111D01*
X29351Y70667D01*
X23841Y69344D01*
X18606Y67175D01*
X13774Y64215D01*
X11153Y61976D01*
X10000Y62508D01*
Y560000D01*
X350000D01*
Y445000D01*
D02*
G37*
G36*
X232200Y83000D02*
X177200D01*
Y67118D01*
X95200D01*
Y155000D01*
X141200D01*
Y176000D01*
X232200D01*
Y83000D01*
D02*
G37*
%LPC*%
G36*
X545350Y502445D02*
Y492700D01*
X555095D01*
X554333Y495542D01*
X552852Y498108D01*
X550758Y500202D01*
X548192Y501683D01*
X545350Y502445D01*
D02*
G37*
G36*
X542350Y502445D02*
X539508Y501683D01*
X536942Y500202D01*
X534848Y498108D01*
X533367Y495542D01*
X532605Y492700D01*
X542350D01*
Y502445D01*
D02*
G37*
G36*
X555095Y489700D02*
X545350D01*
Y479955D01*
X548192Y480717D01*
X550758Y482198D01*
X552852Y484292D01*
X554333Y486858D01*
X555095Y489700D01*
D02*
G37*
G36*
X542350D02*
X532605D01*
X533367Y486858D01*
X534848Y484292D01*
X536942Y482198D01*
X539508Y480717D01*
X542350Y479955D01*
Y489700D01*
D02*
G37*
G36*
X489931Y502450D02*
X486969D01*
X484108Y501683D01*
X481542Y500202D01*
X479448Y498108D01*
X477967Y495542D01*
X477200Y492681D01*
Y489719D01*
X477967Y486858D01*
X479448Y484292D01*
X481542Y482198D01*
X484108Y480717D01*
X486969Y479950D01*
X489931D01*
X492792Y480717D01*
X495358Y482198D01*
X497452Y484292D01*
X498933Y486858D01*
X499700Y489719D01*
Y492681D01*
X498933Y495542D01*
X497452Y498108D01*
X495358Y500202D01*
X492792Y501683D01*
X489931Y502450D01*
D02*
G37*
G36*
X517631D02*
X514669D01*
X511808Y501683D01*
X509242Y500202D01*
X507148Y498108D01*
X505667Y495542D01*
X504900Y492681D01*
Y489719D01*
X505667Y486858D01*
X507148Y484292D01*
X507931Y483509D01*
Y473809D01*
X506831Y473174D01*
X506642Y473283D01*
X503781Y474050D01*
X500819D01*
X497958Y473283D01*
X495392Y471802D01*
X493298Y469708D01*
X491817Y467142D01*
X491050Y464281D01*
Y461319D01*
X491817Y458458D01*
X493298Y455892D01*
X495392Y453798D01*
X497958Y452317D01*
X500819Y451550D01*
X503781D01*
X505131Y451912D01*
X505968Y450957D01*
X505770Y450479D01*
X505409Y447738D01*
Y369000D01*
X505409Y369000D01*
X505770Y366259D01*
X506828Y363705D01*
X508511Y361511D01*
X515409Y354613D01*
Y328794D01*
X514597Y327982D01*
X512886Y325018D01*
X512635Y324081D01*
X511365D01*
X511114Y325018D01*
X509403Y327982D01*
X506982Y330403D01*
X504018Y332114D01*
X500712Y333000D01*
X497289D01*
X493982Y332114D01*
X491018Y330403D01*
X488597Y327982D01*
X486886Y325018D01*
X486000Y321712D01*
Y318288D01*
X486886Y314982D01*
X488597Y312018D01*
X491018Y309597D01*
X493982Y307886D01*
X497289Y307000D01*
X500712D01*
X504018Y307886D01*
X506982Y309597D01*
X509403Y312018D01*
X511114Y314982D01*
X511365Y315919D01*
X512635D01*
X512886Y314982D01*
X514597Y312018D01*
X517018Y309597D01*
X519982Y307886D01*
X523288Y307000D01*
X526712D01*
X530018Y307886D01*
X532982Y309597D01*
X535403Y312018D01*
X537114Y314982D01*
X538000Y318288D01*
Y321712D01*
X537114Y325018D01*
X536591Y325924D01*
Y359000D01*
X536591Y359000D01*
X536230Y361741D01*
X535172Y364295D01*
X533489Y366489D01*
X526591Y373387D01*
Y447738D01*
X526230Y450479D01*
X526058Y450895D01*
X526991Y451959D01*
X528519Y451550D01*
X531481D01*
X534342Y452317D01*
X536908Y453798D01*
X539002Y455892D01*
X540483Y458458D01*
X541250Y461319D01*
Y464281D01*
X540483Y467142D01*
X539002Y469708D01*
X536908Y471802D01*
X534342Y473283D01*
X531481Y474050D01*
X528519D01*
X525658Y473283D01*
X525169Y473001D01*
X524069Y473636D01*
Y483209D01*
X525152Y484292D01*
X526633Y486858D01*
X527400Y489719D01*
Y492681D01*
X526633Y495542D01*
X525152Y498108D01*
X523058Y500202D01*
X520492Y501683D01*
X517631Y502450D01*
D02*
G37*
G36*
X559181Y474050D02*
X556219D01*
X553358Y473283D01*
X550792Y471802D01*
X548698Y469708D01*
X547217Y467142D01*
X546450Y464281D01*
Y461319D01*
X547217Y458458D01*
X548698Y455892D01*
X550792Y453798D01*
X553358Y452317D01*
X556219Y451550D01*
X559181D01*
X562042Y452317D01*
X564608Y453798D01*
X566702Y455892D01*
X568183Y458458D01*
X568950Y461319D01*
Y464281D01*
X568183Y467142D01*
X566702Y469708D01*
X564608Y471802D01*
X562042Y473283D01*
X559181Y474050D01*
D02*
G37*
G36*
X476081D02*
X473119D01*
X470258Y473283D01*
X467692Y471802D01*
X465598Y469708D01*
X464117Y467142D01*
X463350Y464281D01*
Y461319D01*
X464117Y458458D01*
X465598Y455892D01*
X467692Y453798D01*
X470258Y452317D01*
X473119Y451550D01*
X476081D01*
X478942Y452317D01*
X481508Y453798D01*
X483602Y455892D01*
X485083Y458458D01*
X485850Y461319D01*
Y464281D01*
X485083Y467142D01*
X483602Y469708D01*
X481508Y471802D01*
X478942Y473283D01*
X476081Y474050D01*
D02*
G37*
G36*
X589525Y474112D02*
X581275D01*
X579415Y473867D01*
X577682Y473149D01*
X576193Y472007D01*
X575051Y470518D01*
X574333Y468785D01*
X574089Y466925D01*
Y458675D01*
X574333Y456815D01*
X575051Y455082D01*
X576193Y453593D01*
X577682Y452451D01*
X579415Y451733D01*
X581275Y451488D01*
X589525D01*
X591385Y451733D01*
X593118Y452451D01*
X594607Y453593D01*
X595749Y455082D01*
X596467Y456815D01*
X596712Y458675D01*
Y466925D01*
X596467Y468785D01*
X595749Y470518D01*
X594607Y472007D01*
X593118Y473149D01*
X591385Y473867D01*
X589525Y474112D01*
D02*
G37*
G36*
X657125Y504000D02*
X652875D01*
X648678Y503335D01*
X644636Y502022D01*
X640849Y500092D01*
X637411Y497594D01*
X634406Y494589D01*
X631908Y491151D01*
X629978Y487364D01*
X628665Y483322D01*
X628000Y479125D01*
Y474875D01*
X628665Y470677D01*
X629978Y466636D01*
X631908Y462849D01*
X634406Y459411D01*
X637411Y456405D01*
X640849Y453908D01*
X644636Y451978D01*
X648678Y450665D01*
X652875Y450000D01*
X657125D01*
X661322Y450665D01*
X665364Y451978D01*
X669151Y453908D01*
X672589Y456405D01*
X675594Y459411D01*
X678092Y462849D01*
X680022Y466636D01*
X681335Y470677D01*
X682000Y474875D01*
Y479125D01*
X681335Y483322D01*
X680022Y487364D01*
X678092Y491151D01*
X675594Y494589D01*
X672589Y497594D01*
X669151Y500092D01*
X665364Y502022D01*
X661322Y503335D01*
X657125Y504000D01*
D02*
G37*
G36*
X546300Y409000D02*
X538800D01*
Y401500D01*
X546300D01*
Y409000D01*
D02*
G37*
G36*
X535800D02*
X528300D01*
Y401500D01*
X535800D01*
Y409000D01*
D02*
G37*
G36*
X563885D02*
X561515D01*
X559226Y408387D01*
X557174Y407202D01*
X555498Y405526D01*
X554313Y403474D01*
X553700Y401185D01*
Y398815D01*
X554313Y396526D01*
X555498Y394474D01*
X557174Y392798D01*
X559226Y391613D01*
X561515Y391000D01*
X563885D01*
X566174Y391613D01*
X568226Y392798D01*
X569902Y394474D01*
X571087Y396526D01*
X571700Y398815D01*
Y401185D01*
X571087Y403474D01*
X569902Y405526D01*
X568226Y407202D01*
X566174Y408387D01*
X563885Y409000D01*
D02*
G37*
G36*
X546300Y398500D02*
X538800D01*
Y391000D01*
X546300D01*
Y398500D01*
D02*
G37*
G36*
X535800D02*
X528300D01*
Y391000D01*
X535800D01*
Y398500D01*
D02*
G37*
G36*
X561500Y370986D02*
Y361500D01*
X570986D01*
X570250Y364246D01*
X568802Y366754D01*
X566754Y368802D01*
X564246Y370250D01*
X561500Y370986D01*
D02*
G37*
G36*
X558500Y370986D02*
X555754Y370250D01*
X553246Y368802D01*
X551198Y366754D01*
X549750Y364246D01*
X549014Y361500D01*
X558500D01*
Y370986D01*
D02*
G37*
G36*
Y358500D02*
X549014D01*
X549750Y355754D01*
X551198Y353246D01*
X553246Y351198D01*
X555754Y349750D01*
X558500Y349014D01*
Y358500D01*
D02*
G37*
G36*
X570986D02*
X561500D01*
Y349014D01*
X564246Y349750D01*
X566754Y351198D01*
X568802Y353246D01*
X570250Y355754D01*
X570986Y358500D01*
D02*
G37*
G36*
X586448Y371000D02*
X583552D01*
X580754Y370250D01*
X578246Y368802D01*
X576198Y366754D01*
X574750Y364246D01*
X574000Y361448D01*
Y358552D01*
X574750Y355754D01*
X576198Y353246D01*
X578246Y351198D01*
X580754Y349750D01*
X583552Y349000D01*
X586448D01*
X589246Y349750D01*
X591754Y351198D01*
X593802Y353246D01*
X595250Y355754D01*
X596000Y358552D01*
Y361448D01*
X595250Y364246D01*
X593802Y366754D01*
X591754Y368802D01*
X589246Y370250D01*
X586448Y371000D01*
D02*
G37*
G36*
X573031Y502450D02*
X570069D01*
X567208Y501683D01*
X564642Y500202D01*
X562548Y498108D01*
X561067Y495542D01*
X560300Y492681D01*
Y489719D01*
X561067Y486858D01*
X562548Y484292D01*
X564642Y482198D01*
X567208Y480717D01*
X570069Y479950D01*
X573031D01*
X575492Y480609D01*
X594413D01*
X599409Y475613D01*
Y344387D01*
X587957Y332934D01*
X587711Y333000D01*
X584288D01*
X580982Y332114D01*
X578018Y330403D01*
X575597Y327982D01*
X573886Y325018D01*
X573635Y324081D01*
X572365D01*
X572114Y325018D01*
X570403Y327982D01*
X567982Y330403D01*
X565018Y332114D01*
X561712Y333000D01*
X558288D01*
X554982Y332114D01*
X552018Y330403D01*
X549598Y327982D01*
X547886Y325018D01*
X547000Y321712D01*
Y318288D01*
X547886Y314982D01*
X549598Y312018D01*
X552018Y309597D01*
X554982Y307886D01*
X558288Y307000D01*
X561712D01*
X565018Y307886D01*
X567982Y309597D01*
X570403Y312018D01*
X572114Y314982D01*
X572365Y315919D01*
X573635D01*
X573886Y314982D01*
X575597Y312018D01*
X578018Y309597D01*
X580982Y307886D01*
X584288Y307000D01*
X587711D01*
X591018Y307886D01*
X593982Y309597D01*
X596112Y311727D01*
X596252Y311785D01*
X598445Y313468D01*
X617489Y332511D01*
X617489Y332511D01*
X619172Y334705D01*
X620230Y337259D01*
X620591Y340000D01*
Y480000D01*
X620591Y480000D01*
X620230Y482741D01*
X619172Y485295D01*
X617489Y487489D01*
X606289Y498689D01*
X604095Y500372D01*
X601541Y501430D01*
X598800Y501791D01*
X598800Y501791D01*
X575492D01*
X573031Y502450D01*
D02*
G37*
G36*
X648448Y331000D02*
X645552D01*
X642754Y330250D01*
X640246Y328802D01*
X638198Y326754D01*
X636750Y324246D01*
X636657Y323901D01*
X635343D01*
X635250Y324246D01*
X633802Y326754D01*
X631754Y328802D01*
X629246Y330250D01*
X626448Y331000D01*
X623552D01*
X620754Y330250D01*
X618246Y328802D01*
X616198Y326754D01*
X614750Y324246D01*
X614000Y321448D01*
Y318552D01*
X614750Y315754D01*
X616198Y313246D01*
X618246Y311198D01*
X620754Y309750D01*
X623552Y309000D01*
X626448D01*
X629246Y309750D01*
X631754Y311198D01*
X633802Y313246D01*
X635250Y315754D01*
X635343Y316098D01*
X636657D01*
X636750Y315754D01*
X638198Y313246D01*
X640246Y311198D01*
X642754Y309750D01*
X645552Y309000D01*
X648448D01*
X651246Y309750D01*
X653754Y311198D01*
X655802Y313246D01*
X657250Y315754D01*
X658000Y318552D01*
Y321448D01*
X657250Y324246D01*
X655802Y326754D01*
X653754Y328802D01*
X651246Y330250D01*
X648448Y331000D01*
D02*
G37*
G36*
X638204Y287000D02*
X633796D01*
X629443Y286311D01*
X625252Y284949D01*
X621325Y282948D01*
X617759Y280357D01*
X614643Y277241D01*
X612052Y273675D01*
X610051Y269748D01*
X608689Y265557D01*
X608000Y261204D01*
Y256796D01*
X608689Y252443D01*
X610051Y248252D01*
X612052Y244325D01*
X614643Y240759D01*
X617759Y237643D01*
X621325Y235052D01*
X625252Y233051D01*
X629443Y231689D01*
X633796Y231000D01*
X638204D01*
X642557Y231689D01*
X646748Y233051D01*
X650675Y235052D01*
X654241Y237643D01*
X657357Y240759D01*
X659948Y244325D01*
X661949Y248252D01*
X663310Y252443D01*
X664000Y256796D01*
Y261204D01*
X663310Y265557D01*
X661949Y269748D01*
X659948Y273675D01*
X657357Y277241D01*
X654241Y280357D01*
X650675Y282948D01*
X646748Y284949D01*
X642557Y286311D01*
X638204Y287000D01*
D02*
G37*
G36*
X575204D02*
X570796D01*
X566443Y286311D01*
X562252Y284949D01*
X558325Y282948D01*
X554759Y280357D01*
X551643Y277241D01*
X549052Y273675D01*
X547051Y269748D01*
X545690Y265557D01*
X545000Y261204D01*
Y256796D01*
X545690Y252443D01*
X547051Y248252D01*
X549052Y244325D01*
X551643Y240759D01*
X554759Y237643D01*
X558325Y235052D01*
X562252Y233051D01*
X566443Y231689D01*
X570796Y231000D01*
X575204D01*
X579557Y231689D01*
X583748Y233051D01*
X587675Y235052D01*
X591241Y237643D01*
X594357Y240759D01*
X596948Y244325D01*
X598949Y248252D01*
X600311Y252443D01*
X601000Y256796D01*
Y261204D01*
X600311Y265557D01*
X598949Y269748D01*
X596948Y273675D01*
X594357Y277241D01*
X591241Y280357D01*
X587675Y282948D01*
X583748Y284949D01*
X579557Y286311D01*
X575204Y287000D01*
D02*
G37*
G36*
X514204D02*
X509796D01*
X505443Y286311D01*
X501252Y284949D01*
X497325Y282948D01*
X493759Y280357D01*
X490643Y277241D01*
X488052Y273675D01*
X486051Y269748D01*
X484689Y265557D01*
X484000Y261204D01*
Y256796D01*
X484689Y252443D01*
X486051Y248252D01*
X488052Y244325D01*
X490643Y240759D01*
X493759Y237643D01*
X497325Y235052D01*
X501252Y233051D01*
X505443Y231689D01*
X509796Y231000D01*
X514204D01*
X518557Y231689D01*
X522748Y233051D01*
X526675Y235052D01*
X530241Y237643D01*
X533357Y240759D01*
X535948Y244325D01*
X537949Y248252D01*
X539310Y252443D01*
X540000Y256796D01*
Y261204D01*
X539310Y265557D01*
X537949Y269748D01*
X535948Y273675D01*
X533357Y277241D01*
X530241Y280357D01*
X526675Y282948D01*
X522748Y284949D01*
X518557Y286311D01*
X514204Y287000D01*
D02*
G37*
G36*
X387274Y172400D02*
X387100D01*
Y156900D01*
X402600D01*
Y157074D01*
X401947Y160359D01*
X400665Y163452D01*
X398805Y166237D01*
X396437Y168605D01*
X393652Y170465D01*
X390559Y171747D01*
X387274Y172400D01*
D02*
G37*
G36*
X336474D02*
X336300D01*
Y156900D01*
X351800D01*
Y157074D01*
X351147Y160359D01*
X349865Y163452D01*
X348005Y166237D01*
X345637Y168605D01*
X342853Y170465D01*
X339759Y171747D01*
X336474Y172400D01*
D02*
G37*
G36*
X384100D02*
X383926D01*
X380641Y171747D01*
X377547Y170465D01*
X374763Y168605D01*
X372395Y166237D01*
X370535Y163452D01*
X369253Y160359D01*
X368600Y157074D01*
Y156900D01*
X384100D01*
Y172400D01*
D02*
G37*
G36*
X402600Y153900D02*
X387100D01*
Y138400D01*
X387274D01*
X390559Y139053D01*
X393652Y140335D01*
X396437Y142195D01*
X398805Y144563D01*
X400665Y147347D01*
X401947Y150441D01*
X402600Y153726D01*
Y153900D01*
D02*
G37*
G36*
X384100D02*
X368600D01*
Y153726D01*
X369253Y150441D01*
X370535Y147347D01*
X372395Y144563D01*
X374763Y142195D01*
X377547Y140335D01*
X380641Y139053D01*
X383926Y138400D01*
X384100D01*
Y153900D01*
D02*
G37*
G36*
X351800D02*
X336300D01*
Y138400D01*
X336474D01*
X339759Y139053D01*
X342853Y140335D01*
X345637Y142195D01*
X348005Y144563D01*
X349865Y147347D01*
X351147Y150441D01*
X351800Y153726D01*
Y153900D01*
D02*
G37*
G36*
X361727Y145500D02*
X358673D01*
X355679Y144904D01*
X352858Y143736D01*
X350319Y142040D01*
X348160Y139881D01*
X346464Y137342D01*
X345296Y134521D01*
X344700Y131527D01*
Y128473D01*
X345296Y125479D01*
X346464Y122658D01*
X348160Y120119D01*
X350319Y117960D01*
X352858Y116264D01*
X355679Y115096D01*
X358673Y114500D01*
X361727D01*
X364721Y115096D01*
X367542Y116264D01*
X370081Y117960D01*
X372240Y120119D01*
X373936Y122658D01*
X375104Y125479D01*
X375700Y128473D01*
Y131527D01*
X375104Y134521D01*
X373936Y137342D01*
X372240Y139881D01*
X370081Y142040D01*
X367542Y143736D01*
X364721Y144904D01*
X361727Y145500D01*
D02*
G37*
G36*
X387274Y121600D02*
X387100D01*
Y106100D01*
X402600D01*
Y106274D01*
X401947Y109559D01*
X400665Y112653D01*
X398805Y115437D01*
X396437Y117805D01*
X393652Y119665D01*
X390559Y120947D01*
X387274Y121600D01*
D02*
G37*
G36*
X336474D02*
X336300D01*
Y106100D01*
X351800D01*
Y106274D01*
X351147Y109559D01*
X349865Y112653D01*
X348005Y115437D01*
X345637Y117805D01*
X342853Y119665D01*
X339759Y120947D01*
X336474Y121600D01*
D02*
G37*
G36*
X384100D02*
X383926D01*
X380641Y120947D01*
X377547Y119665D01*
X374763Y117805D01*
X372395Y115437D01*
X370535Y112653D01*
X369253Y109559D01*
X368600Y106274D01*
Y106100D01*
X384100D01*
Y121600D01*
D02*
G37*
G36*
X333300D02*
X333126D01*
X329841Y120947D01*
X326748Y119665D01*
X323963Y117805D01*
X321595Y115437D01*
X319735Y112653D01*
X318453Y109559D01*
X317800Y106274D01*
Y106100D01*
X333300D01*
Y121600D01*
D02*
G37*
G36*
X402600Y103100D02*
X387100D01*
Y87600D01*
X387274D01*
X390559Y88253D01*
X393652Y89535D01*
X396437Y91395D01*
X398805Y93763D01*
X400665Y96547D01*
X401947Y99641D01*
X402600Y102926D01*
Y103100D01*
D02*
G37*
G36*
X384100D02*
X368600D01*
Y102926D01*
X369253Y99641D01*
X370535Y96547D01*
X372395Y93763D01*
X374763Y91395D01*
X377547Y89535D01*
X380641Y88253D01*
X383926Y87600D01*
X384100D01*
Y103100D01*
D02*
G37*
G36*
X351800D02*
X336300D01*
Y87600D01*
X336474D01*
X339759Y88253D01*
X342853Y89535D01*
X345637Y91395D01*
X348005Y93763D01*
X349865Y96547D01*
X351147Y99641D01*
X351800Y102926D01*
Y103100D01*
D02*
G37*
G36*
X333300D02*
X317800D01*
Y102926D01*
X318453Y99641D01*
X319735Y96547D01*
X321595Y93763D01*
X323963Y91395D01*
X326748Y89535D01*
X329841Y88253D01*
X333126Y87600D01*
X333300D01*
Y103100D01*
D02*
G37*
G36*
X213031Y502450D02*
X210069D01*
X207208Y501683D01*
X204642Y500202D01*
X202548Y498108D01*
X201067Y495542D01*
X200300Y492681D01*
Y489719D01*
X201067Y486858D01*
X202548Y484292D01*
X204642Y482198D01*
X207208Y480717D01*
X210069Y479950D01*
X213031D01*
X215892Y480717D01*
X218458Y482198D01*
X220552Y484292D01*
X222033Y486858D01*
X222800Y489719D01*
Y492681D01*
X222033Y495542D01*
X220552Y498108D01*
X218458Y500202D01*
X215892Y501683D01*
X213031Y502450D01*
D02*
G37*
G36*
X129931D02*
X126969D01*
X124108Y501683D01*
X121542Y500202D01*
X119448Y498108D01*
X117967Y495542D01*
X117200Y492681D01*
Y489719D01*
X117967Y486858D01*
X119448Y484292D01*
X121542Y482198D01*
X124108Y480717D01*
X126969Y479950D01*
X129931D01*
X132792Y480717D01*
X135358Y482198D01*
X137452Y484292D01*
X138933Y486858D01*
X139700Y489719D01*
Y492681D01*
X138933Y495542D01*
X137452Y498108D01*
X135358Y500202D01*
X132792Y501683D01*
X129931Y502450D01*
D02*
G37*
G36*
X157631D02*
X154669D01*
X151808Y501683D01*
X149242Y500202D01*
X147148Y498108D01*
X145667Y495542D01*
X144900Y492681D01*
Y489719D01*
X145667Y486858D01*
X147148Y484292D01*
X149242Y482198D01*
X149882Y481828D01*
Y472850D01*
X148612Y472146D01*
X146642Y473283D01*
X143781Y474050D01*
X140819D01*
X137958Y473283D01*
X135392Y471802D01*
X133298Y469708D01*
X131817Y467142D01*
X131050Y464281D01*
Y461319D01*
X131817Y458458D01*
X133298Y455892D01*
X135392Y453798D01*
X137958Y452317D01*
X140819Y451550D01*
X143781D01*
X146642Y452317D01*
X148612Y453454D01*
X149882Y452750D01*
Y445294D01*
X143658Y439069D01*
X126400D01*
X124312Y438794D01*
X122366Y437988D01*
X120694Y436706D01*
X95289Y411300D01*
X94818D01*
X92147Y410584D01*
X89753Y409202D01*
X87798Y407247D01*
X86416Y404853D01*
X85700Y402182D01*
Y399418D01*
X86416Y396747D01*
X87798Y394353D01*
X89753Y392398D01*
X92147Y391016D01*
X94818Y390300D01*
X97582D01*
X100253Y391016D01*
X102647Y392398D01*
X104602Y394353D01*
X105984Y396747D01*
X106700Y399418D01*
Y399889D01*
X110075Y403264D01*
X111214Y402606D01*
X111100Y402182D01*
Y399418D01*
X111816Y396747D01*
X113198Y394353D01*
X115153Y392398D01*
X117547Y391016D01*
X120218Y390300D01*
X122982D01*
X125653Y391016D01*
X128047Y392398D01*
X130002Y394353D01*
X131384Y396747D01*
X132100Y399418D01*
Y402182D01*
X131384Y404853D01*
X130002Y407247D01*
X128047Y409202D01*
X125653Y410584D01*
X122982Y411300D01*
X120218D01*
X119794Y411186D01*
X119136Y412325D01*
X129742Y422931D01*
X147000D01*
X149088Y423206D01*
X151034Y424012D01*
X152706Y425294D01*
X161706Y434294D01*
X162988Y435965D01*
X163794Y437912D01*
X164069Y440000D01*
X163794Y442088D01*
X162988Y444035D01*
X162118Y445169D01*
Y453141D01*
X163388Y453627D01*
X165658Y452317D01*
X168500Y451555D01*
Y462800D01*
Y474045D01*
X165658Y473283D01*
X163388Y471973D01*
X162118Y472459D01*
Y481655D01*
X163058Y482198D01*
X165152Y484292D01*
X166633Y486858D01*
X167400Y489719D01*
Y492681D01*
X166633Y495542D01*
X165152Y498108D01*
X163058Y500202D01*
X160492Y501683D01*
X157631Y502450D01*
D02*
G37*
G36*
X185331D02*
X182369D01*
X179508Y501683D01*
X176942Y500202D01*
X174848Y498108D01*
X173367Y495542D01*
X172600Y492681D01*
Y489719D01*
X173367Y486858D01*
X174848Y484292D01*
X176942Y482198D01*
X177733Y481742D01*
Y472655D01*
X176462Y472059D01*
X174342Y473283D01*
X171500Y474045D01*
Y462800D01*
Y451555D01*
X174342Y452317D01*
X176462Y453541D01*
X177733Y452945D01*
Y438144D01*
X154294Y414706D01*
X153012Y413035D01*
X152305Y411328D01*
X151322Y410744D01*
X150865Y410635D01*
X148500Y411268D01*
Y400800D01*
Y390332D01*
X151053Y391016D01*
X152612Y391916D01*
X153883Y391183D01*
Y385017D01*
X152612Y384284D01*
X151053Y385184D01*
X148382Y385900D01*
X145618D01*
X142947Y385184D01*
X140553Y383802D01*
X138598Y381847D01*
X137216Y379453D01*
X136500Y376782D01*
Y374018D01*
X137216Y371347D01*
X138598Y368953D01*
X140553Y366998D01*
X142947Y365616D01*
X145618Y364900D01*
X148382D01*
X148806Y365014D01*
X149464Y363875D01*
X146089Y360500D01*
X136500D01*
Y339500D01*
X157500D01*
Y349089D01*
X160727Y352315D01*
X161900Y351829D01*
Y339500D01*
X181293D01*
X181819Y338230D01*
X180658Y337069D01*
X82489D01*
X80936Y338622D01*
X81300Y339500D01*
X81300D01*
Y360500D01*
X60300D01*
Y339500D01*
X62731D01*
Y337346D01*
X63006Y335258D01*
X63812Y333312D01*
X65094Y331641D01*
X73441Y323294D01*
X75112Y322012D01*
X77058Y321206D01*
X79146Y320931D01*
X184000D01*
X186088Y321206D01*
X188034Y322012D01*
X189706Y323294D01*
X199661Y333250D01*
X200931Y332724D01*
Y214724D01*
X200287Y213609D01*
X199650Y211231D01*
Y208769D01*
X200287Y206391D01*
X201518Y204259D01*
X203259Y202518D01*
X205391Y201287D01*
X207769Y200650D01*
X210231D01*
X212609Y201287D01*
X214741Y202518D01*
X216482Y204259D01*
X217713Y206391D01*
X218350Y208769D01*
Y211231D01*
X217713Y213609D01*
X217069Y214724D01*
Y305661D01*
X218339Y306001D01*
X219398Y304167D01*
X221167Y302398D01*
X223333Y301147D01*
X225749Y300500D01*
X228251D01*
X230667Y301147D01*
X232024Y301931D01*
X362976D01*
X364333Y301147D01*
X366749Y300500D01*
X369251D01*
X371667Y301147D01*
X373833Y302398D01*
X375602Y304167D01*
X376853Y306333D01*
X377500Y308749D01*
Y311251D01*
X376853Y313667D01*
X375602Y315833D01*
X373833Y317602D01*
X371667Y318853D01*
X369251Y319500D01*
X366749D01*
X364333Y318853D01*
X362976Y318069D01*
X232024D01*
X230667Y318853D01*
X228251Y319500D01*
X225749D01*
X223333Y318853D01*
X221167Y317602D01*
X219398Y315833D01*
X218339Y313999D01*
X217069Y314339D01*
Y330658D01*
X221706Y335294D01*
X222028Y335714D01*
X222402Y336088D01*
X222666Y336546D01*
X222988Y336965D01*
X223190Y337454D01*
X223455Y337912D01*
X223592Y338423D01*
X223794Y338912D01*
X223863Y339436D01*
X224000Y339947D01*
Y340476D01*
X224069Y341000D01*
X224000Y341524D01*
Y342053D01*
X223863Y342564D01*
X223794Y343088D01*
X223592Y343577D01*
X223455Y344088D01*
X223190Y344546D01*
X222988Y345034D01*
X222666Y345454D01*
X222402Y345912D01*
X222028Y346286D01*
X221706Y346706D01*
X221286Y347028D01*
X220912Y347402D01*
X220454Y347666D01*
X220035Y347988D01*
X219546Y348190D01*
X219088Y348455D01*
X218577Y348592D01*
X218088Y348794D01*
X217564Y348863D01*
X217175Y348967D01*
X216943Y349377D01*
X216681Y350270D01*
X252342Y385931D01*
X324276D01*
X325391Y385287D01*
X327769Y384650D01*
X330231D01*
X332609Y385287D01*
X334741Y386518D01*
X336482Y388259D01*
X337713Y390391D01*
X338350Y392769D01*
Y395231D01*
X337713Y397609D01*
X336482Y399741D01*
X334741Y401482D01*
X332609Y402713D01*
X330231Y403350D01*
X327769D01*
X325391Y402713D01*
X324276Y402069D01*
X249000D01*
X246912Y401794D01*
X244965Y400988D01*
X243294Y399706D01*
X184170Y340581D01*
X182900Y341107D01*
Y360500D01*
X168911D01*
X167907Y361770D01*
X168069Y363000D01*
X167872Y364495D01*
X167878Y364507D01*
X168905Y365430D01*
X168967Y365449D01*
X171018Y364900D01*
X173782D01*
X176453Y365616D01*
X178847Y366998D01*
X180802Y368953D01*
X182184Y371347D01*
X182900Y374018D01*
Y376782D01*
X182184Y379453D01*
X180802Y381847D01*
X178847Y383802D01*
X176453Y385184D01*
X173782Y385900D01*
X171018D01*
X168347Y385184D01*
X167217Y384532D01*
X166117Y385167D01*
Y391033D01*
X167217Y391668D01*
X168347Y391016D01*
X171018Y390300D01*
X173782D01*
X176453Y391016D01*
X178847Y392398D01*
X180802Y394353D01*
X182184Y396747D01*
X182900Y399418D01*
Y402182D01*
X182184Y404853D01*
X180802Y407247D01*
X178847Y409202D01*
X176453Y410584D01*
X175143Y410935D01*
X174763Y412352D01*
X189556Y427144D01*
X190838Y428815D01*
X191644Y430762D01*
X191919Y432850D01*
X191644Y434938D01*
X190838Y436884D01*
X189967Y438019D01*
Y452945D01*
X191238Y453541D01*
X193358Y452317D01*
X196219Y451550D01*
X199181D01*
X202042Y452317D01*
X204608Y453798D01*
X206702Y455892D01*
X208183Y458458D01*
X208950Y461319D01*
Y464281D01*
X208183Y467142D01*
X206702Y469708D01*
X204608Y471802D01*
X202042Y473283D01*
X199181Y474050D01*
X196219D01*
X193358Y473283D01*
X191238Y472059D01*
X189967Y472655D01*
Y481742D01*
X190758Y482198D01*
X192852Y484292D01*
X194333Y486858D01*
X195100Y489719D01*
Y492681D01*
X194333Y495542D01*
X192852Y498108D01*
X190758Y500202D01*
X188192Y501683D01*
X185331Y502450D01*
D02*
G37*
G36*
X226881Y474050D02*
X223919D01*
X221058Y473283D01*
X218492Y471802D01*
X216398Y469708D01*
X214917Y467142D01*
X214150Y464281D01*
Y461319D01*
X214917Y458458D01*
X216398Y455892D01*
X218492Y453798D01*
X221058Y452317D01*
X223919Y451550D01*
X226881D01*
X229742Y452317D01*
X232308Y453798D01*
X234402Y455892D01*
X235883Y458458D01*
X236650Y461319D01*
Y464281D01*
X235883Y467142D01*
X234402Y469708D01*
X232308Y471802D01*
X229742Y473283D01*
X226881Y474050D01*
D02*
G37*
G36*
X118725Y474112D02*
X110475D01*
X108615Y473867D01*
X106882Y473149D01*
X105393Y472007D01*
X104251Y470518D01*
X103533Y468785D01*
X103288Y466925D01*
Y458675D01*
X103533Y456815D01*
X104251Y455082D01*
X105393Y453593D01*
X106882Y452451D01*
X108615Y451733D01*
X110475Y451488D01*
X118725D01*
X120585Y451733D01*
X122318Y452451D01*
X123807Y453593D01*
X124949Y455082D01*
X125667Y456815D01*
X125912Y458675D01*
Y466925D01*
X125667Y468785D01*
X124949Y470518D01*
X123807Y472007D01*
X122318Y473149D01*
X120585Y473867D01*
X118725Y474112D01*
D02*
G37*
G36*
X297125Y504000D02*
X292875D01*
X288678Y503335D01*
X284636Y502022D01*
X280849Y500092D01*
X277411Y497594D01*
X274405Y494589D01*
X271908Y491151D01*
X269978Y487364D01*
X268665Y483322D01*
X268000Y479125D01*
Y474875D01*
X268665Y470677D01*
X269978Y466636D01*
X271908Y462849D01*
X274405Y459411D01*
X277411Y456405D01*
X280849Y453908D01*
X284636Y451978D01*
X288678Y450665D01*
X292875Y450000D01*
X297125D01*
X301322Y450665D01*
X305364Y451978D01*
X309151Y453908D01*
X312589Y456405D01*
X315594Y459411D01*
X318092Y462849D01*
X320022Y466636D01*
X321335Y470677D01*
X322000Y474875D01*
Y479125D01*
X321335Y483322D01*
X320022Y487364D01*
X318092Y491151D01*
X315594Y494589D01*
X312589Y497594D01*
X309151Y500092D01*
X305364Y502022D01*
X301322Y503335D01*
X297125Y504000D01*
D02*
G37*
G36*
X47125D02*
X42875D01*
X38677Y503335D01*
X34636Y502022D01*
X30849Y500092D01*
X27411Y497594D01*
X24406Y494589D01*
X21907Y491151D01*
X19978Y487364D01*
X18665Y483322D01*
X18000Y479125D01*
Y474875D01*
X18665Y470677D01*
X19978Y466636D01*
X21907Y462849D01*
X24406Y459411D01*
X27411Y456405D01*
X30849Y453908D01*
X34636Y451978D01*
X38677Y450665D01*
X42875Y450000D01*
X47125D01*
X51322Y450665D01*
X55364Y451978D01*
X59151Y453908D01*
X62589Y456405D01*
X65594Y459411D01*
X68092Y462849D01*
X70022Y466636D01*
X71335Y470677D01*
X72000Y474875D01*
Y479125D01*
X71335Y483322D01*
X70022Y487364D01*
X68092Y491151D01*
X65594Y494589D01*
X62589Y497594D01*
X59151Y500092D01*
X55364Y502022D01*
X51322Y503335D01*
X47125Y504000D01*
D02*
G37*
G36*
X145500Y411269D02*
X142947Y410584D01*
X140553Y409202D01*
X138598Y407247D01*
X137216Y404853D01*
X136532Y402300D01*
X145500D01*
Y411269D01*
D02*
G37*
G36*
Y399300D02*
X136532D01*
X137216Y396747D01*
X138598Y394353D01*
X140553Y392398D01*
X142947Y391016D01*
X145500Y390331D01*
Y399300D01*
D02*
G37*
G36*
X72182Y411300D02*
X69418D01*
X66747Y410584D01*
X64353Y409202D01*
X62398Y407247D01*
X61016Y404853D01*
X60300Y402182D01*
Y399418D01*
X61016Y396747D01*
X62398Y394353D01*
X64353Y392398D01*
X66747Y391016D01*
X69418Y390300D01*
X72182D01*
X74853Y391016D01*
X77247Y392398D01*
X79202Y394353D01*
X80584Y396747D01*
X81300Y399418D01*
Y402182D01*
X80584Y404853D01*
X79202Y407247D01*
X77247Y409202D01*
X74853Y410584D01*
X72182Y411300D01*
D02*
G37*
G36*
X122982Y385900D02*
X120218D01*
X117547Y385184D01*
X115153Y383802D01*
X113198Y381847D01*
X111816Y379453D01*
X111100Y376782D01*
Y374018D01*
X111816Y371347D01*
X113198Y368953D01*
X115153Y366998D01*
X117547Y365616D01*
X120218Y364900D01*
X122982D01*
X125653Y365616D01*
X128047Y366998D01*
X130002Y368953D01*
X131384Y371347D01*
X132100Y374018D01*
Y376782D01*
X131384Y379453D01*
X130002Y381847D01*
X128047Y383802D01*
X125653Y385184D01*
X122982Y385900D01*
D02*
G37*
G36*
X97582D02*
X94818D01*
X92147Y385184D01*
X89753Y383802D01*
X87798Y381847D01*
X86416Y379453D01*
X85700Y376782D01*
Y374018D01*
X86416Y371347D01*
X87798Y368953D01*
X89753Y366998D01*
X92147Y365616D01*
X94818Y364900D01*
X97582D01*
X100253Y365616D01*
X102647Y366998D01*
X104602Y368953D01*
X105984Y371347D01*
X106700Y374018D01*
Y376782D01*
X105984Y379453D01*
X104602Y381847D01*
X102647Y383802D01*
X100253Y385184D01*
X97582Y385900D01*
D02*
G37*
G36*
X72182D02*
X69418D01*
X66747Y385184D01*
X64353Y383802D01*
X62398Y381847D01*
X61016Y379453D01*
X60300Y376782D01*
Y374018D01*
X61016Y371347D01*
X62398Y368953D01*
X64353Y366998D01*
X66747Y365616D01*
X69418Y364900D01*
X72182D01*
X74853Y365616D01*
X77247Y366998D01*
X79202Y368953D01*
X80584Y371347D01*
X81300Y374018D01*
Y376782D01*
X80584Y379453D01*
X79202Y381847D01*
X77247Y383802D01*
X74853Y385184D01*
X72182Y385900D01*
D02*
G37*
G36*
X106700Y360500D02*
X97700D01*
Y351500D01*
X106700D01*
Y360500D01*
D02*
G37*
G36*
X94700D02*
X85700D01*
Y351500D01*
X94700D01*
Y360500D01*
D02*
G37*
G36*
X132100D02*
X111100D01*
Y339500D01*
X132100D01*
Y360500D01*
D02*
G37*
G36*
X106700Y348500D02*
X97700D01*
Y339500D01*
X106700D01*
Y348500D01*
D02*
G37*
G36*
X94700D02*
X85700D01*
Y339500D01*
X94700D01*
Y348500D01*
D02*
G37*
G36*
X122382Y261500D02*
X119618D01*
X116947Y260784D01*
X114553Y259402D01*
X112598Y257447D01*
X111216Y255053D01*
X110500Y252382D01*
Y249618D01*
X111216Y246947D01*
X112598Y244553D01*
X114553Y242598D01*
X116947Y241216D01*
X119618Y240500D01*
X122382D01*
X125053Y241216D01*
X127447Y242598D01*
X129402Y244553D01*
X130784Y246947D01*
X131500Y249618D01*
Y252382D01*
X130784Y255053D01*
X129402Y257447D01*
X127447Y259402D01*
X125053Y260784D01*
X122382Y261500D01*
D02*
G37*
G36*
X72204Y258000D02*
X67796D01*
X63443Y257311D01*
X59252Y255949D01*
X55325Y253948D01*
X51759Y251357D01*
X48643Y248241D01*
X46052Y244675D01*
X44051Y240748D01*
X42689Y236557D01*
X42000Y232204D01*
Y227796D01*
X42689Y223443D01*
X44051Y219252D01*
X46052Y215325D01*
X48643Y211759D01*
X51759Y208643D01*
X55325Y206052D01*
X59252Y204051D01*
X63443Y202689D01*
X67796Y202000D01*
X72204D01*
X76557Y202689D01*
X80748Y204051D01*
X84675Y206052D01*
X88241Y208643D01*
X91357Y211759D01*
X93948Y215325D01*
X95949Y219252D01*
X97310Y223443D01*
X98000Y227796D01*
Y232204D01*
X97310Y236557D01*
X95949Y240748D01*
X93948Y244675D01*
X91357Y248241D01*
X88241Y251357D01*
X84675Y253948D01*
X80748Y255949D01*
X76557Y257311D01*
X72204Y258000D01*
D02*
G37*
G36*
X122382Y220500D02*
X119618D01*
X116947Y219784D01*
X114553Y218402D01*
X112598Y216447D01*
X111216Y214053D01*
X110500Y211382D01*
Y208618D01*
X111216Y205947D01*
X112598Y203553D01*
X114553Y201598D01*
X116947Y200216D01*
X119618Y199500D01*
X122382D01*
X125053Y200216D01*
X127447Y201598D01*
X129402Y203553D01*
X130784Y205947D01*
X131500Y208618D01*
Y211382D01*
X130784Y214053D01*
X129402Y216447D01*
X127447Y218402D01*
X125053Y219784D01*
X122382Y220500D01*
D02*
G37*
G36*
X488998Y164425D02*
X486202D01*
X483501Y163702D01*
X481079Y162304D01*
X479102Y160326D01*
X477704Y157905D01*
X476980Y155204D01*
Y152407D01*
X477704Y149706D01*
X479102Y147285D01*
X481079Y145307D01*
X483501Y143909D01*
X486202Y143185D01*
X488998D01*
X491699Y143909D01*
X494121Y145307D01*
X496098Y147285D01*
X497496Y149706D01*
X498220Y152407D01*
Y155204D01*
X497496Y157905D01*
X496098Y160326D01*
X494121Y162304D01*
X491699Y163702D01*
X488998Y164425D01*
D02*
G37*
G36*
X438198D02*
X435402D01*
X432701Y163702D01*
X430279Y162304D01*
X428302Y160326D01*
X426904Y157905D01*
X426180Y155204D01*
Y152407D01*
X426904Y149706D01*
X428302Y147285D01*
X430279Y145307D01*
X432701Y143909D01*
X435402Y143185D01*
X438198D01*
X440899Y143909D01*
X443321Y145307D01*
X445298Y147285D01*
X446696Y149706D01*
X447420Y152407D01*
Y155204D01*
X446696Y157905D01*
X445298Y160326D01*
X443321Y162304D01*
X440899Y163702D01*
X438198Y164425D01*
D02*
G37*
G36*
X563885Y139000D02*
X561515D01*
X559226Y138387D01*
X557174Y137202D01*
X555498Y135526D01*
X554313Y133474D01*
X553700Y131185D01*
Y128815D01*
X554313Y126526D01*
X555498Y124474D01*
X557174Y122798D01*
X559226Y121613D01*
X561515Y121000D01*
X563885D01*
X566174Y121613D01*
X568226Y122798D01*
X569902Y124474D01*
X571087Y126526D01*
X571700Y128815D01*
Y131185D01*
X571087Y133474D01*
X569902Y135526D01*
X568226Y137202D01*
X566174Y138387D01*
X563885Y139000D01*
D02*
G37*
G36*
X546300D02*
X528300D01*
Y121000D01*
X546300D01*
Y139000D01*
D02*
G37*
G36*
X463598Y139025D02*
X460802D01*
X458101Y138302D01*
X455679Y136903D01*
X453702Y134926D01*
X452304Y132505D01*
X451580Y129804D01*
Y127007D01*
X452304Y124306D01*
X453702Y121885D01*
X455679Y119907D01*
X458101Y118509D01*
X460802Y117785D01*
X463598D01*
X466299Y118509D01*
X468721Y119907D01*
X470698Y121885D01*
X472096Y124306D01*
X472820Y127007D01*
Y129804D01*
X472096Y132505D01*
X470698Y134926D01*
X468721Y136903D01*
X466299Y138302D01*
X463598Y139025D01*
D02*
G37*
G36*
X212274Y172400D02*
X212100D01*
Y156900D01*
X227600D01*
Y157074D01*
X226947Y160359D01*
X225665Y163452D01*
X223805Y166237D01*
X221437Y168605D01*
X218652Y170465D01*
X215559Y171747D01*
X212274Y172400D01*
D02*
G37*
G36*
X161474D02*
X161300D01*
Y156900D01*
X176800D01*
Y157074D01*
X176147Y160359D01*
X174865Y163452D01*
X173005Y166237D01*
X170637Y168605D01*
X167852Y170465D01*
X164759Y171747D01*
X161474Y172400D01*
D02*
G37*
G36*
X209100D02*
X208926D01*
X205641Y171747D01*
X202547Y170465D01*
X199763Y168605D01*
X197395Y166237D01*
X195535Y163452D01*
X194253Y160359D01*
X193600Y157074D01*
Y156900D01*
X209100D01*
Y172400D01*
D02*
G37*
G36*
X158300D02*
X158126D01*
X154841Y171747D01*
X151748Y170465D01*
X148963Y168605D01*
X146595Y166237D01*
X144735Y163452D01*
X143453Y160359D01*
X142800Y157074D01*
Y156900D01*
X158300D01*
Y172400D01*
D02*
G37*
G36*
X227600Y153900D02*
X212100D01*
Y138400D01*
X212274D01*
X215559Y139053D01*
X218652Y140335D01*
X221437Y142195D01*
X223805Y144563D01*
X225665Y147347D01*
X226947Y150441D01*
X227600Y153726D01*
Y153900D01*
D02*
G37*
G36*
X209100D02*
X193600D01*
Y153726D01*
X194253Y150441D01*
X195535Y147347D01*
X197395Y144563D01*
X199763Y142195D01*
X202547Y140335D01*
X205641Y139053D01*
X208926Y138400D01*
X209100D01*
Y153900D01*
D02*
G37*
G36*
X176800D02*
X161300D01*
Y138400D01*
X161474D01*
X164759Y139053D01*
X167852Y140335D01*
X170637Y142195D01*
X173005Y144563D01*
X174865Y147347D01*
X176147Y150441D01*
X176800Y153726D01*
Y153900D01*
D02*
G37*
G36*
X158300D02*
X142800D01*
Y153726D01*
X143453Y150441D01*
X144735Y147347D01*
X146595Y144563D01*
X148963Y142195D01*
X151748Y140335D01*
X154841Y139053D01*
X158126Y138400D01*
X158300D01*
Y153900D01*
D02*
G37*
G36*
X186727Y145500D02*
X183673D01*
X180679Y144904D01*
X177858Y143736D01*
X175319Y142040D01*
X173160Y139881D01*
X171464Y137342D01*
X170296Y134521D01*
X169700Y131527D01*
Y128473D01*
X170296Y125479D01*
X171464Y122658D01*
X173160Y120119D01*
X175319Y117960D01*
X177858Y116264D01*
X180679Y115096D01*
X183673Y114500D01*
X186727D01*
X189721Y115096D01*
X192542Y116264D01*
X195081Y117960D01*
X197240Y120119D01*
X198936Y122658D01*
X200104Y125479D01*
X200700Y128473D01*
Y131527D01*
X200104Y134521D01*
X198936Y137342D01*
X197240Y139881D01*
X195081Y142040D01*
X192542Y143736D01*
X189721Y144904D01*
X186727Y145500D01*
D02*
G37*
G36*
X212274Y121600D02*
X212100D01*
Y106100D01*
X227600D01*
Y106274D01*
X226947Y109559D01*
X225665Y112653D01*
X223805Y115437D01*
X221437Y117805D01*
X218652Y119665D01*
X215559Y120947D01*
X212274Y121600D01*
D02*
G37*
G36*
X161474D02*
X161300D01*
Y106100D01*
X176800D01*
Y106274D01*
X176147Y109559D01*
X174865Y112653D01*
X173005Y115437D01*
X170637Y117805D01*
X167852Y119665D01*
X164759Y120947D01*
X161474Y121600D01*
D02*
G37*
G36*
X209100D02*
X208926D01*
X205641Y120947D01*
X202547Y119665D01*
X199763Y117805D01*
X197395Y115437D01*
X195535Y112653D01*
X194253Y109559D01*
X193600Y106274D01*
Y106100D01*
X209100D01*
Y121600D01*
D02*
G37*
G36*
X158300D02*
X158126D01*
X154841Y120947D01*
X151748Y119665D01*
X148963Y117805D01*
X146595Y115437D01*
X144735Y112653D01*
X143453Y109559D01*
X142800Y106274D01*
Y106100D01*
X158300D01*
Y121600D01*
D02*
G37*
G36*
X227600Y103100D02*
X212100D01*
Y87600D01*
X212274D01*
X215559Y88253D01*
X218652Y89535D01*
X221437Y91395D01*
X223805Y93763D01*
X225665Y96547D01*
X226947Y99641D01*
X227600Y102926D01*
Y103100D01*
D02*
G37*
G36*
X209100D02*
X193600D01*
Y102926D01*
X194253Y99641D01*
X195535Y96547D01*
X197395Y93763D01*
X199763Y91395D01*
X202547Y89535D01*
X205641Y88253D01*
X208926Y87600D01*
X209100D01*
Y103100D01*
D02*
G37*
G36*
X176800D02*
X161300D01*
Y87600D01*
X161474D01*
X164759Y88253D01*
X167852Y89535D01*
X170637Y91395D01*
X173005Y93763D01*
X174865Y96547D01*
X176147Y99641D01*
X176800Y102926D01*
Y103100D01*
D02*
G37*
G36*
X158300D02*
X142800D01*
Y102926D01*
X143453Y99641D01*
X144735Y96547D01*
X146595Y93763D01*
X148963Y91395D01*
X151748Y89535D01*
X154841Y88253D01*
X158126Y87600D01*
X158300D01*
Y103100D01*
D02*
G37*
%LPD*%
D10*
X20000Y570000D02*
G03*
X0Y550000I0J-20000D01*
G01*
X700000D02*
G03*
X680000Y570000I-20000J0D01*
G01*
X680000Y0D02*
G03*
X700000Y20000I0J20000D01*
G01*
X0D02*
G03*
X20000Y0I20000J0D01*
G01*
X700000Y550000D02*
X700000Y20000D01*
X20000Y570000D02*
X680000D01*
X-0Y550000D02*
X0Y20000D01*
X20000Y0D02*
X680000D01*
D17*
X121000Y210000D02*
D03*
Y251000D02*
D03*
X172400Y375400D02*
D03*
Y400800D02*
D03*
X147000Y375400D02*
D03*
Y400800D02*
D03*
X121600Y375400D02*
D03*
Y400800D02*
D03*
X96200Y375400D02*
D03*
Y400800D02*
D03*
X70800Y375400D02*
D03*
Y400800D02*
D03*
D23*
X525000Y320000D02*
D03*
X499000D02*
D03*
X586000D02*
D03*
X560000D02*
D03*
D61*
X393000Y67000D02*
X421000Y95000D01*
X399000Y60000D02*
X434000Y95000D01*
X485000Y84000D02*
X489000Y80000D01*
X318000Y55000D02*
X330000Y67000D01*
X210000Y55000D02*
X318000D01*
X205000Y60000D02*
X210000Y55000D01*
X435200Y84000D02*
X485000D01*
X431200Y80000D02*
X435200Y84000D01*
X330000Y67000D02*
X393000D01*
X434000Y95000D02*
X491000D01*
X353700Y60000D02*
X399000D01*
D62*
X516000Y447738D02*
Y472000D01*
X69500Y80500D02*
X89000Y61000D01*
X182000D01*
X69500Y80500D02*
Y111251D01*
X95050Y34950D02*
X204947D01*
X44249Y85751D02*
X95050Y34950D01*
X22000Y85751D02*
X44249D01*
X204997Y35000D02*
X245000D01*
X204947Y34950D02*
X204997Y35000D01*
X194000Y73000D02*
X259000D01*
X182000Y61000D02*
X194000Y73000D01*
X269000Y63000D02*
X312995D01*
X259000Y73000D02*
X269000Y63000D01*
X312995D02*
X323000Y73005D01*
X245000Y35000D02*
X330000D01*
X422000D01*
X561000Y71000D02*
X570000Y80000D01*
X476000Y71000D02*
X561000D01*
X474000Y73000D02*
X476000Y71000D01*
X449000Y73000D02*
X474000D01*
X323000Y48000D02*
X411000D01*
X436000Y73000D01*
X449000D01*
X160000Y363000D02*
Y409000D01*
X183850Y432850D02*
Y491200D01*
X156000Y491050D02*
X156150Y491200D01*
X156000Y440000D02*
Y491050D01*
D63*
X516000Y472000D02*
Y491050D01*
X70800Y337346D02*
Y350000D01*
X79146Y329000D02*
X184000D01*
X70800Y337346D02*
X79146Y329000D01*
X227000Y310000D02*
X368000D01*
X209000Y210000D02*
Y334000D01*
X216000Y341000D01*
X249000Y394000D02*
X329000D01*
X184000Y329000D02*
X249000Y394000D01*
X160000Y409000D02*
X183850Y432850D01*
X147000Y350000D02*
X160000Y363000D01*
X126400Y431000D02*
X147000D01*
X96200Y400800D02*
X126400Y431000D01*
X147000D02*
X156000Y440000D01*
D66*
X526000Y320000D02*
Y359000D01*
X516000Y369000D02*
X526000Y359000D01*
X516000Y369000D02*
Y447738D01*
X585957Y320957D02*
X590957D01*
X610000Y340000D01*
X585000Y320000D02*
X585957Y320957D01*
X610000Y340000D02*
Y480000D01*
X571550Y491200D02*
X598800D01*
X610000Y480000D01*
D67*
X462200Y128405D02*
D03*
X436800Y153805D02*
D03*
X487600D02*
D03*
D68*
X573000Y259000D02*
D03*
X70000Y230000D02*
D03*
X512000Y259000D02*
D03*
X636000D02*
D03*
D69*
X625000Y320000D02*
D03*
X647000D02*
D03*
X560000Y360000D02*
D03*
X585000D02*
D03*
D70*
X562700Y400000D02*
D03*
X562700Y130000D02*
D03*
D71*
X537300Y400000D02*
D03*
X537300Y130000D02*
D03*
D72*
X405000Y477000D02*
D03*
X655000D02*
D03*
X295000D02*
D03*
X45000D02*
D03*
D73*
X571550Y491200D02*
D03*
X543850D02*
D03*
X516150D02*
D03*
X488450D02*
D03*
X502300Y462800D02*
D03*
X474600D02*
D03*
X557700D02*
D03*
X530000D02*
D03*
X170000D02*
D03*
X197700D02*
D03*
X225400D02*
D03*
X142300D02*
D03*
X128450Y491200D02*
D03*
X156150D02*
D03*
X183850D02*
D03*
X211550D02*
D03*
D74*
X585400Y462800D02*
D03*
X114600D02*
D03*
D75*
X360200Y130000D02*
D03*
X185200D02*
D03*
D76*
X385600Y104600D02*
D03*
Y155400D02*
D03*
X334800D02*
D03*
Y104600D02*
D03*
X210600D02*
D03*
Y155400D02*
D03*
X159800D02*
D03*
Y104600D02*
D03*
D77*
X172400Y350000D02*
D03*
X147000Y350000D02*
D03*
X121600D02*
D03*
X96200D02*
D03*
X70800D02*
D03*
D78*
X35000Y35000D02*
D03*
X665000D02*
D03*
D79*
X421000Y95000D02*
D03*
X675000Y500000D02*
D03*
Y450000D02*
D03*
Y400000D02*
D03*
Y350000D02*
D03*
Y300000D02*
D03*
Y250000D02*
D03*
X662500Y525000D02*
D03*
Y425000D02*
D03*
X650000Y400000D02*
D03*
X662500Y375000D02*
D03*
X650000Y350000D02*
D03*
X662500Y325000D02*
D03*
X650000Y300000D02*
D03*
X637500Y525000D02*
D03*
X625000Y500000D02*
D03*
Y300000D02*
D03*
X612500Y525000D02*
D03*
X600000Y300000D02*
D03*
X587500Y525000D02*
D03*
X575000Y450000D02*
D03*
Y350000D02*
D03*
Y300000D02*
D03*
X562500Y525000D02*
D03*
X550000Y300000D02*
D03*
X537500Y525000D02*
D03*
X525000Y300000D02*
D03*
X512500Y525000D02*
D03*
X500000Y500000D02*
D03*
Y350000D02*
D03*
Y300000D02*
D03*
X487500Y525000D02*
D03*
X475000Y500000D02*
D03*
X487500Y475000D02*
D03*
X475000Y300000D02*
D03*
Y250000D02*
D03*
X462500Y525000D02*
D03*
X450000Y500000D02*
D03*
X462500Y475000D02*
D03*
X450000Y450000D02*
D03*
Y400000D02*
D03*
Y350000D02*
D03*
X462500Y325000D02*
D03*
X450000Y300000D02*
D03*
X462500Y275000D02*
D03*
X450000Y250000D02*
D03*
X437500Y525000D02*
D03*
X425000Y500000D02*
D03*
X437500Y475000D02*
D03*
X412500Y525000D02*
D03*
X387500D02*
D03*
X375000Y500000D02*
D03*
X675000Y175000D02*
D03*
Y125000D02*
D03*
Y75000D02*
D03*
X662500Y200000D02*
D03*
X650000Y175000D02*
D03*
X662500Y150000D02*
D03*
X650000Y125000D02*
D03*
X662500Y100000D02*
D03*
X650000Y75000D02*
D03*
X637500Y200000D02*
D03*
X625000Y175000D02*
D03*
X637500Y150000D02*
D03*
X625000Y125000D02*
D03*
X637500Y100000D02*
D03*
X625000Y75000D02*
D03*
Y25000D02*
D03*
X612500Y200000D02*
D03*
X600000Y175000D02*
D03*
X612500Y150000D02*
D03*
X600000Y125000D02*
D03*
X612500Y100000D02*
D03*
Y50000D02*
D03*
X600000Y25000D02*
D03*
X587500Y200000D02*
D03*
X575000Y175000D02*
D03*
X587500Y150000D02*
D03*
Y100000D02*
D03*
X562500Y200000D02*
D03*
X550000Y175000D02*
D03*
X562500Y150000D02*
D03*
X537500Y200000D02*
D03*
X525000Y175000D02*
D03*
X537500Y150000D02*
D03*
X525000Y125000D02*
D03*
X537500Y100000D02*
D03*
X512500Y200000D02*
D03*
X500000Y175000D02*
D03*
X512500Y150000D02*
D03*
X487500Y200000D02*
D03*
Y50000D02*
D03*
X475000Y25000D02*
D03*
X462500Y200000D02*
D03*
X450000Y175000D02*
D03*
X462500Y150000D02*
D03*
X450000Y25000D02*
D03*
X425000Y425000D02*
D03*
Y375000D02*
D03*
Y325000D02*
D03*
Y275000D02*
D03*
X437500Y50000D02*
D03*
X412500Y350000D02*
D03*
X400000Y325000D02*
D03*
X412500Y300000D02*
D03*
X400000Y275000D02*
D03*
X412500Y200000D02*
D03*
X350000Y425000D02*
D03*
X362500Y350000D02*
D03*
X350000Y325000D02*
D03*
Y25000D02*
D03*
X325000Y525000D02*
D03*
X337500Y500000D02*
D03*
X325000Y475000D02*
D03*
X337500Y450000D02*
D03*
Y350000D02*
D03*
X325000Y325000D02*
D03*
Y275000D02*
D03*
Y25000D02*
D03*
X300000Y525000D02*
D03*
X312500Y450000D02*
D03*
X300000Y25000D02*
D03*
X275000Y525000D02*
D03*
X287500Y350000D02*
D03*
X275000Y325000D02*
D03*
X287500Y200000D02*
D03*
X275000Y25000D02*
D03*
X250000Y525000D02*
D03*
X262500Y500000D02*
D03*
X250000Y475000D02*
D03*
X262500Y450000D02*
D03*
X250000Y175000D02*
D03*
Y125000D02*
D03*
X262500Y100000D02*
D03*
X250000Y25000D02*
D03*
X225000Y525000D02*
D03*
X237500Y450000D02*
D03*
X225000Y425000D02*
D03*
X237500Y350000D02*
D03*
X225000Y275000D02*
D03*
Y25000D02*
D03*
X200000Y525000D02*
D03*
X212500Y450000D02*
D03*
Y400000D02*
D03*
X200000Y25000D02*
D03*
X175000Y525000D02*
D03*
X187500Y350000D02*
D03*
Y50000D02*
D03*
X175000Y25000D02*
D03*
X150000Y525000D02*
D03*
Y225000D02*
D03*
X125000Y525000D02*
D03*
Y225000D02*
D03*
Y25000D02*
D03*
X100000Y525000D02*
D03*
X112500Y50000D02*
D03*
X100000Y25000D02*
D03*
X75000Y525000D02*
D03*
X87500Y500000D02*
D03*
X75000Y475000D02*
D03*
X87500Y200000D02*
D03*
X75000Y25000D02*
D03*
X50000Y525000D02*
D03*
Y275000D02*
D03*
Y125000D02*
D03*
X25000Y525000D02*
D03*
Y425000D02*
D03*
Y175000D02*
D03*
X128000Y416000D02*
D03*
X98000Y420000D02*
D03*
X84000D02*
D03*
X94000Y432000D02*
D03*
X395001Y130001D02*
D03*
X385001D02*
D03*
X365001Y170001D02*
D03*
X360001Y160001D02*
D03*
X365001Y150001D02*
D03*
Y110001D02*
D03*
X360001Y100001D02*
D03*
X365001Y90001D02*
D03*
X355001Y170001D02*
D03*
Y150001D02*
D03*
Y110001D02*
D03*
Y90001D02*
D03*
X320001Y140001D02*
D03*
Y120001D02*
D03*
X315002Y110001D02*
D03*
Y90001D02*
D03*
X295002Y110001D02*
D03*
X290002Y100001D02*
D03*
X295002Y90001D02*
D03*
X280002Y120001D02*
D03*
X285002Y110001D02*
D03*
X280002Y100001D02*
D03*
X285002Y90001D02*
D03*
X225002Y140001D02*
D03*
X220002Y130001D02*
D03*
X225002Y120001D02*
D03*
X210002Y130001D02*
D03*
X190001Y170001D02*
D03*
Y150001D02*
D03*
Y110001D02*
D03*
Y90001D02*
D03*
X180001Y170001D02*
D03*
X185001Y160001D02*
D03*
X180001Y150001D02*
D03*
Y110001D02*
D03*
X185001Y100001D02*
D03*
X180001Y90001D02*
D03*
X150001Y70001D02*
D03*
X145001Y140001D02*
D03*
Y120001D02*
D03*
X140001Y110001D02*
D03*
Y90001D02*
D03*
X145001Y80001D02*
D03*
X140001Y70001D02*
D03*
X120001D02*
D03*
X115001Y80001D02*
D03*
X110001Y70001D02*
D03*
X100001Y130001D02*
D03*
Y110001D02*
D03*
Y90001D02*
D03*
X105001Y80001D02*
D03*
X205000Y60000D02*
D03*
X491000Y95000D02*
D03*
X431200Y80000D02*
D03*
X353700Y60000D02*
D03*
D80*
X489000Y80000D02*
D03*
X259000Y73000D02*
D03*
X245000Y35000D02*
D03*
X570000Y80000D02*
D03*
X323000Y73005D02*
D03*
Y48000D02*
D03*
X449000Y73000D02*
D03*
X422000Y35000D02*
D03*
X330000D02*
D03*
D81*
X368000Y310000D02*
D03*
X22000Y85751D02*
D03*
X69500Y111251D02*
D03*
X227000Y310000D02*
D03*
D82*
X209000Y210000D02*
D03*
X329000Y394000D02*
D03*
D83*
X216000Y341000D02*
D03*
M02*
