G04*
G04 #@! TF.GenerationSoftware,Altium Limited,Altium Designer,23.9.2 (47)*
G04*
G04 Layer_Color=65535*
%FSLAX44Y44*%
%MOMM*%
G71*
G04*
G04 #@! TF.SameCoordinates,B568AE66-8DF3-4FEE-8232-9B1AC1FE23A7*
G04*
G04*
G04 #@! TF.FilePolarity,Positive*
G04*
G01*
G75*
%ADD10C,0.1000*%
%ADD11C,0.2500*%
%ADD12C,0.0152*%
%ADD13C,0.2000*%
%ADD14C,0.4000*%
%ADD15C,0.1270*%
%ADD16C,0.1500*%
D10*
X507200Y130405D02*
G03*
X507200Y130405I-10000J0D01*
G01*
X531386Y388273D02*
G03*
X531386Y411727I18614J11727D01*
G01*
Y118273D02*
G03*
X531386Y141727I18614J11727D01*
G01*
X392700Y130000D02*
G03*
X392700Y130000I-32500J0D01*
G01*
X327200Y165000D02*
G03*
X325200Y163000I0J-2000D01*
G01*
X395200D02*
G03*
X393200Y165000I-2000J0D01*
G01*
X325200Y97000D02*
G03*
X327200Y95000I2000J0D01*
G01*
X393200D02*
G03*
X395200Y97000I0J2000D01*
G01*
X217700Y130000D02*
G03*
X217700Y130000I-32500J0D01*
G01*
X152200Y165000D02*
G03*
X150200Y163000I0J-2000D01*
G01*
X220200D02*
G03*
X218200Y165000I-2000J0D01*
G01*
X150200Y97000D02*
G03*
X152200Y95000I2000J0D01*
G01*
X218200D02*
G03*
X220200Y97000I0J2000D01*
G01*
X491200Y122405D02*
X504200Y136405D01*
X490200Y124405D02*
X503200Y138405D01*
X510200Y165405D02*
X510200Y116405D01*
X414200D02*
X414200Y165405D01*
X414200Y116405D02*
X510200D01*
X414200Y165405D02*
X510200D01*
X570500Y428000D02*
X576500D01*
X570500Y442000D02*
X576500D01*
X531294Y388273D02*
Y411580D01*
X353500Y205000D02*
X360500Y205000D01*
X353500Y234000D02*
X353500Y205000D01*
X353500Y234000D02*
X360500D01*
Y205000D02*
Y234000D01*
X358994Y239745D02*
X362494D01*
X358994Y249745D02*
X362494D01*
X286000Y154250D02*
Y157750D01*
X296000Y154250D02*
Y157750D01*
X521000Y70250D02*
Y73750D01*
X511000Y70250D02*
Y73750D01*
X545690Y64294D02*
X550690Y69294D01*
X545690Y38294D02*
X568689D01*
X545690Y69294D02*
X568689D01*
Y38294D02*
Y69294D01*
X545690Y38294D02*
Y69294D01*
X537250Y85000D02*
X540750D01*
X537250Y75000D02*
X540750D01*
X496000Y70250D02*
Y73750D01*
X506000Y70250D02*
Y73750D01*
X506250Y41000D02*
X509750D01*
X506250Y51000D02*
X509750D01*
X539250Y33000D02*
X542750D01*
X539250Y23000D02*
X542750D01*
X571250D02*
X574750D01*
X571250Y33000D02*
X574750D01*
X585250Y75000D02*
X588750D01*
X585250Y85000D02*
X588750D01*
X584000Y121250D02*
Y124750D01*
X574000Y121250D02*
Y124750D01*
X531294Y118273D02*
Y141580D01*
X498250Y101000D02*
X501750D01*
X498250Y111000D02*
X501750D01*
X459450Y111000D02*
X462950D01*
X459450Y101000D02*
X462950D01*
X427450D02*
X430950D01*
X427450Y111000D02*
X430950D01*
X419200Y29500D02*
Y78500D01*
Y29500D02*
X451200D01*
Y78500D01*
X419200D02*
X451200D01*
X394200Y65250D02*
Y68750D01*
X384200Y65250D02*
Y68750D01*
X394200Y34400D02*
Y37900D01*
X384200Y34400D02*
Y37900D01*
X380000Y34250D02*
Y37750D01*
X370000Y34250D02*
Y37750D01*
X379000Y65250D02*
Y68750D01*
X369000Y65250D02*
Y68750D01*
X242000Y41250D02*
Y44750D01*
X232000Y41250D02*
Y44750D01*
X264200Y50250D02*
Y53750D01*
X274200Y50250D02*
Y53750D01*
X299200Y29500D02*
Y78500D01*
Y29500D02*
X331200D01*
Y78500D01*
X299200D02*
X331200D01*
X255000Y63250D02*
Y66750D01*
X245000Y63250D02*
Y66750D01*
X297450Y125000D02*
X300950D01*
X297450Y135000D02*
X300950D01*
X395200Y97000D02*
Y163000D01*
X325200Y97000D02*
Y163000D01*
X327200Y165000D02*
X393200D01*
X327200Y95000D02*
X393200D01*
X301200Y147150D02*
Y163150D01*
X313200D01*
X301200Y147150D02*
X313200D01*
Y163150D01*
X268000Y147000D02*
Y163000D01*
X280000D01*
X268000Y147000D02*
X280000D01*
Y163000D01*
X141200Y50250D02*
Y53750D01*
X151200Y50250D02*
Y53750D01*
X175200Y78500D02*
X207200D01*
Y29500D02*
Y78500D01*
X175200Y29500D02*
X207200D01*
X175200D02*
Y78500D01*
X120779Y124924D02*
X124279D01*
X120779Y134924D02*
X124279D01*
X120450Y109000D02*
X123950D01*
X120450Y119000D02*
X123950D01*
X120450Y103000D02*
X123950D01*
X120450Y93000D02*
X123950D01*
X220200Y97000D02*
Y163000D01*
X150200Y97000D02*
Y163000D01*
X152200Y165000D02*
X218200D01*
X152200Y95000D02*
X218200D01*
X127200Y147000D02*
Y163000D01*
X139200D01*
X127200Y147000D02*
X139200D01*
Y163000D01*
X113200Y153250D02*
Y156750D01*
X123200Y153250D02*
Y156750D01*
X98200Y147000D02*
Y163000D01*
X110200D01*
X98200Y147000D02*
X110200D01*
Y163000D01*
X29500Y147251D02*
X33500D01*
X29500Y133251D02*
X33500D01*
X55000Y106751D02*
Y113751D01*
X84000D01*
Y106751D02*
Y113751D01*
X55000Y106751D02*
X84000D01*
X17000Y106751D02*
Y113751D01*
X46000D01*
Y106751D02*
Y113751D01*
X17000Y106751D02*
X46000D01*
X68250Y147251D02*
X72250D01*
X68250Y133251D02*
X72250D01*
X62500Y164251D02*
X78500D01*
Y152251D02*
Y164251D01*
X62500Y152251D02*
Y164251D01*
Y152251D02*
X78500D01*
X23500Y164251D02*
X39500D01*
Y152251D02*
Y164251D01*
X23500Y152251D02*
Y164251D01*
Y152251D02*
X39500D01*
X137000Y207000D02*
X163000D01*
X137000Y255000D02*
X163000D01*
X137000Y207000D02*
Y255000D01*
X163000Y207000D02*
Y255000D01*
X400250Y249500D02*
X403750D01*
X400250Y239500D02*
X403750D01*
X318250Y250000D02*
X321750D01*
X318250Y240000D02*
X321750D01*
X269250Y240000D02*
X272750D01*
X269250Y250000D02*
X272750D01*
X228250Y240000D02*
X231750D01*
X228250Y250000D02*
X231750D01*
X401500Y205000D02*
Y234000D01*
X394500D02*
X401500D01*
X394500Y205000D02*
Y234000D01*
Y205000D02*
X401500D01*
X320000Y205000D02*
Y234000D01*
X313000D02*
X320000D01*
X313000Y205000D02*
Y234000D01*
Y205000D02*
X320000D01*
X271000Y234000D02*
X271000Y205000D01*
X278000D01*
Y234000D01*
X271000D02*
X278000D01*
X229500Y205000D02*
Y234000D01*
Y205000D02*
X236500D01*
Y234000D01*
X229500Y234000D02*
X236500Y234000D01*
X183000Y205000D02*
Y234000D01*
Y205000D02*
X190000D01*
X190000Y234000D02*
X190000Y205000D01*
X183000Y234000D02*
X190000Y234000D01*
X186250Y240000D02*
X189750D01*
X186250Y250000D02*
X189750D01*
X75250Y322000D02*
X78750D01*
X75250Y332000D02*
X78750Y332000D01*
X337502Y405002D02*
X380502D01*
X337500Y437000D02*
X380500D01*
X206500D02*
X249500D01*
X206502Y405002D02*
X249502D01*
X149250Y427000D02*
X152750D01*
X149250Y437000D02*
X152750D01*
X118250Y427000D02*
X121750D01*
X118250Y437000D02*
X121750D01*
X185098Y413500D02*
X185098Y337302D01*
X159698Y337302D02*
Y413500D01*
X185098D01*
X159698Y337302D02*
X185098Y337302D01*
X159698Y337302D02*
Y413500D01*
X134298Y337302D02*
Y413500D01*
X159698D01*
X134298Y337302D02*
X159698D01*
X134298D02*
Y413500D01*
X108898Y337302D02*
Y413500D01*
X134298D01*
X108898Y337302D02*
X134298D01*
X108898D02*
Y413500D01*
X83498Y337302D02*
Y413500D01*
X108898D01*
X83498Y337302D02*
X108898D01*
X83498D02*
Y413500D01*
X58098Y337302D02*
Y413500D01*
X83498D01*
X58098Y337302D02*
X83498D01*
X179000Y292250D02*
Y295750D01*
X189000Y292250D02*
Y295750D01*
X357501Y17335D02*
Y20668D01*
Y19002D01*
X362499D01*
Y22334D02*
X357501D01*
Y24833D01*
X358334Y25666D01*
X360000D01*
X360833Y24833D01*
Y22334D01*
X358334Y27332D02*
X357501Y28165D01*
Y29831D01*
X358334Y30665D01*
X359167D01*
X360000Y29831D01*
Y28998D01*
Y29831D01*
X360833Y30665D01*
X361666D01*
X362499Y29831D01*
Y28165D01*
X361666Y27332D01*
X401169Y107499D02*
X404501D01*
X402835D01*
Y102501D01*
X406167D02*
Y107499D01*
X408666D01*
X409499Y106666D01*
Y105000D01*
X408666Y104167D01*
X406167D01*
X411165Y102501D02*
X412831D01*
X411998D01*
Y107499D01*
X411165Y106666D01*
X467336Y93499D02*
X470668D01*
X469002D01*
Y88501D01*
X472334D02*
Y93499D01*
X474833D01*
X475666Y92666D01*
Y91000D01*
X474833Y90167D01*
X472334D01*
X479831Y88501D02*
Y93499D01*
X477332Y91000D01*
X480664D01*
X467336Y84499D02*
X470668D01*
X469002D01*
Y79501D01*
X472334D02*
Y84499D01*
X474833D01*
X475666Y83666D01*
Y82000D01*
X474833Y81167D01*
X472334D01*
X480664Y79501D02*
X477332D01*
X480664Y82833D01*
Y83666D01*
X479831Y84499D01*
X478165D01*
X477332Y83666D01*
X411499Y150741D02*
X406501D01*
Y153240D01*
X407334Y154073D01*
X409000D01*
X409833Y153240D01*
Y150741D01*
Y152407D02*
X411499Y154073D01*
Y159072D02*
Y155739D01*
X408167Y159072D01*
X407334D01*
X406501Y158238D01*
Y156572D01*
X407334Y155739D01*
Y160738D02*
X406501Y161571D01*
Y163237D01*
X407334Y164070D01*
X410666D01*
X411499Y163237D01*
Y161571D01*
X410666Y160738D01*
X407334D01*
X424532Y155073D02*
Y157572D01*
X423699Y158405D01*
X422033D01*
X421200Y157572D01*
Y155073D01*
X424532Y153407D02*
X422033D01*
X421200Y152574D01*
X422033Y151741D01*
X421200Y150908D01*
X422033Y150075D01*
X424532D01*
X426000Y180330D02*
X430665D01*
X428333D01*
Y173333D01*
X437663Y179164D02*
X436497Y180330D01*
X434164D01*
X432998Y179164D01*
Y174499D01*
X434164Y173333D01*
X436497D01*
X437663Y174499D01*
X439995Y176831D02*
X444661D01*
X446993Y180330D02*
Y173333D01*
X450492D01*
X451658Y174499D01*
Y175665D01*
X450492Y176831D01*
X446993D01*
X450492D01*
X451658Y177998D01*
Y179164D01*
X450492Y180330D01*
X446993D01*
X455157Y177998D02*
X457490D01*
X458656Y176831D01*
Y173333D01*
X455157D01*
X453991Y174499D01*
X455157Y175665D01*
X458656D01*
X462155Y177998D02*
X464488D01*
X465654Y176831D01*
Y173333D01*
X462155D01*
X460989Y174499D01*
X462155Y175665D01*
X465654D01*
X467986Y173333D02*
X470319D01*
X469153D01*
Y177998D01*
X467986D01*
X473818Y171000D02*
X474984D01*
X476151Y172166D01*
Y177998D01*
X480816Y176831D02*
X485481D01*
X487813Y173333D02*
X490146D01*
X488980D01*
Y180330D01*
X487813Y179164D01*
X493645Y173333D02*
X495978D01*
X494811D01*
Y180330D01*
X493645Y179164D01*
X499476Y173333D02*
X504142Y177998D01*
X511139Y173333D02*
X506474D01*
X511139Y177998D01*
Y179164D01*
X509973Y180330D01*
X507640D01*
X506474Y179164D01*
X513472D02*
X514638Y180330D01*
X516971D01*
X518137Y179164D01*
Y174499D01*
X516971Y173333D01*
X514638D01*
X513472Y174499D01*
Y179164D01*
X525135Y173333D02*
X520470D01*
X525135Y177998D01*
Y179164D01*
X523969Y180330D01*
X521636D01*
X520470Y179164D01*
X527467D02*
X528634Y180330D01*
X530966D01*
X532132Y179164D01*
Y177998D01*
X530966Y176831D01*
X529800D01*
X530966D01*
X532132Y175665D01*
Y174499D01*
X530966Y173333D01*
X528634D01*
X527467Y174499D01*
X103000Y206000D02*
Y211332D01*
X105666Y213997D01*
X108332Y211332D01*
Y206000D01*
Y209999D01*
X103000D01*
X108332Y253664D02*
X106999Y254997D01*
X104333D01*
X103000Y253664D01*
Y248333D01*
X104333Y247000D01*
X106999D01*
X108332Y248333D01*
X105000Y234997D02*
Y227000D01*
X110332D01*
X112997Y234997D02*
Y227000D01*
X116996D01*
X118329Y228333D01*
Y233664D01*
X116996Y234997D01*
X112997D01*
X617000Y297997D02*
X622332D01*
X619666D01*
Y290000D01*
X624997Y297997D02*
Y290000D01*
Y293999D01*
X626330Y295332D01*
X628996D01*
X630329Y293999D01*
Y290000D01*
X636994D02*
X634328D01*
X632995Y291333D01*
Y293999D01*
X634328Y295332D01*
X636994D01*
X638326Y293999D01*
Y292666D01*
X632995D01*
X640992Y295332D02*
Y290000D01*
Y292666D01*
X642325Y293999D01*
X643658Y295332D01*
X644991D01*
X648990Y290000D02*
Y295332D01*
X650323D01*
X651656Y293999D01*
Y290000D01*
Y293999D01*
X652988Y295332D01*
X654321Y293999D01*
Y290000D01*
X656987D02*
Y291333D01*
X658320D01*
Y290000D01*
X656987D01*
X648000Y308997D02*
Y301000D01*
X651999D01*
X653332Y302333D01*
Y303666D01*
Y304999D01*
X651999Y306332D01*
X648000D01*
X623333D02*
X625999D01*
X627332Y304999D01*
Y301000D01*
X623333D01*
X622000Y302333D01*
X623333Y303666D01*
X627332D01*
X555000Y297997D02*
X560332D01*
X557666D01*
Y290000D01*
X568329Y297997D02*
X562997D01*
Y290000D01*
X568329D01*
X562997Y293999D02*
X565663D01*
X576326Y296665D02*
X574994Y297997D01*
X572328D01*
X570995Y296665D01*
Y291333D01*
X572328Y290000D01*
X574994D01*
X576326Y291333D01*
X578992Y290000D02*
Y291333D01*
X580325D01*
Y290000D01*
X578992D01*
X585657D02*
X588323D01*
X586990D01*
Y297997D01*
X585657Y296665D01*
X557000Y303666D02*
X562332D01*
X559666Y306332D02*
Y301000D01*
X582000Y303000D02*
X587332D01*
X523000D02*
X528332D01*
X498000Y303666D02*
X503332D01*
X500666Y306332D02*
Y301000D01*
X496000Y297997D02*
X501332D01*
X498666D01*
Y290000D01*
X509329Y297997D02*
X503997D01*
Y290000D01*
X509329D01*
X503997Y293999D02*
X506663D01*
X517326Y296665D02*
X515994Y297997D01*
X513328D01*
X511995Y296665D01*
Y291333D01*
X513328Y290000D01*
X515994D01*
X517326Y291333D01*
X519992Y290000D02*
Y291333D01*
X521325D01*
Y290000D01*
X519992D01*
X531988D02*
X526657D01*
X531988Y295332D01*
Y296665D01*
X530656Y297997D01*
X527990D01*
X526657Y296665D01*
X566335Y420501D02*
Y425499D01*
X568835D01*
X569668Y424666D01*
Y423000D01*
X568835Y422167D01*
X566335D01*
X568002D02*
X569668Y420501D01*
X571334Y424666D02*
X572167Y425499D01*
X573833D01*
X574666Y424666D01*
Y423833D01*
X573833Y423000D01*
X573000D01*
X573833D01*
X574666Y422167D01*
Y421334D01*
X573833Y420501D01*
X572167D01*
X571334Y421334D01*
X579664Y420501D02*
X576332D01*
X579664Y423833D01*
Y424666D01*
X578831Y425499D01*
X577165D01*
X576332Y424666D01*
X544585Y416499D02*
Y411501D01*
X547084D01*
X547917Y412334D01*
Y415666D01*
X547084Y416499D01*
X544585D01*
X549584Y411501D02*
X551250D01*
X550416D01*
Y416499D01*
X549584Y415666D01*
X553749Y411501D02*
X555415D01*
X554582D01*
Y416499D01*
X553749Y415666D01*
X161084Y268666D02*
X160251Y269499D01*
X158585D01*
X157752Y268666D01*
Y265334D01*
X158585Y264501D01*
X160251D01*
X161084Y265334D01*
X162750Y264501D02*
X164417D01*
X163584D01*
Y269499D01*
X162750Y268666D01*
X170248Y269499D02*
X166916D01*
Y267000D01*
X168582Y267833D01*
X169415D01*
X170248Y267000D01*
Y265334D01*
X169415Y264501D01*
X167749D01*
X166916Y265334D01*
X135084Y268666D02*
X134251Y269499D01*
X132585D01*
X131752Y268666D01*
Y265334D01*
X132585Y264501D01*
X134251D01*
X135084Y265334D01*
X136750Y264501D02*
X138417D01*
X137584D01*
Y269499D01*
X136750Y268666D01*
X143415Y264501D02*
Y269499D01*
X140916Y267000D01*
X144248D01*
X147668Y198499D02*
Y193501D01*
X150167D01*
X151000Y194334D01*
Y197666D01*
X150167Y198499D01*
X147668D01*
X152666Y193501D02*
X154332D01*
X153499D01*
Y198499D01*
X152666Y197666D01*
X447334Y442998D02*
X444002D01*
X445668D01*
Y434668D01*
X444002Y433002D01*
X442336D01*
X440669Y434668D01*
X457331Y433002D02*
X450666D01*
X457331Y439666D01*
Y441332D01*
X455664Y442998D01*
X452332D01*
X450666Y441332D01*
X522835Y73499D02*
Y69334D01*
X523668Y68501D01*
X525334D01*
X526167Y69334D01*
Y73499D01*
X530332Y68501D02*
Y73499D01*
X527833Y71000D01*
X531165D01*
X289835Y87499D02*
Y83334D01*
X290668Y82501D01*
X292334D01*
X293167Y83334D01*
Y87499D01*
X294833Y86666D02*
X295666Y87499D01*
X297332D01*
X298165Y86666D01*
Y85833D01*
X297332Y85000D01*
X296499D01*
X297332D01*
X298165Y84167D01*
Y83334D01*
X297332Y82501D01*
X295666D01*
X294833Y83334D01*
X417835Y85499D02*
Y81334D01*
X418668Y80501D01*
X420334D01*
X421167Y81334D01*
Y85499D01*
X426165Y80501D02*
X422833D01*
X426165Y83833D01*
Y84666D01*
X425332Y85499D01*
X423666D01*
X422833Y84666D01*
X168668Y86499D02*
Y82334D01*
X169501Y81501D01*
X171167D01*
X172000Y82334D01*
Y86499D01*
X173666Y81501D02*
X175332D01*
X174499D01*
Y86499D01*
X173666Y85666D01*
X255835Y221499D02*
X259167D01*
X257501D01*
Y216501D01*
X264165Y221499D02*
X262499Y220666D01*
X260833Y219000D01*
Y217334D01*
X261666Y216501D01*
X263332D01*
X264165Y217334D01*
Y218167D01*
X263332Y219000D01*
X260833D01*
X214835Y222499D02*
X218167D01*
X216501D01*
Y217501D01*
X223165Y222499D02*
X219833D01*
Y220000D01*
X221499Y220833D01*
X222332D01*
X223165Y220000D01*
Y218334D01*
X222332Y217501D01*
X220666D01*
X219833Y218334D01*
X169835Y222499D02*
X173167D01*
X171501D01*
Y217501D01*
X177332D02*
Y222499D01*
X174833Y220000D01*
X178165D01*
X325835Y221499D02*
X329167D01*
X327501D01*
Y216501D01*
X330833Y220666D02*
X331666Y221499D01*
X333332D01*
X334165Y220666D01*
Y219833D01*
X333332Y219000D01*
X332499D01*
X333332D01*
X334165Y218167D01*
Y217334D01*
X333332Y216501D01*
X331666D01*
X330833Y217334D01*
X365835Y221499D02*
X369167D01*
X367501D01*
Y216501D01*
X374165D02*
X370833D01*
X374165Y219833D01*
Y220666D01*
X373332Y221499D01*
X371666D01*
X370833Y220666D01*
X407668Y221499D02*
X411000D01*
X409334D01*
Y216501D01*
X412666D02*
X414332D01*
X413499D01*
Y221499D01*
X412666Y220666D01*
X534169Y88501D02*
Y93499D01*
X536668D01*
X537501Y92666D01*
Y91000D01*
X536668Y90167D01*
X534169D01*
X535835D02*
X537501Y88501D01*
X539167Y92666D02*
X540000Y93499D01*
X541666D01*
X542499Y92666D01*
Y91833D01*
X541666Y91000D01*
X540833D01*
X541666D01*
X542499Y90167D01*
Y89334D01*
X541666Y88501D01*
X540000D01*
X539167Y89334D01*
X544165Y88501D02*
X545831D01*
X544998D01*
Y93499D01*
X544165Y92666D01*
X567336Y14501D02*
Y19499D01*
X569835D01*
X570668Y18666D01*
Y17000D01*
X569835Y16167D01*
X567336D01*
X569002D02*
X570668Y14501D01*
X572334Y18666D02*
X573167Y19499D01*
X574833D01*
X575666Y18666D01*
Y17833D01*
X574833Y17000D01*
X574000D01*
X574833D01*
X575666Y16167D01*
Y15334D01*
X574833Y14501D01*
X573167D01*
X572334Y15334D01*
X577332Y18666D02*
X578165Y19499D01*
X579831D01*
X580664Y18666D01*
Y15334D01*
X579831Y14501D01*
X578165D01*
X577332Y15334D01*
Y18666D01*
X491499Y39335D02*
X486501D01*
Y41835D01*
X487334Y42668D01*
X489000D01*
X489833Y41835D01*
Y39335D01*
Y41002D02*
X491499Y42668D01*
Y47666D02*
Y44334D01*
X488167Y47666D01*
X487334D01*
X486501Y46833D01*
Y45167D01*
X487334Y44334D01*
X490666Y49332D02*
X491499Y50165D01*
Y51831D01*
X490666Y52664D01*
X487334D01*
X486501Y51831D01*
Y50165D01*
X487334Y49332D01*
X488167D01*
X489000Y50165D01*
Y52664D01*
X510336Y88501D02*
Y93499D01*
X512835D01*
X513668Y92666D01*
Y91000D01*
X512835Y90167D01*
X510336D01*
X512002D02*
X513668Y88501D01*
X518666D02*
X515334D01*
X518666Y91833D01*
Y92666D01*
X517833Y93499D01*
X516167D01*
X515334Y92666D01*
X520332D02*
X521165Y93499D01*
X522831D01*
X523665Y92666D01*
Y91833D01*
X522831Y91000D01*
X523665Y90167D01*
Y89334D01*
X522831Y88501D01*
X521165D01*
X520332Y89334D01*
Y90167D01*
X521165Y91000D01*
X520332Y91833D01*
Y92666D01*
X521165Y91000D02*
X522831D01*
X492499Y64335D02*
X487501D01*
Y66835D01*
X488334Y67668D01*
X490000D01*
X490833Y66835D01*
Y64335D01*
Y66002D02*
X492499Y67668D01*
Y72666D02*
Y69334D01*
X489167Y72666D01*
X488334D01*
X487501Y71833D01*
Y70167D01*
X488334Y69334D01*
X487501Y74332D02*
Y77664D01*
X488334D01*
X491666Y74332D01*
X492499D01*
X592499Y116335D02*
X587501D01*
Y118835D01*
X588334Y119668D01*
X590000D01*
X590833Y118835D01*
Y116335D01*
Y118002D02*
X592499Y119668D01*
Y124666D02*
Y121334D01*
X589167Y124666D01*
X588334D01*
X587501Y123833D01*
Y122167D01*
X588334Y121334D01*
X587501Y129664D02*
X588334Y127998D01*
X590000Y126332D01*
X591666D01*
X592499Y127165D01*
Y128831D01*
X591666Y129664D01*
X590833D01*
X590000Y128831D01*
Y126332D01*
X293299Y172335D02*
X288301D01*
Y174835D01*
X289134Y175668D01*
X290800D01*
X291633Y174835D01*
Y172335D01*
Y174002D02*
X293299Y175668D01*
Y180666D02*
Y177334D01*
X289967Y180666D01*
X289134D01*
X288301Y179833D01*
Y178167D01*
X289134Y177334D01*
X288301Y185664D02*
Y182332D01*
X290800D01*
X289967Y183998D01*
Y184831D01*
X290800Y185664D01*
X292466D01*
X293299Y184831D01*
Y183165D01*
X292466Y182332D01*
X268335Y127501D02*
Y132499D01*
X270835D01*
X271668Y131666D01*
Y130000D01*
X270835Y129167D01*
X268335D01*
X270002D02*
X271668Y127501D01*
X276666D02*
X273334D01*
X276666Y130833D01*
Y131666D01*
X275833Y132499D01*
X274167D01*
X273334Y131666D01*
X280831Y127501D02*
Y132499D01*
X278332Y130000D01*
X281665D01*
X270499Y68335D02*
X265501D01*
Y70835D01*
X266334Y71668D01*
X268000D01*
X268833Y70835D01*
Y68335D01*
Y70002D02*
X270499Y71668D01*
Y76666D02*
Y73334D01*
X267167Y76666D01*
X266334D01*
X265501Y75833D01*
Y74167D01*
X266334Y73334D01*
Y78332D02*
X265501Y79165D01*
Y80831D01*
X266334Y81664D01*
X267167D01*
X268000Y80831D01*
Y79998D01*
Y80831D01*
X268833Y81664D01*
X269666D01*
X270499Y80831D01*
Y79165D01*
X269666Y78332D01*
X368135Y14351D02*
Y19349D01*
X370635D01*
X371468Y18516D01*
Y16850D01*
X370635Y16017D01*
X368135D01*
X369802D02*
X371468Y14351D01*
X376466D02*
X373134D01*
X376466Y17683D01*
Y18516D01*
X375633Y19349D01*
X373967D01*
X373134Y18516D01*
X381465Y14351D02*
X378132D01*
X381465Y17683D01*
Y18516D01*
X380631Y19349D01*
X378965D01*
X378132Y18516D01*
X384169Y14501D02*
Y19499D01*
X386668D01*
X387501Y18666D01*
Y17000D01*
X386668Y16167D01*
X384169D01*
X385835D02*
X387501Y14501D01*
X392499D02*
X389167D01*
X392499Y17833D01*
Y18666D01*
X391666Y19499D01*
X390000D01*
X389167Y18666D01*
X394165Y14501D02*
X395831D01*
X394998D01*
Y19499D01*
X394165Y18666D01*
X450752Y92501D02*
Y97499D01*
X453251D01*
X454084Y96666D01*
Y95000D01*
X453251Y94167D01*
X450752D01*
X452418D02*
X454084Y92501D01*
X455750D02*
X457416D01*
X456584D01*
Y97499D01*
X455750Y96666D01*
X459916Y93334D02*
X460749Y92501D01*
X462415D01*
X463248Y93334D01*
Y96666D01*
X462415Y97499D01*
X460749D01*
X459916Y96666D01*
Y95833D01*
X460749Y95000D01*
X463248D01*
X120499Y171752D02*
X115501D01*
Y174251D01*
X116334Y175084D01*
X118000D01*
X118833Y174251D01*
Y171752D01*
Y173418D02*
X120499Y175084D01*
Y176750D02*
Y178417D01*
Y177583D01*
X115501D01*
X116334Y176750D01*
Y180916D02*
X115501Y181749D01*
Y183415D01*
X116334Y184248D01*
X117167D01*
X118000Y183415D01*
X118833Y184248D01*
X119666D01*
X120499Y183415D01*
Y181749D01*
X119666Y180916D01*
X118833D01*
X118000Y181749D01*
X117167Y180916D01*
X116334D01*
X118000Y181749D02*
Y183415D01*
X430752Y92501D02*
Y97499D01*
X433251D01*
X434084Y96666D01*
Y95000D01*
X433251Y94167D01*
X430752D01*
X432418D02*
X434084Y92501D01*
X435750D02*
X437416D01*
X436584D01*
Y97499D01*
X435750Y96666D01*
X439916Y97499D02*
X443248D01*
Y96666D01*
X439916Y93334D01*
Y92501D01*
X383752Y83501D02*
Y88499D01*
X386251D01*
X387084Y87666D01*
Y86000D01*
X386251Y85167D01*
X383752D01*
X385418D02*
X387084Y83501D01*
X388750D02*
X390416D01*
X389584D01*
Y88499D01*
X388750Y87666D01*
X396248Y88499D02*
X394582Y87666D01*
X392916Y86000D01*
Y84334D01*
X393749Y83501D01*
X395415D01*
X396248Y84334D01*
Y85167D01*
X395415Y86000D01*
X392916D01*
X92752Y127501D02*
Y132499D01*
X95251D01*
X96084Y131666D01*
Y130000D01*
X95251Y129167D01*
X92752D01*
X94418D02*
X96084Y127501D01*
X97750D02*
X99417D01*
X98583D01*
Y132499D01*
X97750Y131666D01*
X105248Y132499D02*
X101916D01*
Y130000D01*
X103582Y130833D01*
X104415D01*
X105248Y130000D01*
Y128334D01*
X104415Y127501D01*
X102749D01*
X101916Y128334D01*
X148499Y68752D02*
X143501D01*
Y71251D01*
X144334Y72084D01*
X146000D01*
X146833Y71251D01*
Y68752D01*
Y70418D02*
X148499Y72084D01*
Y73750D02*
Y75416D01*
Y74583D01*
X143501D01*
X144334Y73750D01*
X148499Y80415D02*
X143501D01*
X146000Y77916D01*
Y81248D01*
X91752Y111501D02*
Y116499D01*
X94251D01*
X95084Y115666D01*
Y114000D01*
X94251Y113167D01*
X91752D01*
X93418D02*
X95084Y111501D01*
X96750D02*
X98417D01*
X97584D01*
Y116499D01*
X96750Y115666D01*
X100916D02*
X101749Y116499D01*
X103415D01*
X104248Y115666D01*
Y114833D01*
X103415Y114000D01*
X102582D01*
X103415D01*
X104248Y113167D01*
Y112334D01*
X103415Y111501D01*
X101749D01*
X100916Y112334D01*
X345752Y441501D02*
Y446499D01*
X348251D01*
X349084Y445666D01*
Y444000D01*
X348251Y443167D01*
X345752D01*
X347418D02*
X349084Y441501D01*
X350750D02*
X352416D01*
X351584D01*
Y446499D01*
X350750Y445666D01*
X358248Y441501D02*
X354916D01*
X358248Y444833D01*
Y445666D01*
X357415Y446499D01*
X355749D01*
X354916Y445666D01*
X422501Y422415D02*
X427499D01*
Y419916D01*
X426666Y419083D01*
X425000D01*
X424167Y419916D01*
Y422415D01*
Y420749D02*
X422501Y419083D01*
Y417416D02*
Y415750D01*
Y416583D01*
X427499D01*
X426666Y417416D01*
X422501Y413251D02*
Y411585D01*
Y412418D01*
X427499D01*
X426666Y413251D01*
X262752Y253001D02*
Y257999D01*
X265251D01*
X266084Y257166D01*
Y255500D01*
X265251Y254667D01*
X262752D01*
X264418D02*
X266084Y253001D01*
X267750D02*
X269417D01*
X268584D01*
Y257999D01*
X267750Y257166D01*
X271916D02*
X272749Y257999D01*
X274415D01*
X275248Y257166D01*
Y253834D01*
X274415Y253001D01*
X272749D01*
X271916Y253834D01*
Y257166D01*
X224835Y253001D02*
Y257999D01*
X227334D01*
X228167Y257166D01*
Y255500D01*
X227334Y254667D01*
X224835D01*
X226501D02*
X228167Y253001D01*
X229833Y253834D02*
X230666Y253001D01*
X232332D01*
X233165Y253834D01*
Y257166D01*
X232332Y257999D01*
X230666D01*
X229833Y257166D01*
Y256333D01*
X230666Y255500D01*
X233165D01*
X182835Y253001D02*
Y257999D01*
X185334D01*
X186167Y257166D01*
Y255500D01*
X185334Y254667D01*
X182835D01*
X184501D02*
X186167Y253001D01*
X187833Y257166D02*
X188666Y257999D01*
X190332D01*
X191165Y257166D01*
Y256333D01*
X190332Y255500D01*
X191165Y254667D01*
Y253834D01*
X190332Y253001D01*
X188666D01*
X187833Y253834D01*
Y254667D01*
X188666Y255500D01*
X187833Y256333D01*
Y257166D01*
X188666Y255500D02*
X190332D01*
X316835Y254001D02*
Y258999D01*
X319334D01*
X320167Y258166D01*
Y256500D01*
X319334Y255667D01*
X316835D01*
X318501D02*
X320167Y254001D01*
X321833Y258999D02*
X325165D01*
Y258166D01*
X321833Y254834D01*
Y254001D01*
X357579Y252745D02*
Y257744D01*
X360078D01*
X360911Y256911D01*
Y255245D01*
X360078Y254411D01*
X357579D01*
X359245D02*
X360911Y252745D01*
X365910Y257744D02*
X364244Y256911D01*
X362577Y255245D01*
Y253578D01*
X363410Y252745D01*
X365076D01*
X365910Y253578D01*
Y254411D01*
X365076Y255245D01*
X362577D01*
X397835Y253501D02*
Y258499D01*
X400334D01*
X401167Y257666D01*
Y256000D01*
X400334Y255167D01*
X397835D01*
X399501D02*
X401167Y253501D01*
X406165Y258499D02*
X402833D01*
Y256000D01*
X404499Y256833D01*
X405332D01*
X406165Y256000D01*
Y254334D01*
X405332Y253501D01*
X403666D01*
X402833Y254334D01*
X115835Y439501D02*
Y444499D01*
X118334D01*
X119167Y443666D01*
Y442000D01*
X118334Y441167D01*
X115835D01*
X117501D02*
X119167Y439501D01*
X123332D02*
Y444499D01*
X120833Y442000D01*
X124165D01*
X211835Y440501D02*
Y445499D01*
X214334D01*
X215167Y444666D01*
Y443000D01*
X214334Y442167D01*
X211835D01*
X213501D02*
X215167Y440501D01*
X216833Y444666D02*
X217666Y445499D01*
X219332D01*
X220165Y444666D01*
Y443833D01*
X219332Y443000D01*
X218499D01*
X219332D01*
X220165Y442167D01*
Y441334D01*
X219332Y440501D01*
X217666D01*
X216833Y441334D01*
X146835Y439501D02*
Y444499D01*
X149334D01*
X150167Y443666D01*
Y442000D01*
X149334Y441167D01*
X146835D01*
X148501D02*
X150167Y439501D01*
X155165D02*
X151833D01*
X155165Y442833D01*
Y443666D01*
X154332Y444499D01*
X152666D01*
X151833Y443666D01*
X300501Y423332D02*
X305499D01*
Y420833D01*
X304666Y420000D01*
X303000D01*
X302167Y420833D01*
Y423332D01*
Y421666D02*
X300501Y420000D01*
Y418334D02*
Y416668D01*
Y417501D01*
X305499D01*
X304666Y418334D01*
X482752Y21501D02*
Y26499D01*
X485251D01*
X486084Y25666D01*
Y24000D01*
X485251Y23167D01*
X482752D01*
X487750Y21501D02*
X489417D01*
X488583D01*
Y26499D01*
X487750Y25666D01*
X491916D02*
X492749Y26499D01*
X494415D01*
X495248Y25666D01*
Y22334D01*
X494415Y21501D01*
X492749D01*
X491916Y22334D01*
Y25666D01*
X317835Y175701D02*
Y180699D01*
X320334D01*
X321167Y179866D01*
Y178200D01*
X320334Y177367D01*
X317835D01*
X322833Y176534D02*
X323666Y175701D01*
X325332D01*
X326165Y176534D01*
Y179866D01*
X325332Y180699D01*
X323666D01*
X322833Y179866D01*
Y179033D01*
X323666Y178200D01*
X326165D01*
X142835Y175701D02*
Y180699D01*
X145334D01*
X146167Y179866D01*
Y178200D01*
X145334Y177367D01*
X142835D01*
X147833Y179866D02*
X148666Y180699D01*
X150332D01*
X151165Y179866D01*
Y179033D01*
X150332Y178200D01*
X151165Y177367D01*
Y176534D01*
X150332Y175701D01*
X148666D01*
X147833Y176534D01*
Y177367D01*
X148666Y178200D01*
X147833Y179033D01*
Y179866D01*
X148666Y178200D02*
X150332D01*
X160835Y415501D02*
Y420499D01*
X163334D01*
X164167Y419666D01*
Y418000D01*
X163334Y417167D01*
X160835D01*
X165833Y420499D02*
X169165D01*
Y419666D01*
X165833Y416334D01*
Y415501D01*
X59835Y417501D02*
Y422499D01*
X62334D01*
X63167Y421666D01*
Y420000D01*
X62334Y419167D01*
X59835D01*
X68165Y422499D02*
X66499Y421666D01*
X64833Y420000D01*
Y418334D01*
X65666Y417501D01*
X67332D01*
X68165Y418334D01*
Y419167D01*
X67332Y420000D01*
X64833D01*
X109835Y415501D02*
Y420499D01*
X112334D01*
X113167Y419666D01*
Y418000D01*
X112334Y417167D01*
X109835D01*
X118165Y420499D02*
X114833D01*
Y418000D01*
X116499Y418833D01*
X117332D01*
X118165Y418000D01*
Y416334D01*
X117332Y415501D01*
X115666D01*
X114833Y416334D01*
X85835Y416501D02*
Y421499D01*
X88334D01*
X89167Y420666D01*
Y419000D01*
X88334Y418167D01*
X85835D01*
X93332Y416501D02*
Y421499D01*
X90833Y419000D01*
X94165D01*
X136835Y415501D02*
Y420499D01*
X139334D01*
X140167Y419666D01*
Y418000D01*
X139334Y417167D01*
X136835D01*
X141833Y419666D02*
X142666Y420499D01*
X144332D01*
X145165Y419666D01*
Y418833D01*
X144332Y418000D01*
X143499D01*
X144332D01*
X145165Y417167D01*
Y416334D01*
X144332Y415501D01*
X142666D01*
X141833Y416334D01*
X338835Y281499D02*
Y276501D01*
X342167D01*
X347165D02*
X343833D01*
X347165Y279833D01*
Y280666D01*
X346332Y281499D01*
X344666D01*
X343833Y280666D01*
X229668Y279499D02*
Y274501D01*
X233000D01*
X234666D02*
X236332D01*
X235499D01*
Y279499D01*
X234666Y278666D01*
X24000Y441998D02*
X20668D01*
X22334D01*
Y433668D01*
X20668Y432002D01*
X19002D01*
X17335Y433668D01*
X27332Y432002D02*
X30665D01*
X28998D01*
Y441998D01*
X27332Y440332D01*
X25252Y180750D02*
Y175751D01*
X27751D01*
X28584Y176585D01*
Y179917D01*
X27751Y180750D01*
X25252D01*
X30250Y175751D02*
X31916D01*
X31084D01*
Y180750D01*
X30250Y179917D01*
X34416D02*
X35249Y180750D01*
X36915D01*
X37748Y179917D01*
Y176585D01*
X36915Y175751D01*
X35249D01*
X34416Y176585D01*
Y179917D01*
X66335Y180750D02*
Y175751D01*
X68834D01*
X69667Y176585D01*
Y179917D01*
X68834Y180750D01*
X66335D01*
X71333Y176585D02*
X72166Y175751D01*
X73832D01*
X74665Y176585D01*
Y179917D01*
X73832Y180750D01*
X72166D01*
X71333Y179917D01*
Y179084D01*
X72166Y178251D01*
X74665D01*
X531635Y159499D02*
Y154501D01*
X534134D01*
X534967Y155334D01*
Y158666D01*
X534134Y159499D01*
X531635D01*
X536633Y158666D02*
X537466Y159499D01*
X539132D01*
X539965Y158666D01*
Y157833D01*
X539132Y157000D01*
X539965Y156167D01*
Y155334D01*
X539132Y154501D01*
X537466D01*
X536633Y155334D01*
Y156167D01*
X537466Y157000D01*
X536633Y157833D01*
Y158666D01*
X537466Y157000D02*
X539132D01*
X7335Y103750D02*
Y98751D01*
X9834D01*
X10667Y99585D01*
Y102917D01*
X9834Y103750D01*
X7335D01*
X12333D02*
X15665D01*
Y102917D01*
X12333Y99585D01*
Y98751D01*
X52335Y89750D02*
Y84752D01*
X54834D01*
X55667Y85585D01*
Y88917D01*
X54834Y89750D01*
X52335D01*
X60665D02*
X58999Y88917D01*
X57333Y87251D01*
Y85585D01*
X58166Y84752D01*
X59832D01*
X60665Y85585D01*
Y86418D01*
X59832Y87251D01*
X57333D01*
X304501Y173835D02*
X309499D01*
Y176334D01*
X308666Y177167D01*
X305334D01*
X304501Y176334D01*
Y173835D01*
Y182165D02*
Y178833D01*
X307000D01*
X306167Y180499D01*
Y181332D01*
X307000Y182165D01*
X308666D01*
X309499Y181332D01*
Y179666D01*
X308666Y178833D01*
X271301Y173685D02*
X276299D01*
Y176184D01*
X275466Y177017D01*
X272134D01*
X271301Y176184D01*
Y173685D01*
X276299Y181182D02*
X271301D01*
X273800Y178683D01*
Y182015D01*
X129501Y173835D02*
X134499D01*
Y176334D01*
X133666Y177167D01*
X130334D01*
X129501Y176334D01*
Y173835D01*
X130334Y178833D02*
X129501Y179666D01*
Y181332D01*
X130334Y182165D01*
X131167D01*
X132000Y181332D01*
Y180499D01*
Y181332D01*
X132833Y182165D01*
X133666D01*
X134499Y181332D01*
Y179666D01*
X133666Y178833D01*
X101501Y173835D02*
X106499D01*
Y176334D01*
X105666Y177167D01*
X102334D01*
X101501Y176334D01*
Y173835D01*
X106499Y182165D02*
Y178833D01*
X103167Y182165D01*
X102334D01*
X101501Y181332D01*
Y179666D01*
X102334Y178833D01*
X538084Y18666D02*
X537251Y19499D01*
X535585D01*
X534752Y18666D01*
Y15334D01*
X535585Y14501D01*
X537251D01*
X538084Y15334D01*
X539750Y14501D02*
X541417D01*
X540583D01*
Y19499D01*
X539750Y18666D01*
X543916D02*
X544749Y19499D01*
X546415D01*
X547248Y18666D01*
Y17833D01*
X546415Y17000D01*
X545582D01*
X546415D01*
X547248Y16167D01*
Y15334D01*
X546415Y14501D01*
X544749D01*
X543916Y15334D01*
X587084Y92666D02*
X586251Y93499D01*
X584585D01*
X583752Y92666D01*
Y89334D01*
X584585Y88501D01*
X586251D01*
X587084Y89334D01*
X588750Y88501D02*
X590416D01*
X589584D01*
Y93499D01*
X588750Y92666D01*
X596248Y88501D02*
X592916D01*
X596248Y91833D01*
Y92666D01*
X595415Y93499D01*
X593749D01*
X592916Y92666D01*
X29417Y172917D02*
X28584Y173750D01*
X26918D01*
X26085Y172917D01*
Y169585D01*
X26918Y168752D01*
X28584D01*
X29417Y169585D01*
X31084Y168752D02*
X32750D01*
X31916D01*
Y173750D01*
X31084Y172917D01*
X35249Y168752D02*
X36915D01*
X36082D01*
Y173750D01*
X35249Y172917D01*
X235334Y62084D02*
X234501Y61251D01*
Y59585D01*
X235334Y58752D01*
X238666D01*
X239499Y59585D01*
Y61251D01*
X238666Y62084D01*
X239499Y63750D02*
Y65416D01*
Y64584D01*
X234501D01*
X235334Y63750D01*
Y67916D02*
X234501Y68749D01*
Y70415D01*
X235334Y71248D01*
X238666D01*
X239499Y70415D01*
Y68749D01*
X238666Y67916D01*
X235334D01*
X69667Y172917D02*
X68834Y173750D01*
X67168D01*
X66335Y172917D01*
Y169585D01*
X67168Y168752D01*
X68834D01*
X69667Y169585D01*
X71333D02*
X72166Y168752D01*
X73832D01*
X74665Y169585D01*
Y172917D01*
X73832Y173750D01*
X72166D01*
X71333Y172917D01*
Y172084D01*
X72166Y171251D01*
X74665D01*
X248334Y85167D02*
X247501Y84334D01*
Y82668D01*
X248334Y81835D01*
X251666D01*
X252499Y82668D01*
Y84334D01*
X251666Y85167D01*
X248334Y86833D02*
X247501Y87666D01*
Y89332D01*
X248334Y90165D01*
X249167D01*
X250000Y89332D01*
X250833Y90165D01*
X251666D01*
X252499Y89332D01*
Y87666D01*
X251666Y86833D01*
X250833D01*
X250000Y87666D01*
X249167Y86833D01*
X248334D01*
X250000Y87666D02*
Y89332D01*
X518334Y105167D02*
X517501Y104334D01*
Y102668D01*
X518334Y101835D01*
X521666D01*
X522499Y102668D01*
Y104334D01*
X521666Y105167D01*
X517501Y106833D02*
Y110165D01*
X518334D01*
X521666Y106833D01*
X522499D01*
X100167Y100666D02*
X99334Y101499D01*
X97668D01*
X96835Y100666D01*
Y97334D01*
X97668Y96501D01*
X99334D01*
X100167Y97334D01*
X105165Y101499D02*
X103499Y100666D01*
X101833Y99000D01*
Y97334D01*
X102666Y96501D01*
X104332D01*
X105165Y97334D01*
Y98167D01*
X104332Y99000D01*
X101833D01*
X361134Y68167D02*
X360301Y67334D01*
Y65668D01*
X361134Y64835D01*
X364466D01*
X365299Y65668D01*
Y67334D01*
X364466Y68167D01*
X360301Y73165D02*
Y69833D01*
X362800D01*
X361967Y71499D01*
Y72332D01*
X362800Y73165D01*
X364466D01*
X365299Y72332D01*
Y70666D01*
X364466Y69833D01*
X181254Y319247D02*
X180421Y320080D01*
X178755D01*
X177922Y319247D01*
Y315915D01*
X178755Y315082D01*
X180421D01*
X181254Y315915D01*
X185420Y315082D02*
Y320080D01*
X182920Y317581D01*
X186253D01*
X76167Y339666D02*
X75334Y340499D01*
X73668D01*
X72835Y339666D01*
Y336334D01*
X73668Y335501D01*
X75334D01*
X76167Y336334D01*
X77833Y339666D02*
X78666Y340499D01*
X80332D01*
X81165Y339666D01*
Y338833D01*
X80332Y338000D01*
X79499D01*
X80332D01*
X81165Y337167D01*
Y336334D01*
X80332Y335501D01*
X78666D01*
X77833Y336334D01*
X87167Y268666D02*
X86334Y269499D01*
X84668D01*
X83835Y268666D01*
Y265334D01*
X84668Y264501D01*
X86334D01*
X87167Y265334D01*
X92165Y264501D02*
X88833D01*
X92165Y267833D01*
Y268666D01*
X91332Y269499D01*
X89666D01*
X88833Y268666D01*
X113000Y268666D02*
X112167Y269499D01*
X110501D01*
X109668Y268666D01*
Y265334D01*
X110501Y264501D01*
X112167D01*
X113000Y265334D01*
X114666Y264501D02*
X116332D01*
X115499D01*
Y269499D01*
X114666Y268666D01*
X20000Y570000D02*
G03*
X0Y550000I0J-20000D01*
G01*
X700000D02*
G03*
X680000Y570000I-20000J0D01*
G01*
X680000Y0D02*
G03*
X700000Y20000I0J20000D01*
G01*
X0D02*
G03*
X20000Y0I20000J0D01*
G01*
X700000Y550000D02*
X700000Y20000D01*
X20000Y570000D02*
X680000D01*
X-0Y550000D02*
X0Y20000D01*
X20000Y0D02*
X680000D01*
D11*
X372000Y204000D02*
G03*
X372000Y204000I-500J0D01*
G01*
X536190Y71544D02*
G03*
X536190Y71544I-1250J0D01*
G01*
X408407Y79500D02*
G03*
X408407Y79500I-707J0D01*
G01*
X288407D02*
G03*
X288407Y79500I-707J0D01*
G01*
X164407D02*
G03*
X164407Y79500I-707J0D01*
G01*
X54500Y95751D02*
G03*
X54500Y95751I-500J0D01*
G01*
X16500D02*
G03*
X16500Y95751I-500J0D01*
G01*
X413000Y204000D02*
G03*
X413000Y204000I-500J0D01*
G01*
X331500Y204000D02*
G03*
X331500Y204000I-500J0D01*
G01*
X260500Y235000D02*
G03*
X260500Y235000I-500J0D01*
G01*
X219000D02*
G03*
X219000Y235000I-500J0D01*
G01*
X172500Y235000D02*
G03*
X172500Y235000I-500J0D01*
G01*
D12*
X425000Y242248D02*
X442052D01*
X425000Y242401D02*
X441900D01*
X425000Y242553D02*
X441747D01*
X425000Y242706D02*
X441595D01*
X425000Y242858D02*
X441442D01*
X425000Y243010D02*
X441290D01*
X425000Y243163D02*
X441138D01*
X425000Y243315D02*
X440985D01*
X425000Y243468D02*
X440833D01*
X425000Y243620D02*
X440680D01*
X425000Y243772D02*
X440680D01*
X425000Y243925D02*
X440833D01*
X425000Y244077D02*
X440985D01*
X425000Y244230D02*
X441138D01*
X425000Y244382D02*
X441290D01*
X425000Y244534D02*
X441442D01*
X425000Y244687D02*
X441595D01*
X425000Y244839D02*
X441747D01*
X425000Y244992D02*
X441900D01*
X425000Y256269D02*
X441900D01*
X425000Y256422D02*
X441747D01*
X425000Y256574D02*
X441595D01*
X425000Y256726D02*
X441442D01*
X425000Y256879D02*
X441290D01*
X425000Y257031D02*
X441138D01*
X425000Y257184D02*
X441138D01*
X425000Y257336D02*
X441290D01*
X425000Y257488D02*
X441442D01*
X425000Y257641D02*
X441595D01*
X425000Y257793D02*
X441747D01*
X425000Y257946D02*
X441900D01*
X425000Y262670D02*
X441900D01*
X425000Y241182D02*
X443119D01*
X425000Y241334D02*
X442966D01*
X425000Y241486D02*
X442814D01*
X425000Y241639D02*
X442662D01*
X425000Y241791D02*
X442509D01*
X425000Y241944D02*
X442357D01*
X425000Y242096D02*
X442204D01*
X425000Y245144D02*
X442052D01*
X425000Y245296D02*
X442204D01*
X425000Y245449D02*
X442357D01*
X425000Y245601D02*
X442509D01*
X425000Y245754D02*
X442662D01*
X425000Y245906D02*
X442814D01*
X425000Y246058D02*
X442966D01*
X425000Y246211D02*
X443119D01*
X425000Y255050D02*
X443119D01*
X425000Y255202D02*
X442966D01*
X425000Y255355D02*
X442814D01*
X425000Y255507D02*
X442662D01*
X425000Y255660D02*
X442509D01*
X425000Y255812D02*
X442357D01*
X425000Y255964D02*
X442204D01*
X425000Y256117D02*
X442052D01*
X425000Y258098D02*
X442052D01*
X425000Y258250D02*
X442204D01*
X425000Y258403D02*
X442357D01*
X425000Y258555D02*
X442509D01*
X425000Y258708D02*
X442662D01*
X425000Y258860D02*
X442814D01*
X425000Y259012D02*
X442966D01*
X425000Y259165D02*
X443119D01*
X425000Y262518D02*
X442662D01*
X425000Y267699D02*
X433060D01*
X425000Y267852D02*
X433060D01*
X425000Y268004D02*
X432908D01*
X425000Y268156D02*
X432756D01*
X425000Y268309D02*
X432603D01*
X425000Y268461D02*
X432603D01*
X425000Y268614D02*
X432451D01*
X425000Y268766D02*
X432298D01*
X425000Y268918D02*
X432298D01*
X425000Y269071D02*
X432146D01*
X425000Y269223D02*
X432146D01*
X425000Y269376D02*
X431994D01*
X425000Y269528D02*
X431994D01*
X425000Y269680D02*
X431994D01*
X425000Y269833D02*
X431841D01*
X425000Y269985D02*
X431841D01*
X425000Y270138D02*
X431841D01*
X425000Y270290D02*
X431689D01*
X425000Y270442D02*
X431689D01*
X425000Y270595D02*
X431689D01*
X425000Y270747D02*
X431689D01*
X425000Y270900D02*
X431689D01*
X425000Y271052D02*
X431536D01*
X425000Y271204D02*
X431536D01*
X425000Y271357D02*
X431536D01*
X425000Y271509D02*
X431536D01*
X425000Y271662D02*
X431536D01*
X425000Y271814D02*
X431536D01*
X425000Y271966D02*
X431384D01*
X425000Y272119D02*
X431384D01*
X425000Y272271D02*
X431384D01*
X425000Y272424D02*
X431384D01*
X425000Y262822D02*
X441290D01*
X425000Y262975D02*
X440680D01*
X425000Y263127D02*
X440223D01*
X425000Y263280D02*
X439766D01*
X425000Y263432D02*
X439309D01*
X425000Y263584D02*
X438852D01*
X425000Y263737D02*
X438394D01*
X425000Y263889D02*
X438090D01*
X425000Y264042D02*
X437632D01*
X425000Y264194D02*
X437328D01*
X425000Y264346D02*
X437023D01*
X425000Y264499D02*
X436718D01*
X425000Y264651D02*
X436566D01*
X425000Y264804D02*
X436261D01*
X425000Y264956D02*
X435956D01*
X425000Y265108D02*
X435804D01*
X425000Y265261D02*
X435651D01*
X425000Y265413D02*
X435346D01*
X425000Y265566D02*
X435194D01*
X425000Y265718D02*
X435042D01*
X425000Y265870D02*
X434889D01*
X425000Y266023D02*
X434584D01*
X425000Y266175D02*
X434432D01*
X425000Y266328D02*
X434280D01*
X425000Y266480D02*
X434127D01*
X425000Y266632D02*
X433975D01*
X425000Y266785D02*
X433822D01*
X425000Y266937D02*
X433670D01*
X425000Y267090D02*
X433670D01*
X425000Y267242D02*
X433518D01*
X425000Y267394D02*
X433365D01*
X425000Y267547D02*
X433213D01*
X425000Y240267D02*
X444033D01*
X425000Y240420D02*
X443881D01*
X425000Y240572D02*
X443728D01*
X425000Y240724D02*
X443576D01*
X425000Y240877D02*
X443424D01*
X425000Y241029D02*
X443271D01*
X425000Y246363D02*
X443271D01*
X425000Y246516D02*
X443424D01*
X425000Y246668D02*
X443576D01*
X425000Y246820D02*
X443728D01*
X425000Y246973D02*
X443881D01*
X425000Y247125D02*
X444033D01*
X425000Y247278D02*
X444186D01*
X425000Y247430D02*
X444338D01*
X425000Y247582D02*
X444490D01*
X425000Y247735D02*
X444643D01*
X425000Y247887D02*
X444795D01*
X425000Y248040D02*
X444948D01*
X425000Y248192D02*
X445100D01*
X425000Y248344D02*
X445252D01*
X425000Y248497D02*
X445405D01*
X425000Y252916D02*
X445252D01*
X425000Y253069D02*
X445100D01*
X425000Y253221D02*
X444948D01*
X425000Y253374D02*
X444795D01*
X425000Y253526D02*
X444643D01*
X425000Y253678D02*
X444490D01*
X425000Y253831D02*
X444338D01*
X425000Y253983D02*
X444186D01*
X425000Y254136D02*
X444033D01*
X425000Y254288D02*
X443881D01*
X425000Y254440D02*
X443728D01*
X425000Y248649D02*
X445557D01*
X425000Y248802D02*
X445710D01*
X425000Y248954D02*
X445862D01*
X425000Y249106D02*
X446014D01*
X425000Y249259D02*
X446167D01*
X425000Y249411D02*
X446319D01*
X425000Y249564D02*
X446472D01*
X425000Y249716D02*
X446624D01*
X425000Y249868D02*
X446776D01*
X425000Y250021D02*
X446929D01*
X425000Y250173D02*
X447081D01*
X425000Y250326D02*
X447234D01*
X425000Y250478D02*
X447386D01*
X425000Y250630D02*
X447538D01*
X425000Y250783D02*
X447386D01*
X425000Y250935D02*
X447234D01*
X425000Y251088D02*
X447081D01*
X425000Y251240D02*
X446929D01*
X425000Y251392D02*
X446776D01*
X425000Y251545D02*
X446624D01*
X425000Y251697D02*
X446472D01*
X425000Y251850D02*
X446319D01*
X425000Y252002D02*
X446167D01*
X425000Y252154D02*
X446014D01*
X425000Y252307D02*
X445862D01*
X425000Y252459D02*
X445710D01*
X425000Y252612D02*
X445557D01*
X425000Y252764D02*
X445405D01*
X425000Y254593D02*
X443576D01*
X425000Y254745D02*
X443424D01*
X425000Y254898D02*
X443271D01*
X425000Y259317D02*
X443271D01*
X425000Y259470D02*
X443424D01*
X425000Y259622D02*
X443576D01*
X425000Y259774D02*
X443728D01*
X425000Y259927D02*
X443881D01*
X425000Y260079D02*
X444033D01*
X425000Y260232D02*
X444186D01*
X425000Y260384D02*
X444338D01*
X425000Y260536D02*
X444490D01*
X425000Y261908D02*
X464302D01*
X425000Y262060D02*
X464302D01*
X425000Y262213D02*
X444490D01*
X425000Y262365D02*
X443424D01*
X425000Y287054D02*
X431079D01*
X425000Y273490D02*
X431232D01*
X425000Y273795D02*
X431232D01*
X425000Y273948D02*
X431232D01*
X425000Y278824D02*
X431232D01*
X425000Y274100D02*
X431232D01*
X425000Y276843D02*
X431232D01*
X425000Y274252D02*
X431232D01*
X425000Y277605D02*
X431232D01*
X425000Y277910D02*
X431232D01*
X425000Y278672D02*
X431232D01*
X425000Y276996D02*
X431232D01*
X425000Y276538D02*
X431232D01*
X425000Y275624D02*
X431232D01*
X425000Y278520D02*
X431232D01*
X425000Y275929D02*
X431232D01*
X425000Y274557D02*
X431232D01*
X425000Y274710D02*
X431232D01*
X425000Y275776D02*
X431232D01*
X425000Y276234D02*
X431232D01*
X425000Y274862D02*
X431232D01*
X425000Y278367D02*
X431232D01*
X425000Y274405D02*
X431232D01*
X425000Y277758D02*
X431232D01*
X425000Y273338D02*
X431232D01*
X425000Y273643D02*
X431232D01*
X425000Y276386D02*
X431232D01*
X425000Y278977D02*
X431232D01*
X425000Y281568D02*
X431232D01*
X425000Y282330D02*
X431232D01*
X425000Y284158D02*
X431232D01*
X425000Y284311D02*
X431232D01*
X425000Y291321D02*
X430927D01*
X425000Y290712D02*
X430927D01*
X425000Y291626D02*
X430927D01*
X425000Y291016D02*
X430927D01*
X425000Y290864D02*
X430927D01*
X425000Y291169D02*
X430927D01*
X425000Y291778D02*
X430927D01*
X425000Y290559D02*
X430927D01*
X425000Y291931D02*
X430927D01*
X425000Y290407D02*
X430927D01*
X425000Y291474D02*
X430927D01*
X425000Y287206D02*
X431079D01*
X425000Y287359D02*
X431079D01*
X425000Y287511D02*
X431079D01*
X425000Y287664D02*
X431079D01*
X425000Y287816D02*
X431079D01*
X425000Y287968D02*
X431079D01*
X425000Y288121D02*
X431079D01*
X425000Y288426D02*
X431079D01*
X425000Y289492D02*
X431079D01*
X425000Y290254D02*
X431079D01*
X425000Y288730D02*
X431079D01*
X425000Y289035D02*
X431079D01*
X425000Y288578D02*
X431079D01*
X425000Y289188D02*
X431079D01*
X425000Y289645D02*
X431079D01*
X425000Y289797D02*
X431079D01*
X425000Y288273D02*
X431079D01*
X425000Y289340D02*
X431079D01*
X425000Y289950D02*
X431079D01*
X425000Y288883D02*
X431079D01*
X425000Y290102D02*
X431079D01*
X425000Y276691D02*
X431232D01*
X425000Y277453D02*
X431232D01*
X425000Y277300D02*
X431232D01*
X425000Y275319D02*
X431232D01*
X425000Y279129D02*
X431232D01*
X425000Y278062D02*
X431232D01*
X425000Y275167D02*
X431232D01*
X425000Y277148D02*
X431232D01*
X425000Y275472D02*
X431232D01*
X425000Y278215D02*
X431232D01*
X425000Y275014D02*
X431232D01*
X425000Y279282D02*
X431232D01*
X425000Y276081D02*
X431232D01*
X425000Y279586D02*
X431232D01*
X425000Y280196D02*
X431232D01*
X425000Y279891D02*
X431232D01*
X425000Y279434D02*
X431232D01*
X425000Y279739D02*
X431232D01*
X425000Y280044D02*
X431232D01*
X425000Y280348D02*
X431232D01*
X425000Y280501D02*
X431232D01*
X425000Y280653D02*
X431232D01*
X425000Y280806D02*
X431232D01*
X425000Y280958D02*
X431232D01*
X425000Y281110D02*
X431232D01*
X425000Y281263D02*
X431232D01*
X425000Y281415D02*
X431232D01*
X425000Y272881D02*
X431384D01*
X425000Y273186D02*
X431384D01*
X425000Y272728D02*
X431384D01*
X425000Y273033D02*
X431384D01*
X425000Y272576D02*
X431384D01*
X425000Y281720D02*
X431232D01*
X425000Y281872D02*
X431232D01*
X425000Y282025D02*
X431232D01*
X425000Y282177D02*
X431232D01*
X425000Y282482D02*
X431232D01*
X425000Y282634D02*
X431232D01*
X425000Y282787D02*
X431232D01*
X425000Y282939D02*
X431232D01*
X425000Y283701D02*
X431232D01*
X425000Y283854D02*
X431232D01*
X425000Y284006D02*
X431232D01*
X425000Y286749D02*
X431232D01*
X425000Y285073D02*
X431232D01*
X425000Y286140D02*
X431232D01*
X425000Y286597D02*
X431232D01*
X425000Y284920D02*
X431232D01*
X425000Y284616D02*
X431232D01*
X425000Y286444D02*
X431232D01*
X425000Y286902D02*
X431232D01*
X425000Y284463D02*
X431232D01*
X425000Y286292D02*
X431232D01*
X425000Y285835D02*
X431232D01*
X425000Y285987D02*
X431232D01*
X425000Y285682D02*
X431232D01*
X425000Y285530D02*
X431232D01*
X425000Y285378D02*
X431232D01*
X425000Y284768D02*
X431232D01*
X425000Y285225D02*
X431232D01*
X425000Y283092D02*
X431384D01*
X425000Y283244D02*
X431384D01*
X425000Y283396D02*
X431384D01*
X425000Y283549D02*
X431384D01*
X425000Y293760D02*
X430774D01*
X425000Y293912D02*
X430774D01*
X425000Y294064D02*
X430774D01*
X425000Y294217D02*
X430774D01*
X425000Y294369D02*
X430774D01*
X425000Y294522D02*
X430774D01*
X425000Y294674D02*
X430774D01*
X425000Y294826D02*
X430774D01*
X425000Y294979D02*
X430774D01*
X425000Y295131D02*
X430774D01*
X425000Y295284D02*
X430774D01*
X425000Y295436D02*
X430774D01*
X425000Y296046D02*
X430774D01*
X425000Y296198D02*
X430774D01*
X425000Y295741D02*
X430774D01*
X425000Y295588D02*
X430774D01*
X425000Y295893D02*
X430774D01*
X425000Y296350D02*
X430774D01*
X425000Y296503D02*
X430774D01*
X425000Y296655D02*
X430774D01*
X425000Y296808D02*
X430774D01*
X425000Y292083D02*
X430927D01*
X425000Y292236D02*
X430927D01*
X425000Y292388D02*
X430927D01*
X425000Y292540D02*
X430927D01*
X425000Y292693D02*
X430927D01*
X425000Y292845D02*
X430927D01*
X425000Y292998D02*
X430927D01*
X425000Y293150D02*
X430927D01*
X425000Y293302D02*
X430927D01*
X425000Y293455D02*
X430927D01*
X425000Y293607D02*
X430927D01*
X425000Y297265D02*
X430622D01*
X425000Y297417D02*
X430622D01*
X425000Y297570D02*
X430622D01*
X425000Y296960D02*
X430774D01*
X425000Y297112D02*
X430774D01*
X425000Y297722D02*
X437175D01*
X425000Y303818D02*
X440680D01*
X425000Y303970D02*
X440680D01*
X425000Y303666D02*
X440833D01*
X425000Y304123D02*
X440833D01*
X425000Y303513D02*
X440985D01*
X425000Y304275D02*
X440985D01*
X425000Y317382D02*
X440985D01*
X425000Y303361D02*
X441138D01*
X425000Y304428D02*
X441138D01*
X425000Y317534D02*
X441138D01*
X425000Y317229D02*
X441138D01*
X425000Y303208D02*
X441290D01*
X425000Y317077D02*
X441290D01*
X425000Y317686D02*
X441290D01*
X425000Y304580D02*
X441290D01*
X425000Y303056D02*
X441442D01*
X425000Y317839D02*
X441442D01*
X425000Y304732D02*
X441442D01*
X425000Y316924D02*
X441442D01*
X425000Y302904D02*
X441595D01*
X425000Y316772D02*
X441595D01*
X425000Y304885D02*
X441595D01*
X425000Y317991D02*
X441595D01*
X425000Y302751D02*
X441747D01*
X425000Y318144D02*
X441747D01*
X425000Y316620D02*
X441747D01*
X425000Y305037D02*
X441747D01*
X425000Y302599D02*
X441900D01*
X425000Y305190D02*
X441900D01*
X425000Y305342D02*
X442052D01*
X425000Y302446D02*
X442052D01*
X425000Y302294D02*
X442204D01*
X425000Y305494D02*
X442204D01*
X425000Y302142D02*
X442357D01*
X425000Y305647D02*
X442357D01*
X425000Y301989D02*
X442509D01*
X425000Y305799D02*
X442509D01*
X425000Y301837D02*
X442662D01*
X425000Y305952D02*
X442662D01*
X425000Y301684D02*
X442814D01*
X425000Y306104D02*
X442814D01*
X425000Y301532D02*
X442966D01*
X425000Y306256D02*
X442966D01*
X425000Y301380D02*
X443119D01*
X425000Y306409D02*
X443119D01*
X425000Y301227D02*
X443271D01*
X425000Y306561D02*
X443271D01*
X425000Y301075D02*
X443424D01*
X425000Y306714D02*
X443424D01*
X425000Y300922D02*
X443576D01*
X425000Y306866D02*
X443576D01*
X425000Y300770D02*
X443728D01*
X425000Y307018D02*
X443728D01*
X425000Y300618D02*
X443881D01*
X425000Y307171D02*
X443881D01*
X425000Y300465D02*
X444033D01*
X425000Y307323D02*
X444033D01*
X425000Y307476D02*
X444186D01*
X425000Y318296D02*
X441900D01*
X425000Y316467D02*
X441900D01*
X425000Y318448D02*
X442052D01*
X425000Y316315D02*
X442052D01*
X425000Y318601D02*
X442204D01*
X425000Y316162D02*
X442204D01*
X425000Y316010D02*
X442357D01*
X425000Y318753D02*
X442357D01*
X425000Y315858D02*
X442509D01*
X425000Y318906D02*
X442509D01*
X425000Y315705D02*
X442662D01*
X425000Y319058D02*
X442662D01*
X425000Y315553D02*
X442814D01*
X425000Y319210D02*
X442814D01*
X425000Y315400D02*
X442966D01*
X425000Y319363D02*
X442966D01*
X425000Y315248D02*
X443119D01*
X425000Y319515D02*
X443119D01*
X425000Y315096D02*
X443271D01*
X425000Y319668D02*
X443271D01*
X425000Y314943D02*
X443424D01*
X425000Y319820D02*
X443424D01*
X425000Y314791D02*
X443576D01*
X425000Y319972D02*
X443576D01*
X425000Y314638D02*
X443728D01*
X425000Y320125D02*
X443728D01*
X425000Y314486D02*
X443881D01*
X425000Y320277D02*
X443881D01*
X425000Y314334D02*
X444033D01*
X425000Y320430D02*
X444033D01*
X425000Y314181D02*
X444186D01*
X425000Y320582D02*
X444186D01*
X425000Y307628D02*
X444338D01*
X425000Y307780D02*
X444490D01*
X425000Y307933D02*
X444643D01*
X425000Y308085D02*
X444795D01*
X425000Y308238D02*
X444948D01*
X425000Y308390D02*
X445100D01*
X425000Y308542D02*
X445252D01*
X425000Y308695D02*
X445405D01*
X425000Y308847D02*
X445557D01*
X425000Y309000D02*
X445710D01*
X425000Y309152D02*
X445862D01*
X425000Y309304D02*
X446014D01*
X425000Y309457D02*
X446167D01*
X425000Y320734D02*
X444338D01*
X425000Y314029D02*
X444338D01*
X425000Y313876D02*
X444490D01*
X425000Y320887D02*
X444490D01*
X425000Y313724D02*
X444643D01*
X425000Y313572D02*
X444795D01*
X425000Y313419D02*
X444948D01*
X425000Y313267D02*
X445100D01*
X425000Y313114D02*
X445252D01*
X425000Y312962D02*
X445405D01*
X425000Y312810D02*
X445557D01*
X425000Y312657D02*
X445710D01*
X425000Y312505D02*
X445862D01*
X425000Y312352D02*
X446014D01*
X425000Y312200D02*
X446167D01*
X425000Y309609D02*
X446319D01*
X425000Y312048D02*
X446319D01*
X425000Y309762D02*
X446472D01*
X425000Y311895D02*
X446472D01*
X425000Y309914D02*
X446624D01*
X425000Y311743D02*
X446624D01*
X425000Y310066D02*
X446776D01*
X425000Y311590D02*
X446776D01*
X425000Y310219D02*
X446929D01*
X425000Y311438D02*
X446929D01*
X425000Y310371D02*
X447081D01*
X425000Y311286D02*
X447081D01*
X425000Y310524D02*
X447234D01*
X425000Y311133D02*
X447234D01*
X425000Y310676D02*
X447386D01*
X425000Y310981D02*
X447386D01*
X425000Y310828D02*
X447538D01*
X425000Y324392D02*
X477000D01*
X425000Y323478D02*
X477000D01*
X425000Y324240D02*
X477000D01*
X425000Y323935D02*
X477000D01*
X425000Y324087D02*
X477000D01*
X425000Y323173D02*
X477000D01*
X425000Y323325D02*
X477000D01*
X425000Y323630D02*
X477000D01*
X425000Y323782D02*
X477000D01*
X425000Y323020D02*
X477000D01*
X425000Y321039D02*
X477000D01*
X425000Y322411D02*
X477000D01*
X425000Y321954D02*
X477000D01*
X425000Y321496D02*
X477000D01*
X425000Y321801D02*
X477000D01*
X425000Y321649D02*
X477000D01*
X425000Y321344D02*
X477000D01*
X425000Y322106D02*
X477000D01*
X425000Y322868D02*
X477000D01*
X425000Y321192D02*
X477000D01*
X425000Y322716D02*
X477000D01*
X425000Y322258D02*
X477000D01*
X425000Y322563D02*
X477000D01*
X425000Y236152D02*
X477000D01*
X425000Y236000D02*
X477000D01*
X425000Y236305D02*
X477000D01*
X425000Y238591D02*
X477000D01*
X425000Y236610D02*
X477000D01*
X425000Y236457D02*
X477000D01*
X425000Y237524D02*
X477000D01*
X425000Y237372D02*
X477000D01*
X425000Y237219D02*
X477000D01*
X425000Y237067D02*
X477000D01*
X425000Y236914D02*
X477000D01*
X425000Y236762D02*
X477000D01*
X425000Y239200D02*
X477000D01*
X425000Y239048D02*
X477000D01*
X425000Y237676D02*
X477000D01*
X425000Y238286D02*
X477000D01*
X425000Y238134D02*
X477000D01*
X425000Y237981D02*
X477000D01*
X425000Y237829D02*
X477000D01*
X425000Y238743D02*
X477000D01*
X425000Y238438D02*
X477000D01*
X425000Y238896D02*
X477000D01*
X425000Y260689D02*
X477000D01*
X425000Y260841D02*
X477000D01*
X425000Y260994D02*
X477000D01*
X425000Y261146D02*
X477000D01*
X425000Y261298D02*
X477000D01*
X425000Y261451D02*
X477000D01*
X425000Y261603D02*
X477000D01*
X425000Y261756D02*
X477000D01*
X425000Y239353D02*
X477000D01*
X425000Y239962D02*
X477000D01*
X425000Y240115D02*
X477000D01*
X425000Y239658D02*
X477000D01*
X425000Y239505D02*
X477000D01*
X425000Y239810D02*
X477000D01*
X425000Y300313D02*
X477000D01*
X425000Y299551D02*
X477000D01*
X425000Y299398D02*
X477000D01*
X425000Y299703D02*
X477000D01*
X425000Y299856D02*
X477000D01*
X425000Y300008D02*
X477000D01*
X425000Y300160D02*
X477000D01*
X425000Y297874D02*
X477000D01*
X425000Y298027D02*
X477000D01*
X425000Y298179D02*
X477000D01*
X425000Y298332D02*
X477000D01*
X425000Y298484D02*
X477000D01*
X425000Y298789D02*
X477000D01*
X425000Y298941D02*
X477000D01*
X425000Y298636D02*
X477000D01*
X425000Y299094D02*
X477000D01*
X425000Y299246D02*
X477000D01*
X444643Y320887D02*
X477000D01*
X444795Y320734D02*
X457444D01*
X457749D02*
X477000D01*
X444948Y320582D02*
X457292D01*
X457902D02*
X477000D01*
X445100Y320430D02*
X457140D01*
X458054D02*
X477000D01*
X445252Y320277D02*
X456987D01*
X458206D02*
X477000D01*
X445405Y320125D02*
X456835D01*
X458359D02*
X477000D01*
X445557Y319972D02*
X456682D01*
X458511D02*
X477000D01*
X445710Y319820D02*
X456530D01*
X458664D02*
X477000D01*
X445862Y319668D02*
X456378D01*
X458816D02*
X477000D01*
X446014Y319515D02*
X456225D01*
X458968D02*
X477000D01*
X446167Y319363D02*
X456073D01*
X459121D02*
X477000D01*
X446319Y319210D02*
X455920D01*
X459273D02*
X477000D01*
X446472Y319058D02*
X455768D01*
X459426D02*
X477000D01*
X446624Y318906D02*
X455616D01*
X459578D02*
X477000D01*
X446776Y318753D02*
X455463D01*
X459730D02*
X477000D01*
X446929Y318601D02*
X455311D01*
X459883D02*
X477000D01*
X447081Y318448D02*
X455158D01*
X460035D02*
X477000D01*
X447234Y318296D02*
X455006D01*
X460188D02*
X477000D01*
X447386Y318144D02*
X454854D01*
X460340D02*
X477000D01*
X447538Y317991D02*
X454701D01*
X460492D02*
X477000D01*
X447691Y317839D02*
X454549D01*
X460645D02*
X477000D01*
X447843Y317686D02*
X454396D01*
X460797D02*
X477000D01*
X447996Y317534D02*
X454244D01*
X460950D02*
X477000D01*
X448148Y317382D02*
X454092D01*
X461102D02*
X477000D01*
X448300Y317229D02*
X453939D01*
X461102D02*
X477000D01*
X448453Y317077D02*
X453787D01*
X460950D02*
X477000D01*
X448605Y316924D02*
X453634D01*
X460797D02*
X477000D01*
X448758Y316772D02*
X453482D01*
X460645D02*
X477000D01*
X448910Y316620D02*
X453330D01*
X460492D02*
X477000D01*
X449062Y316467D02*
X453177D01*
X460340D02*
X477000D01*
X449215Y316315D02*
X453025D01*
X460188D02*
X477000D01*
X449367Y316162D02*
X452872D01*
X460035D02*
X477000D01*
X449520Y316010D02*
X452720D01*
X459883D02*
X477000D01*
X449672Y315858D02*
X452568D01*
X459730D02*
X477000D01*
X449824Y315705D02*
X452415D01*
X459578D02*
X477000D01*
X449977Y315553D02*
X452263D01*
X459426D02*
X477000D01*
X450129Y315400D02*
X452110D01*
X459273D02*
X477000D01*
X450282Y315248D02*
X451958D01*
X459121D02*
X477000D01*
X450434Y315096D02*
X451806D01*
X458968D02*
X477000D01*
X450586Y314943D02*
X451653D01*
X458816D02*
X477000D01*
X450739Y314791D02*
X451501D01*
X458664D02*
X477000D01*
X450891Y314638D02*
X451348D01*
X458511D02*
X477000D01*
X458359Y314486D02*
X477000D01*
X458206Y314334D02*
X477000D01*
X458054Y314181D02*
X477000D01*
X457902Y314029D02*
X477000D01*
X457749Y313876D02*
X477000D01*
X457597Y313724D02*
X477000D01*
X457444Y313572D02*
X477000D01*
X457292Y313419D02*
X477000D01*
X457140Y313267D02*
X477000D01*
X456987Y313114D02*
X477000D01*
X456835Y312962D02*
X477000D01*
X456682Y312810D02*
X477000D01*
X456530Y312657D02*
X477000D01*
X456378Y312505D02*
X477000D01*
X456225Y312352D02*
X477000D01*
X456073Y312200D02*
X477000D01*
X455920Y312048D02*
X477000D01*
X455768Y311895D02*
X477000D01*
X455616Y311743D02*
X477000D01*
X455463Y311590D02*
X477000D01*
X455311Y311438D02*
X477000D01*
X455158Y311286D02*
X477000D01*
X455006Y311133D02*
X477000D01*
X454854Y310981D02*
X477000D01*
X454701Y310828D02*
X477000D01*
X454854Y310676D02*
X477000D01*
X455006Y310524D02*
X477000D01*
X455158Y310371D02*
X477000D01*
X455311Y310219D02*
X477000D01*
X455463Y310066D02*
X477000D01*
X455616Y309914D02*
X477000D01*
X455768Y309762D02*
X477000D01*
X455920Y309609D02*
X477000D01*
X456073Y309457D02*
X477000D01*
X456225Y309304D02*
X477000D01*
X456378Y309152D02*
X477000D01*
X456530Y309000D02*
X477000D01*
X456682Y308847D02*
X477000D01*
X456835Y308695D02*
X477000D01*
X456987Y308542D02*
X477000D01*
X457140Y308390D02*
X477000D01*
X457292Y308238D02*
X477000D01*
X457444Y308085D02*
X477000D01*
X457597Y307933D02*
X477000D01*
X457749Y307780D02*
X477000D01*
X457902Y307628D02*
X477000D01*
X458054Y307476D02*
X477000D01*
X458206Y307323D02*
X477000D01*
X451044Y307171D02*
X451196D01*
X458359D02*
X477000D01*
X450891Y307018D02*
X451348D01*
X458511D02*
X477000D01*
X450739Y306866D02*
X451501D01*
X458664D02*
X477000D01*
X450586Y306714D02*
X451653D01*
X458816D02*
X477000D01*
X450434Y306561D02*
X451806D01*
X458968D02*
X477000D01*
X450282Y306409D02*
X451958D01*
X459121D02*
X477000D01*
X450129Y306256D02*
X452110D01*
X459273D02*
X477000D01*
X449977Y306104D02*
X452263D01*
X459426D02*
X477000D01*
X449824Y305952D02*
X452415D01*
X459578D02*
X477000D01*
X449672Y305799D02*
X452568D01*
X459730D02*
X477000D01*
X449520Y305647D02*
X452720D01*
X459883D02*
X477000D01*
X449367Y305494D02*
X452872D01*
X460035D02*
X477000D01*
X449215Y305342D02*
X453025D01*
X460188D02*
X477000D01*
X449062Y305190D02*
X453177D01*
X460340D02*
X477000D01*
X448910Y305037D02*
X453330D01*
X460492D02*
X477000D01*
X448758Y304885D02*
X453482D01*
X460645D02*
X477000D01*
X448605Y304732D02*
X453634D01*
X460797D02*
X477000D01*
X448453Y304580D02*
X453787D01*
X460950D02*
X477000D01*
X448300Y304428D02*
X453939D01*
X461102D02*
X477000D01*
X448148Y304275D02*
X454092D01*
X461254D02*
X477000D01*
X447996Y304123D02*
X454244D01*
X461407D02*
X477000D01*
X447843Y303970D02*
X454396D01*
X461559D02*
X477000D01*
X447691Y303818D02*
X454549D01*
X461407D02*
X477000D01*
X447538Y303666D02*
X454701D01*
X461254D02*
X477000D01*
X447386Y303513D02*
X454854D01*
X461102D02*
X477000D01*
X447234Y303361D02*
X455006D01*
X460950D02*
X477000D01*
X447081Y303208D02*
X455158D01*
X460797D02*
X477000D01*
X446929Y303056D02*
X455311D01*
X460645D02*
X477000D01*
X446776Y302904D02*
X455463D01*
X460492D02*
X477000D01*
X446624Y302751D02*
X455616D01*
X460340D02*
X477000D01*
X446472Y302599D02*
X455768D01*
X460188D02*
X477000D01*
X446319Y302446D02*
X455920D01*
X460035D02*
X477000D01*
X446167Y302294D02*
X456073D01*
X459883D02*
X477000D01*
X446014Y302142D02*
X456225D01*
X459730D02*
X477000D01*
X445862Y301989D02*
X456378D01*
X459578D02*
X477000D01*
X445710Y301837D02*
X456530D01*
X459426D02*
X477000D01*
X445557Y301684D02*
X456682D01*
X459273D02*
X477000D01*
X445405Y301532D02*
X456835D01*
X459121D02*
X477000D01*
X445252Y301380D02*
X456987D01*
X458968D02*
X477000D01*
X445100Y301227D02*
X457140D01*
X458816D02*
X477000D01*
X444948Y301075D02*
X457292D01*
X458664D02*
X477000D01*
X444795Y300922D02*
X457444D01*
X458511D02*
X477000D01*
X444643Y300770D02*
X457597D01*
X458359D02*
X477000D01*
X444490Y300618D02*
X457749D01*
X458206D02*
X477000D01*
X444338Y300465D02*
X457902D01*
X458054D02*
X477000D01*
X437480Y297722D02*
X468874D01*
X471313D02*
X477000D01*
X431232Y297570D02*
X435651D01*
X437632D02*
X465522D01*
X471313D02*
X477000D01*
X437632Y297417D02*
X463693D01*
X471313D02*
X477000D01*
X437632Y297265D02*
X463693D01*
X471160D02*
X477000D01*
X437632Y297112D02*
X463845D01*
X471160D02*
X477000D01*
X437632Y296960D02*
X463845D01*
X471160D02*
X477000D01*
X437632Y296808D02*
X463845D01*
X471160D02*
X477000D01*
X437632Y296655D02*
X463845D01*
X471160D02*
X477000D01*
X437632Y296503D02*
X463845D01*
X471160D02*
X477000D01*
X437632Y296350D02*
X463845D01*
X471160D02*
X477000D01*
X437632Y296198D02*
X463845D01*
X471160D02*
X477000D01*
X437632Y296046D02*
X463845D01*
X471160D02*
X477000D01*
X437632Y295893D02*
X463845D01*
X471160D02*
X477000D01*
X437632Y295741D02*
X463998D01*
X471160D02*
X477000D01*
X437632Y295588D02*
X463998D01*
X471160D02*
X477000D01*
X437632Y295436D02*
X463998D01*
X471160D02*
X477000D01*
X437632Y295284D02*
X463998D01*
X471160D02*
X477000D01*
X437632Y295131D02*
X463998D01*
X471160D02*
X477000D01*
X437632Y294979D02*
X444490D01*
X444795D02*
X457444D01*
X457749D02*
X463998D01*
X471160D02*
X477000D01*
X437632Y294826D02*
X444338D01*
X444948D02*
X457292D01*
X457749D02*
X463998D01*
X471008D02*
X477000D01*
X437632Y294674D02*
X444186D01*
X445100D02*
X457140D01*
X457902D02*
X463998D01*
X471008D02*
X477000D01*
X437632Y294522D02*
X444033D01*
X445252D02*
X456987D01*
X458054D02*
X463998D01*
X471008D02*
X477000D01*
X437632Y294369D02*
X443881D01*
X445405D02*
X456835D01*
X458206D02*
X463998D01*
X471008D02*
X477000D01*
X437632Y294217D02*
X443728D01*
X445557D02*
X456682D01*
X458359D02*
X464150D01*
X471008D02*
X477000D01*
X437632Y294064D02*
X443576D01*
X445710D02*
X456530D01*
X458511D02*
X464150D01*
X471008D02*
X477000D01*
X437632Y293912D02*
X443424D01*
X445862D02*
X456378D01*
X458664D02*
X464150D01*
X471008D02*
X477000D01*
X437632Y293760D02*
X443271D01*
X446014D02*
X456225D01*
X458816D02*
X464150D01*
X471008D02*
X477000D01*
X437632Y293607D02*
X443119D01*
X446167D02*
X456073D01*
X458968D02*
X464150D01*
X471008D02*
X477000D01*
X437632Y293455D02*
X442966D01*
X446319D02*
X455920D01*
X459121D02*
X464150D01*
X471008D02*
X477000D01*
X437632Y293302D02*
X442814D01*
X446472D02*
X455768D01*
X459273D02*
X464150D01*
X471008D02*
X477000D01*
X437632Y293150D02*
X442662D01*
X446624D02*
X455616D01*
X459426D02*
X464150D01*
X471008D02*
X477000D01*
X437632Y292998D02*
X442509D01*
X446776D02*
X455463D01*
X459578D02*
X464150D01*
X471008D02*
X477000D01*
X437632Y292845D02*
X442357D01*
X446929D02*
X455311D01*
X459730D02*
X464150D01*
X471008D02*
X477000D01*
X437632Y292693D02*
X442204D01*
X447081D02*
X455158D01*
X459883D02*
X464150D01*
X471008D02*
X477000D01*
X437632Y292540D02*
X442052D01*
X447234D02*
X455006D01*
X460035D02*
X464150D01*
X471008D02*
X477000D01*
X437632Y292388D02*
X441900D01*
X447386D02*
X454854D01*
X460188D02*
X464150D01*
X471008D02*
X477000D01*
X437632Y292236D02*
X441747D01*
X447538D02*
X454701D01*
X460340D02*
X464302D01*
X471008D02*
X477000D01*
X437632Y292083D02*
X441595D01*
X447691D02*
X454549D01*
X460492D02*
X464302D01*
X471008D02*
X477000D01*
X437632Y291931D02*
X441442D01*
X447843D02*
X454396D01*
X460645D02*
X464302D01*
X471008D02*
X477000D01*
X437632Y291778D02*
X441290D01*
X447996D02*
X454244D01*
X460797D02*
X464302D01*
X471008D02*
X477000D01*
X437632Y291626D02*
X441138D01*
X448148D02*
X454092D01*
X460950D02*
X464302D01*
X471008D02*
X477000D01*
X437632Y291474D02*
X441138D01*
X448300D02*
X453939D01*
X461102D02*
X464302D01*
X470856D02*
X477000D01*
X437632Y291321D02*
X441290D01*
X448453D02*
X453787D01*
X460950D02*
X464302D01*
X470856D02*
X477000D01*
X437632Y291169D02*
X441442D01*
X448605D02*
X453634D01*
X460797D02*
X464302D01*
X470856D02*
X477000D01*
X437632Y291016D02*
X441595D01*
X448758D02*
X453482D01*
X460645D02*
X464302D01*
X470856D02*
X477000D01*
X437632Y290864D02*
X441747D01*
X448910D02*
X453330D01*
X460492D02*
X464302D01*
X470856D02*
X477000D01*
X437632Y290712D02*
X441900D01*
X449062D02*
X453177D01*
X460340D02*
X464302D01*
X470856D02*
X477000D01*
X437632Y290559D02*
X442052D01*
X449215D02*
X453025D01*
X460188D02*
X464302D01*
X470856D02*
X477000D01*
X437632Y290407D02*
X442204D01*
X449367D02*
X452872D01*
X460035D02*
X464302D01*
X470856D02*
X477000D01*
X437632Y290254D02*
X442357D01*
X449520D02*
X452720D01*
X459883D02*
X464302D01*
X470856D02*
X477000D01*
X437632Y290102D02*
X442509D01*
X449672D02*
X452568D01*
X459730D02*
X464302D01*
X470856D02*
X477000D01*
X437632Y289950D02*
X442662D01*
X449824D02*
X452415D01*
X459578D02*
X464302D01*
X470856D02*
X477000D01*
X437632Y289797D02*
X442814D01*
X449977D02*
X452263D01*
X459426D02*
X464302D01*
X470856D02*
X477000D01*
X437632Y289645D02*
X442966D01*
X450129D02*
X452110D01*
X459273D02*
X464302D01*
X470856D02*
X477000D01*
X437632Y289492D02*
X443119D01*
X450282D02*
X451958D01*
X459121D02*
X464455D01*
X470856D02*
X477000D01*
X437632Y289340D02*
X443271D01*
X450434D02*
X451806D01*
X458968D02*
X464455D01*
X470856D02*
X477000D01*
X437632Y289188D02*
X443424D01*
X450586D02*
X451653D01*
X458816D02*
X464455D01*
X470856D02*
X477000D01*
X437632Y289035D02*
X443576D01*
X450739D02*
X451501D01*
X458664D02*
X464455D01*
X470856D02*
X477000D01*
X437632Y288883D02*
X443728D01*
X450891D02*
X451348D01*
X458511D02*
X464455D01*
X470856D02*
X477000D01*
X437632Y288730D02*
X443881D01*
X451044D02*
X451196D01*
X458359D02*
X464455D01*
X470856D02*
X477000D01*
X437632Y288578D02*
X444033D01*
X458206D02*
X464455D01*
X470856D02*
X477000D01*
X437632Y288426D02*
X444186D01*
X458054D02*
X464455D01*
X470856D02*
X477000D01*
X437632Y288273D02*
X444338D01*
X457902D02*
X464455D01*
X470856D02*
X477000D01*
X437632Y288121D02*
X444490D01*
X457749D02*
X464455D01*
X470856D02*
X477000D01*
X437632Y287968D02*
X444643D01*
X457597D02*
X464455D01*
X470856D02*
X477000D01*
X437632Y287816D02*
X444795D01*
X457444D02*
X464455D01*
X470856D02*
X477000D01*
X437632Y287664D02*
X444948D01*
X457292D02*
X464455D01*
X470856D02*
X477000D01*
X437632Y287511D02*
X445100D01*
X457140D02*
X464455D01*
X470856D02*
X477000D01*
X437632Y287359D02*
X445252D01*
X456987D02*
X464455D01*
X470856D02*
X477000D01*
X437632Y287206D02*
X445405D01*
X456835D02*
X464455D01*
X470856D02*
X477000D01*
X437632Y287054D02*
X445557D01*
X456682D02*
X464455D01*
X470856D02*
X477000D01*
X437632Y286902D02*
X445710D01*
X456530D02*
X464455D01*
X470856D02*
X477000D01*
X437632Y286749D02*
X445862D01*
X456378D02*
X464455D01*
X470856D02*
X477000D01*
X437632Y286597D02*
X446014D01*
X456225D02*
X464455D01*
X470856D02*
X477000D01*
X437632Y286444D02*
X446167D01*
X456073D02*
X464455D01*
X470856D02*
X477000D01*
X437632Y286292D02*
X446319D01*
X455920D02*
X464455D01*
X470856D02*
X477000D01*
X437632Y286140D02*
X446472D01*
X455768D02*
X464455D01*
X470856D02*
X477000D01*
X437632Y285987D02*
X446624D01*
X455616D02*
X464455D01*
X470856D02*
X477000D01*
X437632Y285835D02*
X446776D01*
X455463D02*
X464455D01*
X470856D02*
X477000D01*
X437632Y285682D02*
X446929D01*
X455311D02*
X464455D01*
X470856D02*
X477000D01*
X437632Y285530D02*
X447081D01*
X455158D02*
X464455D01*
X470703D02*
X477000D01*
X437632Y285378D02*
X447234D01*
X455006D02*
X464455D01*
X470703D02*
X477000D01*
X437632Y285225D02*
X447386D01*
X454854D02*
X464455D01*
X470703D02*
X477000D01*
X437632Y285073D02*
X447538D01*
X454701D02*
X464455D01*
X470703D02*
X477000D01*
X437632Y284920D02*
X447386D01*
X454854D02*
X464455D01*
X470703D02*
X477000D01*
X437632Y284768D02*
X447234D01*
X455006D02*
X464455D01*
X470703D02*
X477000D01*
X437632Y284616D02*
X447081D01*
X455158D02*
X464455D01*
X470703D02*
X477000D01*
X437632Y284463D02*
X446929D01*
X455311D02*
X464455D01*
X470703D02*
X477000D01*
X437632Y284311D02*
X446776D01*
X455463D02*
X464455D01*
X470703D02*
X477000D01*
X437632Y284158D02*
X446624D01*
X455616D02*
X464455D01*
X470703D02*
X477000D01*
X437632Y284006D02*
X446472D01*
X455768D02*
X464455D01*
X470703D02*
X477000D01*
X437632Y283854D02*
X446319D01*
X455920D02*
X464455D01*
X470703D02*
X477000D01*
X437632Y283701D02*
X446167D01*
X456073D02*
X464455D01*
X470703D02*
X477000D01*
X437632Y283549D02*
X446014D01*
X456225D02*
X464455D01*
X470703D02*
X477000D01*
X437632Y283396D02*
X445862D01*
X456378D02*
X464455D01*
X470703D02*
X477000D01*
X437632Y283244D02*
X445710D01*
X456530D02*
X464455D01*
X470703D02*
X477000D01*
X437632Y283092D02*
X445557D01*
X456682D02*
X464455D01*
X470703D02*
X477000D01*
X437632Y282939D02*
X445405D01*
X456835D02*
X464455D01*
X470703D02*
X477000D01*
X437632Y282787D02*
X445252D01*
X456987D02*
X464455D01*
X470703D02*
X477000D01*
X437632Y282634D02*
X445100D01*
X457140D02*
X464455D01*
X470703D02*
X477000D01*
X437632Y282482D02*
X444948D01*
X457292D02*
X464455D01*
X470703D02*
X477000D01*
X437632Y282330D02*
X444795D01*
X457444D02*
X464455D01*
X470703D02*
X477000D01*
X437632Y282177D02*
X444643D01*
X457597D02*
X464455D01*
X470703D02*
X477000D01*
X437632Y282025D02*
X444490D01*
X457749D02*
X464455D01*
X470703D02*
X477000D01*
X437632Y281872D02*
X444338D01*
X457902D02*
X464455D01*
X470703D02*
X477000D01*
X437632Y281720D02*
X444186D01*
X458054D02*
X464302D01*
X470703D02*
X477000D01*
X437632Y281568D02*
X444033D01*
X458206D02*
X464302D01*
X470703D02*
X477000D01*
X437632Y281415D02*
X443881D01*
X451044D02*
X451196D01*
X458359D02*
X464302D01*
X470703D02*
X477000D01*
X437632Y281263D02*
X443728D01*
X450891D02*
X451348D01*
X458511D02*
X464302D01*
X470703D02*
X477000D01*
X437632Y281110D02*
X443576D01*
X450739D02*
X451501D01*
X458664D02*
X464302D01*
X470703D02*
X477000D01*
X437632Y280958D02*
X443424D01*
X450586D02*
X451653D01*
X458816D02*
X464302D01*
X470703D02*
X477000D01*
X437632Y280806D02*
X443271D01*
X450434D02*
X451806D01*
X458968D02*
X464302D01*
X470703D02*
X477000D01*
X437632Y280653D02*
X443119D01*
X450282D02*
X451958D01*
X459121D02*
X464302D01*
X470703D02*
X477000D01*
X437632Y280501D02*
X442966D01*
X450129D02*
X452110D01*
X459273D02*
X464302D01*
X470703D02*
X477000D01*
X437632Y280348D02*
X442814D01*
X449977D02*
X452263D01*
X459426D02*
X464302D01*
X470703D02*
X477000D01*
X437632Y280196D02*
X442662D01*
X449824D02*
X452415D01*
X459578D02*
X464302D01*
X470703D02*
X477000D01*
X437632Y280044D02*
X442509D01*
X449672D02*
X452568D01*
X459730D02*
X464302D01*
X470703D02*
X477000D01*
X437632Y279891D02*
X442357D01*
X449520D02*
X452720D01*
X459883D02*
X464302D01*
X470703D02*
X477000D01*
X437632Y279739D02*
X442204D01*
X449367D02*
X452872D01*
X460035D02*
X464302D01*
X470703D02*
X477000D01*
X437632Y279586D02*
X442052D01*
X449215D02*
X453025D01*
X460188D02*
X464302D01*
X470703D02*
X477000D01*
X437632Y279434D02*
X441900D01*
X449062D02*
X453177D01*
X460340D02*
X464302D01*
X470703D02*
X477000D01*
X437632Y279282D02*
X441747D01*
X448910D02*
X453330D01*
X460492D02*
X464150D01*
X470703D02*
X477000D01*
X437632Y279129D02*
X441595D01*
X448758D02*
X453482D01*
X460645D02*
X464150D01*
X470703D02*
X477000D01*
X437632Y278977D02*
X441442D01*
X448605D02*
X453634D01*
X460797D02*
X464150D01*
X470703D02*
X477000D01*
X437632Y278824D02*
X441290D01*
X448453D02*
X453787D01*
X460950D02*
X464150D01*
X470703D02*
X477000D01*
X437632Y278672D02*
X441138D01*
X448300D02*
X453939D01*
X461102D02*
X464150D01*
X470703D02*
X477000D01*
X437632Y278520D02*
X440985D01*
X448148D02*
X454092D01*
X461254D02*
X464150D01*
X470703D02*
X477000D01*
X437632Y278367D02*
X440833D01*
X447996D02*
X454244D01*
X461407D02*
X464150D01*
X470703D02*
X477000D01*
X437632Y278215D02*
X440680D01*
X447843D02*
X454396D01*
X461559D02*
X464150D01*
X470703D02*
X477000D01*
X437632Y278062D02*
X440680D01*
X447691D02*
X454549D01*
X461407D02*
X464150D01*
X470703D02*
X477000D01*
X437632Y277910D02*
X440833D01*
X447538D02*
X454701D01*
X461254D02*
X464150D01*
X470703D02*
X477000D01*
X437632Y277758D02*
X440985D01*
X447386D02*
X454854D01*
X461102D02*
X463998D01*
X470703D02*
X477000D01*
X437785Y277605D02*
X441138D01*
X447234D02*
X455006D01*
X460950D02*
X463998D01*
X470856D02*
X477000D01*
X437785Y277453D02*
X441290D01*
X447081D02*
X455158D01*
X460797D02*
X463998D01*
X470856D02*
X477000D01*
X437785Y277300D02*
X441442D01*
X446929D02*
X455311D01*
X460645D02*
X463998D01*
X470856D02*
X477000D01*
X437785Y277148D02*
X441595D01*
X446776D02*
X455463D01*
X460492D02*
X463998D01*
X470856D02*
X477000D01*
X437785Y276996D02*
X441747D01*
X446624D02*
X455616D01*
X460340D02*
X463998D01*
X470856D02*
X477000D01*
X437785Y276843D02*
X441900D01*
X446472D02*
X455768D01*
X460188D02*
X463998D01*
X470856D02*
X477000D01*
X437785Y276691D02*
X442052D01*
X446319D02*
X455920D01*
X460035D02*
X463998D01*
X470856D02*
X477000D01*
X437785Y276538D02*
X442204D01*
X446167D02*
X456073D01*
X459883D02*
X463845D01*
X470856D02*
X477000D01*
X437785Y276386D02*
X442357D01*
X446014D02*
X456225D01*
X459730D02*
X463845D01*
X470856D02*
X477000D01*
X437785Y276234D02*
X442509D01*
X445862D02*
X456378D01*
X459578D02*
X463845D01*
X470856D02*
X477000D01*
X437937Y276081D02*
X442662D01*
X445710D02*
X456530D01*
X459426D02*
X463845D01*
X470856D02*
X477000D01*
X437937Y275929D02*
X442814D01*
X445557D02*
X456682D01*
X459273D02*
X463845D01*
X470856D02*
X477000D01*
X437937Y275776D02*
X442966D01*
X445405D02*
X456835D01*
X459121D02*
X463845D01*
X470856D02*
X477000D01*
X437937Y275624D02*
X443119D01*
X445252D02*
X456987D01*
X458968D02*
X463845D01*
X470856D02*
X477000D01*
X437937Y275472D02*
X443271D01*
X445100D02*
X457140D01*
X458816D02*
X463693D01*
X470856D02*
X477000D01*
X437937Y275319D02*
X443424D01*
X444948D02*
X457292D01*
X458664D02*
X463693D01*
X470856D02*
X477000D01*
X437937Y275167D02*
X443576D01*
X444795D02*
X457444D01*
X458511D02*
X463693D01*
X470856D02*
X477000D01*
X437937Y275014D02*
X443728D01*
X444643D02*
X457597D01*
X458359D02*
X463693D01*
X470856D02*
X477000D01*
X438090Y274862D02*
X443881D01*
X444490D02*
X457749D01*
X458206D02*
X463693D01*
X470856D02*
X477000D01*
X438090Y274710D02*
X444033D01*
X444338D02*
X457902D01*
X458054D02*
X463540D01*
X470856D02*
X477000D01*
X438090Y274557D02*
X463540D01*
X470856D02*
X477000D01*
X438090Y274405D02*
X463540D01*
X470856D02*
X477000D01*
X438090Y274252D02*
X463540D01*
X470856D02*
X477000D01*
X438242Y274100D02*
X463540D01*
X470856D02*
X477000D01*
X438242Y273948D02*
X463388D01*
X470856D02*
X477000D01*
X438242Y273795D02*
X463388D01*
X470856D02*
X477000D01*
X438242Y273643D02*
X463388D01*
X470856D02*
X477000D01*
X438242Y273490D02*
X463236D01*
X470856D02*
X477000D01*
X438394Y273338D02*
X463236D01*
X470856D02*
X477000D01*
X438394Y273186D02*
X463236D01*
X470856D02*
X477000D01*
X438394Y273033D02*
X463236D01*
X471008D02*
X477000D01*
X438394Y272881D02*
X463083D01*
X471008D02*
X477000D01*
X438547Y272728D02*
X463083D01*
X471008D02*
X477000D01*
X438547Y272576D02*
X462931D01*
X471008D02*
X477000D01*
X438547Y272424D02*
X462931D01*
X471008D02*
X477000D01*
X438699Y272271D02*
X462931D01*
X471008D02*
X477000D01*
X438699Y272119D02*
X462778D01*
X471008D02*
X477000D01*
X438852Y271966D02*
X462626D01*
X471008D02*
X477000D01*
X438852Y271814D02*
X462626D01*
X471008D02*
X477000D01*
X438852Y271662D02*
X462474D01*
X471008D02*
X477000D01*
X439004Y271509D02*
X462474D01*
X471008D02*
X477000D01*
X439004Y271357D02*
X462321D01*
X471008D02*
X477000D01*
X439156Y271204D02*
X462169D01*
X471008D02*
X477000D01*
X439309Y271052D02*
X462016D01*
X471008D02*
X477000D01*
X439309Y270900D02*
X461864D01*
X471008D02*
X477000D01*
X439461Y270747D02*
X461712D01*
X471008D02*
X477000D01*
X439614Y270595D02*
X461559D01*
X471008D02*
X477000D01*
X439766Y270442D02*
X461407D01*
X471160D02*
X477000D01*
X439918Y270290D02*
X461254D01*
X471160D02*
X477000D01*
X440071Y270138D02*
X461102D01*
X471160D02*
X477000D01*
X440376Y269985D02*
X460797D01*
X471160D02*
X477000D01*
X440528Y269833D02*
X460645D01*
X471160D02*
X477000D01*
X440833Y269680D02*
X460340D01*
X463998D02*
X464302D01*
X471160D02*
X477000D01*
X440985Y269528D02*
X460188D01*
X463845D02*
X464302D01*
X471160D02*
X477000D01*
X441290Y269376D02*
X459883D01*
X463693D02*
X464302D01*
X471160D02*
X477000D01*
X441595Y269223D02*
X459578D01*
X463540D02*
X464302D01*
X471160D02*
X477000D01*
X441900Y269071D02*
X459121D01*
X463388D02*
X464302D01*
X471160D02*
X477000D01*
X442204Y268918D02*
X458816D01*
X463236D02*
X464302D01*
X471160D02*
X477000D01*
X442662Y268766D02*
X458359D01*
X463083D02*
X464302D01*
X471160D02*
X477000D01*
X443119Y268614D02*
X458054D01*
X462931D02*
X464302D01*
X471160D02*
X477000D01*
X443576Y268461D02*
X457444D01*
X462778D02*
X464302D01*
X471313D02*
X477000D01*
X444033Y268309D02*
X456987D01*
X462626D02*
X464302D01*
X471313D02*
X477000D01*
X444643Y268156D02*
X456225D01*
X462321D02*
X464302D01*
X471313D02*
X477000D01*
X445405Y268004D02*
X455463D01*
X462169D02*
X464302D01*
X471313D02*
X477000D01*
X446167Y267852D02*
X454549D01*
X462016D02*
X464302D01*
X471313D02*
X477000D01*
X447234Y267699D02*
X453330D01*
X461864D02*
X464302D01*
X471313D02*
X477000D01*
X449215Y267547D02*
X451044D01*
X461712D02*
X464302D01*
X471313D02*
X477000D01*
X461559Y267394D02*
X464302D01*
X471313D02*
X477000D01*
X461407Y267242D02*
X464302D01*
X471313D02*
X477000D01*
X461254Y267090D02*
X464302D01*
X471313D02*
X477000D01*
X461102Y266937D02*
X464302D01*
X471313D02*
X477000D01*
X460950Y266785D02*
X464302D01*
X471465D02*
X477000D01*
X460797Y266632D02*
X464302D01*
X471465D02*
X477000D01*
X460645Y266480D02*
X464302D01*
X471465D02*
X477000D01*
X460492Y266328D02*
X464302D01*
X471465D02*
X477000D01*
X460340Y266175D02*
X464302D01*
X471465D02*
X477000D01*
X460035Y266023D02*
X464302D01*
X471465D02*
X477000D01*
X459883Y265870D02*
X464302D01*
X471465D02*
X477000D01*
X459730Y265718D02*
X464302D01*
X471465D02*
X477000D01*
X459426Y265566D02*
X464302D01*
X471465D02*
X477000D01*
X459273Y265413D02*
X464302D01*
X471618D02*
X477000D01*
X458968Y265261D02*
X464302D01*
X471618D02*
X477000D01*
X458816Y265108D02*
X464302D01*
X471618D02*
X477000D01*
X458511Y264956D02*
X464302D01*
X471618D02*
X477000D01*
X458206Y264804D02*
X464302D01*
X471618D02*
X477000D01*
X458054Y264651D02*
X464302D01*
X471618D02*
X477000D01*
X457749Y264499D02*
X464302D01*
X471618D02*
X477000D01*
X457444Y264346D02*
X464302D01*
X471618D02*
X477000D01*
X456987Y264194D02*
X464302D01*
X471770D02*
X477000D01*
X456682Y264042D02*
X464302D01*
X471770D02*
X477000D01*
X456378Y263889D02*
X464302D01*
X471465D02*
X477000D01*
X455920Y263737D02*
X464302D01*
X471008D02*
X477000D01*
X455616Y263584D02*
X464302D01*
X470398D02*
X477000D01*
X455158Y263432D02*
X464302D01*
X469941D02*
X477000D01*
X454701Y263280D02*
X464302D01*
X469332D02*
X477000D01*
X454092Y263127D02*
X464302D01*
X468874D02*
X477000D01*
X453634Y262975D02*
X464302D01*
X468417D02*
X477000D01*
X452872Y262822D02*
X464302D01*
X467808D02*
X477000D01*
X452263Y262670D02*
X464302D01*
X467350D02*
X477000D01*
X451501Y262518D02*
X464302D01*
X466741D02*
X477000D01*
X450586Y262365D02*
X464302D01*
X466284D02*
X477000D01*
X449367Y262213D02*
X464302D01*
X465826D02*
X477000D01*
X465217Y262060D02*
X477000D01*
X464760Y261908D02*
X477000D01*
X444795Y260536D02*
X457444D01*
X457597D02*
X477000D01*
X444948Y260384D02*
X457292D01*
X457749D02*
X477000D01*
X445100Y260232D02*
X457140D01*
X457902D02*
X477000D01*
X445252Y260079D02*
X456987D01*
X458054D02*
X477000D01*
X445405Y259927D02*
X456835D01*
X458206D02*
X477000D01*
X445557Y259774D02*
X456682D01*
X458359D02*
X477000D01*
X445710Y259622D02*
X456530D01*
X458511D02*
X477000D01*
X445862Y259470D02*
X456378D01*
X458664D02*
X477000D01*
X446014Y259317D02*
X456225D01*
X458816D02*
X477000D01*
X446167Y259165D02*
X456073D01*
X458968D02*
X477000D01*
X446319Y259012D02*
X455920D01*
X459121D02*
X477000D01*
X446472Y258860D02*
X455768D01*
X459273D02*
X477000D01*
X446624Y258708D02*
X455616D01*
X459426D02*
X477000D01*
X446776Y258555D02*
X455463D01*
X459578D02*
X477000D01*
X446929Y258403D02*
X455311D01*
X459730D02*
X477000D01*
X447081Y258250D02*
X455158D01*
X459883D02*
X477000D01*
X447234Y258098D02*
X455006D01*
X460035D02*
X477000D01*
X447386Y257946D02*
X454854D01*
X460188D02*
X477000D01*
X447538Y257793D02*
X454701D01*
X460340D02*
X477000D01*
X447691Y257641D02*
X454549D01*
X460492D02*
X477000D01*
X447843Y257488D02*
X454396D01*
X460645D02*
X477000D01*
X447996Y257336D02*
X454244D01*
X460797D02*
X477000D01*
X448148Y257184D02*
X454092D01*
X460950D02*
X477000D01*
X448300Y257031D02*
X453939D01*
X461102D02*
X477000D01*
X448453Y256879D02*
X453787D01*
X460950D02*
X477000D01*
X448605Y256726D02*
X453634D01*
X460797D02*
X477000D01*
X448758Y256574D02*
X453482D01*
X460645D02*
X477000D01*
X448910Y256422D02*
X453330D01*
X460492D02*
X477000D01*
X449062Y256269D02*
X453177D01*
X460340D02*
X477000D01*
X449215Y256117D02*
X453025D01*
X460188D02*
X477000D01*
X449367Y255964D02*
X452872D01*
X460035D02*
X477000D01*
X449520Y255812D02*
X452720D01*
X459883D02*
X477000D01*
X449672Y255660D02*
X452568D01*
X459730D02*
X477000D01*
X449824Y255507D02*
X452415D01*
X459578D02*
X477000D01*
X449977Y255355D02*
X452263D01*
X459426D02*
X477000D01*
X450129Y255202D02*
X452110D01*
X459273D02*
X477000D01*
X450282Y255050D02*
X451958D01*
X459121D02*
X477000D01*
X450434Y254898D02*
X451806D01*
X458968D02*
X477000D01*
X450586Y254745D02*
X451653D01*
X458816D02*
X477000D01*
X450739Y254593D02*
X451501D01*
X458664D02*
X477000D01*
X450891Y254440D02*
X451348D01*
X458511D02*
X477000D01*
X451044Y254288D02*
X451196D01*
X458359D02*
X477000D01*
X458206Y254136D02*
X477000D01*
X458054Y253983D02*
X477000D01*
X457902Y253831D02*
X477000D01*
X457749Y253678D02*
X477000D01*
X457597Y253526D02*
X477000D01*
X457444Y253374D02*
X477000D01*
X457292Y253221D02*
X477000D01*
X457140Y253069D02*
X477000D01*
X456987Y252916D02*
X477000D01*
X456835Y252764D02*
X477000D01*
X456682Y252612D02*
X477000D01*
X456530Y252459D02*
X477000D01*
X456378Y252307D02*
X477000D01*
X456225Y252154D02*
X477000D01*
X456073Y252002D02*
X477000D01*
X455920Y251850D02*
X477000D01*
X455768Y251697D02*
X477000D01*
X455616Y251545D02*
X477000D01*
X455463Y251392D02*
X477000D01*
X455311Y251240D02*
X477000D01*
X455158Y251088D02*
X477000D01*
X455006Y250935D02*
X477000D01*
X454854Y250783D02*
X477000D01*
X454701Y250630D02*
X477000D01*
X454854Y250478D02*
X477000D01*
X455006Y250326D02*
X477000D01*
X455158Y250173D02*
X477000D01*
X455311Y250021D02*
X477000D01*
X455463Y249868D02*
X477000D01*
X455616Y249716D02*
X477000D01*
X455768Y249564D02*
X477000D01*
X455920Y249411D02*
X477000D01*
X456073Y249259D02*
X477000D01*
X456225Y249106D02*
X477000D01*
X456378Y248954D02*
X477000D01*
X456530Y248802D02*
X477000D01*
X456682Y248649D02*
X477000D01*
X456835Y248497D02*
X477000D01*
X456987Y248344D02*
X477000D01*
X457140Y248192D02*
X477000D01*
X457292Y248040D02*
X477000D01*
X457444Y247887D02*
X477000D01*
X457597Y247735D02*
X477000D01*
X457749Y247582D02*
X477000D01*
X457902Y247430D02*
X477000D01*
X458054Y247278D02*
X477000D01*
X458206Y247125D02*
X477000D01*
X451044Y246973D02*
X451196D01*
X458359D02*
X477000D01*
X450891Y246820D02*
X451348D01*
X458511D02*
X477000D01*
X450739Y246668D02*
X451501D01*
X458664D02*
X477000D01*
X450586Y246516D02*
X451653D01*
X458816D02*
X477000D01*
X450434Y246363D02*
X451806D01*
X458968D02*
X477000D01*
X450282Y246211D02*
X451958D01*
X459121D02*
X477000D01*
X450129Y246058D02*
X452110D01*
X459273D02*
X477000D01*
X449977Y245906D02*
X452263D01*
X459426D02*
X477000D01*
X449824Y245754D02*
X452415D01*
X459578D02*
X477000D01*
X449672Y245601D02*
X452568D01*
X459730D02*
X477000D01*
X449520Y245449D02*
X452720D01*
X459883D02*
X477000D01*
X449367Y245296D02*
X452872D01*
X460035D02*
X477000D01*
X449215Y245144D02*
X453025D01*
X460188D02*
X477000D01*
X449062Y244992D02*
X453177D01*
X460340D02*
X477000D01*
X448910Y244839D02*
X453330D01*
X460492D02*
X477000D01*
X448758Y244687D02*
X453482D01*
X460645D02*
X477000D01*
X448605Y244534D02*
X453634D01*
X460797D02*
X477000D01*
X448453Y244382D02*
X453787D01*
X460950D02*
X477000D01*
X448300Y244230D02*
X453939D01*
X461102D02*
X477000D01*
X448148Y244077D02*
X454092D01*
X461254D02*
X477000D01*
X447996Y243925D02*
X454244D01*
X461407D02*
X477000D01*
X447843Y243772D02*
X454396D01*
X461559D02*
X477000D01*
X447691Y243620D02*
X454549D01*
X461407D02*
X477000D01*
X447538Y243468D02*
X454701D01*
X461254D02*
X477000D01*
X447386Y243315D02*
X454854D01*
X461102D02*
X477000D01*
X447234Y243163D02*
X455006D01*
X460950D02*
X477000D01*
X447081Y243010D02*
X455158D01*
X460797D02*
X477000D01*
X446929Y242858D02*
X455311D01*
X460645D02*
X477000D01*
X446776Y242706D02*
X455463D01*
X460492D02*
X477000D01*
X446624Y242553D02*
X455616D01*
X460340D02*
X477000D01*
X446472Y242401D02*
X455768D01*
X460188D02*
X477000D01*
X446319Y242248D02*
X455920D01*
X460035D02*
X477000D01*
X446167Y242096D02*
X456073D01*
X459883D02*
X477000D01*
X446014Y241944D02*
X456225D01*
X459730D02*
X477000D01*
X445862Y241791D02*
X456378D01*
X459578D02*
X477000D01*
X445710Y241639D02*
X456530D01*
X459426D02*
X477000D01*
X445557Y241486D02*
X456682D01*
X459273D02*
X477000D01*
X445405Y241334D02*
X456835D01*
X459121D02*
X477000D01*
X445252Y241182D02*
X456987D01*
X458968D02*
X477000D01*
X445100Y241029D02*
X457140D01*
X458816D02*
X477000D01*
X444948Y240877D02*
X457292D01*
X458664D02*
X477000D01*
X444795Y240724D02*
X457444D01*
X458511D02*
X477000D01*
X444643Y240572D02*
X457597D01*
X458359D02*
X477000D01*
X444490Y240420D02*
X457749D01*
X458206D02*
X477000D01*
X444338Y240267D02*
X457902D01*
X458054D02*
X477000D01*
D13*
X376000Y448000D02*
X684000D01*
X376000D02*
Y572000D01*
X684000D01*
Y448000D02*
Y572000D01*
X324000Y448000D02*
Y572000D01*
X16000D02*
X324000D01*
X16000Y448000D02*
Y572000D01*
Y448000D02*
X324000D01*
X171000Y288000D02*
Y302000D01*
X155000Y288000D02*
Y302000D01*
X146000Y288000D02*
Y302000D01*
X130000Y288000D02*
Y302000D01*
X121000Y288000D02*
X121000Y302000D01*
X105000D02*
X105000Y288000D01*
X96000D02*
X96000Y302000D01*
X80000D02*
X80000Y288000D01*
X387500Y390300D02*
X419500D01*
X387500Y285300D02*
X419500Y285300D01*
X316500Y390300D02*
X348500D01*
X316500Y285300D02*
X348500D01*
X419500Y285300D02*
Y390300D01*
X316500Y285300D02*
Y390300D01*
X206500Y390300D02*
X206500Y285300D01*
X309500Y285300D02*
Y390300D01*
X206500Y285300D02*
X238500Y285300D01*
X206500Y390300D02*
X238500D01*
X277500Y285300D02*
X309500D01*
X277500Y390300D02*
X309500D01*
X426000Y212663D02*
Y202666D01*
X432664D01*
X437663Y209331D02*
X440995D01*
X442661Y207665D01*
Y202666D01*
X437663D01*
X435997Y204332D01*
X437663Y205998D01*
X442661D01*
X445994Y202666D02*
X450992D01*
X452658Y204332D01*
X450992Y205998D01*
X447660D01*
X445994Y207665D01*
X447660Y209331D01*
X452658D01*
X460989Y202666D02*
X457657D01*
X455990Y204332D01*
Y207665D01*
X457657Y209331D01*
X460989D01*
X462655Y207665D01*
Y205998D01*
X455990D01*
X465987Y209331D02*
Y202666D01*
Y205998D01*
X467653Y207665D01*
X469319Y209331D01*
X470985D01*
X475984Y202666D02*
Y212663D01*
X480982D01*
X482648Y210997D01*
Y207665D01*
X480982Y205998D01*
X475984D01*
X485981Y209331D02*
Y202666D01*
Y205998D01*
X487647Y207665D01*
X489313Y209331D01*
X490979D01*
X497644Y202666D02*
X500976D01*
X502642Y204332D01*
Y207665D01*
X500976Y209331D01*
X497644D01*
X495978Y207665D01*
Y204332D01*
X497644Y202666D01*
X507640Y210997D02*
Y209331D01*
X505974D01*
X509306D01*
X507640D01*
Y204332D01*
X509306Y202666D01*
X519303D02*
X515971D01*
X514305Y204332D01*
Y207665D01*
X515971Y209331D01*
X519303D01*
X520969Y207665D01*
Y205998D01*
X514305D01*
X530966Y209331D02*
X525968D01*
X524302Y207665D01*
Y204332D01*
X525968Y202666D01*
X530966D01*
X535965Y210997D02*
Y209331D01*
X534298D01*
X537631D01*
X535965D01*
Y204332D01*
X537631Y202666D01*
X542629D02*
X545961D01*
X544295D01*
Y209331D01*
X542629D01*
X552626Y202666D02*
X555958D01*
X557624Y204332D01*
Y207665D01*
X555958Y209331D01*
X552626D01*
X550960Y207665D01*
Y204332D01*
X552626Y202666D01*
X560956D02*
Y209331D01*
X565955D01*
X567621Y207665D01*
Y202666D01*
X570953Y201000D02*
X577618D01*
X580950Y212663D02*
Y205998D01*
X584282Y202666D01*
X587615Y205998D01*
Y212663D01*
X590947Y202666D02*
X594279D01*
X592613D01*
Y212663D01*
X590947Y210997D01*
X599277D02*
X600944Y212663D01*
X604276D01*
X605942Y210997D01*
Y204332D01*
X604276Y202666D01*
X600944D01*
X599277Y204332D01*
Y210997D01*
X432664Y194663D02*
X430998Y196329D01*
X427666D01*
X426000Y194663D01*
Y192997D01*
X427666Y191331D01*
X430998D01*
X432664Y189664D01*
Y187998D01*
X430998Y186332D01*
X427666D01*
X426000Y187998D01*
X437663Y194663D02*
Y192997D01*
X435997D01*
X439329D01*
X437663D01*
Y187998D01*
X439329Y186332D01*
X444327Y192997D02*
Y186332D01*
Y189664D01*
X445993Y191331D01*
X447660Y192997D01*
X449326D01*
X455990Y186332D02*
X459323D01*
X460989Y187998D01*
Y191331D01*
X459323Y192997D01*
X455990D01*
X454324Y191331D01*
Y187998D01*
X455990Y186332D01*
X464321D02*
Y192997D01*
X469319D01*
X470985Y191331D01*
Y186332D01*
X475984Y194663D02*
Y192997D01*
X474318D01*
X477650D01*
X475984D01*
Y187998D01*
X477650Y186332D01*
X482648D02*
X485981D01*
X484314D01*
Y192997D01*
X482648D01*
X490979D02*
Y187998D01*
X492645Y186332D01*
X497644D01*
Y192997D01*
X500976Y186332D02*
Y192997D01*
X502642D01*
X504308Y191331D01*
Y186332D01*
Y191331D01*
X505974Y192997D01*
X507640Y191331D01*
Y186332D01*
X520969Y196329D02*
Y186332D01*
X525968D01*
X527634Y187998D01*
Y189664D01*
X525968Y191331D01*
X520969D01*
X525968D01*
X527634Y192997D01*
Y194663D01*
X525968Y196329D01*
X520969D01*
X537631D02*
X530966D01*
Y186332D01*
X537631D01*
X530966Y191331D02*
X534298D01*
X547627Y194663D02*
X545961Y196329D01*
X542629D01*
X540963Y194663D01*
Y187998D01*
X542629Y186332D01*
X545961D01*
X547627Y187998D01*
X554292Y183000D02*
X555958D01*
X557624Y184666D01*
Y192997D01*
X552626D01*
X550960Y191331D01*
Y187998D01*
X552626Y186332D01*
X557624D01*
X560956Y192997D02*
Y186332D01*
Y189664D01*
X562623Y191331D01*
X564289Y192997D01*
X565955D01*
X572619Y186332D02*
X575952D01*
X577618Y187998D01*
Y191331D01*
X575952Y192997D01*
X572619D01*
X570953Y191331D01*
Y187998D01*
X572619Y186332D01*
X580950Y192997D02*
Y187998D01*
X582616Y186332D01*
X587615D01*
Y192997D01*
X590947Y183000D02*
Y192997D01*
X595945D01*
X597611Y191331D01*
Y187998D01*
X595945Y186332D01*
X590947D01*
X426000Y228329D02*
Y219998D01*
X427666Y218332D01*
X430998D01*
X432664Y219998D01*
Y228329D01*
X435997Y218332D02*
Y224997D01*
X440995D01*
X442661Y223331D01*
Y218332D01*
X445994D02*
X449326D01*
X447660D01*
Y224997D01*
X445994D01*
X454324D02*
X457657Y218332D01*
X460989Y224997D01*
X469319Y218332D02*
X465987D01*
X464321Y219998D01*
Y223331D01*
X465987Y224997D01*
X469319D01*
X470985Y223331D01*
Y221665D01*
X464321D01*
X474318Y224997D02*
Y218332D01*
Y221665D01*
X475984Y223331D01*
X477650Y224997D01*
X479316D01*
X484315Y218332D02*
X489313D01*
X490979Y219998D01*
X489313Y221665D01*
X485981D01*
X484315Y223331D01*
X485981Y224997D01*
X490979D01*
X494311Y218332D02*
X497644D01*
X495978D01*
Y224997D01*
X494311D01*
X504308Y226663D02*
Y224997D01*
X502642D01*
X505974D01*
X504308D01*
Y219998D01*
X505974Y218332D01*
X510973Y224997D02*
Y219998D01*
X512639Y218332D01*
X517637D01*
Y216666D01*
X515971Y215000D01*
X514305D01*
X517637Y218332D02*
Y224997D01*
X535965Y228329D02*
X532632D01*
X530966Y226663D01*
Y219998D01*
X532632Y218332D01*
X535965D01*
X537631Y219998D01*
Y226663D01*
X535965Y228329D01*
X542629Y218332D02*
Y226663D01*
Y223331D01*
X540963D01*
X544295D01*
X542629D01*
Y226663D01*
X544295Y228329D01*
X559290Y218332D02*
Y224997D01*
X562623Y228329D01*
X565955Y224997D01*
Y218332D01*
Y223331D01*
X559290D01*
X569287Y218332D02*
Y224997D01*
X570953D01*
X572619Y223331D01*
Y218332D01*
Y223331D01*
X574286Y224997D01*
X575952Y223331D01*
Y218332D01*
X579284D02*
X584282D01*
X585948Y219998D01*
X584282Y221665D01*
X580950D01*
X579284Y223331D01*
X580950Y224997D01*
X585948D01*
X590947Y226663D02*
Y224997D01*
X589281D01*
X592613D01*
X590947D01*
Y219998D01*
X592613Y218332D01*
X602610D02*
X599277D01*
X597611Y219998D01*
Y223331D01*
X599277Y224997D01*
X602610D01*
X604276Y223331D01*
Y221665D01*
X597611D01*
X607608Y224997D02*
Y218332D01*
Y221665D01*
X609274Y223331D01*
X610940Y224997D01*
X612607D01*
X624269Y228329D02*
Y218332D01*
X619271D01*
X617605Y219998D01*
Y223331D01*
X619271Y224997D01*
X624269D01*
X629268D02*
X632600D01*
X634266Y223331D01*
Y218332D01*
X629268D01*
X627602Y219998D01*
X629268Y221665D01*
X634266D01*
X637598Y218332D02*
Y224997D01*
X639265D01*
X640931Y223331D01*
Y218332D01*
Y223331D01*
X642597Y224997D01*
X644263Y223331D01*
Y218332D01*
D14*
X136000Y221895D02*
X163000Y221895D01*
D15*
X139868Y235508D02*
X150000Y222000D01*
X160132Y235508D01*
X139868D02*
X160132D01*
D16*
X419000Y412000D02*
Y422000D01*
X401000Y412000D02*
Y422000D01*
X279000Y412500D02*
Y422500D01*
X297000Y412500D02*
Y422500D01*
M02*
