G04*
G04 #@! TF.GenerationSoftware,Altium Limited,Altium Designer,23.9.2 (47)*
G04*
G04 Layer_Color=8323857*
%FSLAX44Y44*%
%MOMM*%
G71*
G04*
G04 #@! TF.SameCoordinates,B568AE66-8DF3-4FEE-8232-9B1AC1FE23A7*
G04*
G04*
G04 #@! TF.FilePolarity,Negative*
G04*
G01*
G75*
%ADD10C,0.1000*%
%ADD22R,1.3500X0.5000*%
%ADD33C,1.6400*%
%ADD34R,0.9400X1.4900*%
G04:AMPARAMS|DCode=35|XSize=0.74mm|YSize=1.14mm|CornerRadius=0.22mm|HoleSize=0mm|Usage=FLASHONLY|Rotation=270.000|XOffset=0mm|YOffset=0mm|HoleType=Round|Shape=RoundedRectangle|*
%AMROUNDEDRECTD35*
21,1,0.7400,0.7000,0,0,270.0*
21,1,0.3000,1.1400,0,0,270.0*
1,1,0.4400,-0.3500,-0.1500*
1,1,0.4400,-0.3500,0.1500*
1,1,0.4400,0.3500,0.1500*
1,1,0.4400,0.3500,-0.1500*
%
%ADD35ROUNDEDRECTD35*%
%ADD36R,1.0900X1.1400*%
%ADD37R,1.1400X1.0900*%
%ADD38C,2.1400*%
G04:AMPARAMS|DCode=39|XSize=0.74mm|YSize=1.69mm|CornerRadius=0.22mm|HoleSize=0mm|Usage=FLASHONLY|Rotation=90.000|XOffset=0mm|YOffset=0mm|HoleType=Round|Shape=RoundedRectangle|*
%AMROUNDEDRECTD39*
21,1,0.7400,1.2500,0,0,90.0*
21,1,0.3000,1.6900,0,0,90.0*
1,1,0.4400,0.6250,0.1500*
1,1,0.4400,0.6250,-0.1500*
1,1,0.4400,-0.6250,-0.1500*
1,1,0.4400,-0.6250,0.1500*
%
%ADD39ROUNDEDRECTD39*%
%ADD40R,0.8500X0.6500*%
%ADD41R,1.1900X1.5400*%
G04:AMPARAMS|DCode=42|XSize=0.74mm|YSize=1.14mm|CornerRadius=0.22mm|HoleSize=0mm|Usage=FLASHONLY|Rotation=180.000|XOffset=0mm|YOffset=0mm|HoleType=Round|Shape=RoundedRectangle|*
%AMROUNDEDRECTD42*
21,1,0.7400,0.7000,0,0,180.0*
21,1,0.3000,1.1400,0,0,180.0*
1,1,0.4400,-0.1500,0.3500*
1,1,0.4400,0.1500,0.3500*
1,1,0.4400,0.1500,-0.3500*
1,1,0.4400,-0.1500,-0.3500*
%
%ADD42ROUNDEDRECTD42*%
%ADD43R,0.6500X0.8500*%
%ADD44R,2.1000X1.5000*%
%ADD45R,1.9400X1.2900*%
%ADD46R,3.7400X2.5400*%
%ADD47R,1.2400X3.5400*%
%ADD48C,1.6640*%
%ADD49C,5.1400*%
%ADD50C,1.7400*%
%ADD51C,1.3400*%
%ADD52R,1.3400X1.3400*%
%ADD53C,4.9400*%
%ADD54C,1.7900*%
G04:AMPARAMS|DCode=55|XSize=1.79mm|YSize=1.79mm|CornerRadius=0.4825mm|HoleSize=0mm|Usage=FLASHONLY|Rotation=180.000|XOffset=0mm|YOffset=0mm|HoleType=Round|Shape=RoundedRectangle|*
%AMROUNDEDRECTD55*
21,1,1.7900,0.8250,0,0,180.0*
21,1,0.8250,1.7900,0,0,180.0*
1,1,0.9650,-0.4125,0.4125*
1,1,0.9650,0.4125,0.4125*
1,1,0.9650,0.4125,-0.4125*
1,1,0.9650,-0.4125,-0.4125*
%
%ADD55ROUNDEDRECTD55*%
%ADD56C,2.6400*%
%ADD57C,2.9400*%
%ADD58R,1.6400X1.6400*%
%ADD59C,3.3400*%
%ADD60C,1.4100*%
D10*
X20000Y570000D02*
G03*
X0Y550000I0J-20000D01*
G01*
X700000D02*
G03*
X680000Y570000I-20000J0D01*
G01*
X680000Y0D02*
G03*
X700000Y20000I0J20000D01*
G01*
X0D02*
G03*
X20000Y0I20000J0D01*
G01*
X700000Y550000D02*
X700000Y20000D01*
X20000Y570000D02*
X680000D01*
X-0Y550000D02*
X0Y20000D01*
X20000Y0D02*
X680000D01*
D22*
X579440Y44044D02*
D03*
Y50544D02*
D03*
Y57044D02*
D03*
Y63544D02*
D03*
X534939Y44044D02*
D03*
Y50544D02*
D03*
Y57044D02*
D03*
Y63544D02*
D03*
D33*
X360000Y41000D02*
D03*
X421000Y95000D02*
D03*
X490000Y93000D02*
D03*
X486000Y71000D02*
D03*
X121000Y210000D02*
D03*
Y251000D02*
D03*
X172400Y375400D02*
D03*
Y400800D02*
D03*
X147000Y375400D02*
D03*
Y400800D02*
D03*
X121600Y375400D02*
D03*
Y400800D02*
D03*
X96200Y375400D02*
D03*
Y400800D02*
D03*
X70800Y375400D02*
D03*
Y400800D02*
D03*
D34*
X565000Y435000D02*
D03*
X582000D02*
D03*
D35*
X368500Y210000D02*
D03*
Y229000D02*
D03*
X345500Y219500D02*
D03*
X386500D02*
D03*
X409500Y229000D02*
D03*
Y210000D02*
D03*
X305000Y219500D02*
D03*
X328000Y229000D02*
D03*
Y210000D02*
D03*
X286000Y219500D02*
D03*
X263000Y210000D02*
D03*
X263000Y229000D02*
D03*
X244500Y219500D02*
D03*
X221500Y210000D02*
D03*
X221500Y229000D02*
D03*
X198000Y219500D02*
D03*
X175000Y210000D02*
D03*
Y229000D02*
D03*
D36*
X352744Y244745D02*
D03*
X368744D02*
D03*
X547000Y80000D02*
D03*
X531000D02*
D03*
X500000Y46000D02*
D03*
X516000D02*
D03*
X549000Y28000D02*
D03*
X533000D02*
D03*
X565000D02*
D03*
X581000D02*
D03*
X579000Y80000D02*
D03*
X595000D02*
D03*
X492000Y106000D02*
D03*
X508000D02*
D03*
X469200Y106000D02*
D03*
X453200D02*
D03*
X421200D02*
D03*
X437200D02*
D03*
X291200Y130000D02*
D03*
X307200D02*
D03*
X114529Y129924D02*
D03*
X130529D02*
D03*
X114200Y114000D02*
D03*
X130200D02*
D03*
Y98000D02*
D03*
X114200D02*
D03*
X410000Y244500D02*
D03*
X394000D02*
D03*
X328000Y245000D02*
D03*
X312000D02*
D03*
X263000Y245000D02*
D03*
X279000Y245000D02*
D03*
X222000Y245000D02*
D03*
X238000D02*
D03*
X180000D02*
D03*
X196000Y245000D02*
D03*
X69000Y327000D02*
D03*
X85000D02*
D03*
X143000Y432000D02*
D03*
X159000D02*
D03*
X112000D02*
D03*
X128000D02*
D03*
D37*
X291000Y164000D02*
D03*
Y148000D02*
D03*
X516000Y64000D02*
D03*
Y80000D02*
D03*
X501000D02*
D03*
Y64000D02*
D03*
X579000Y115000D02*
D03*
Y131000D02*
D03*
X389200Y59000D02*
D03*
Y75000D02*
D03*
X389200Y28150D02*
D03*
Y44150D02*
D03*
X375000Y28000D02*
D03*
Y44000D02*
D03*
X374000Y59000D02*
D03*
X374000Y75000D02*
D03*
X237000Y35000D02*
D03*
Y51000D02*
D03*
X269200Y60000D02*
D03*
Y44000D02*
D03*
X250000Y57000D02*
D03*
Y73000D02*
D03*
X146200Y60000D02*
D03*
Y44000D02*
D03*
X118200Y163000D02*
D03*
Y147000D02*
D03*
X184000Y302000D02*
D03*
Y286000D02*
D03*
D38*
X508000Y27000D02*
D03*
X525000Y320000D02*
D03*
X499000D02*
D03*
X586000D02*
D03*
X560000D02*
D03*
D39*
X462200Y73050D02*
D03*
Y60350D02*
D03*
Y47650D02*
D03*
Y34950D02*
D03*
X408200D02*
D03*
Y47650D02*
D03*
Y60350D02*
D03*
Y73050D02*
D03*
X342200D02*
D03*
Y60350D02*
D03*
Y47650D02*
D03*
Y34950D02*
D03*
X288200D02*
D03*
Y47650D02*
D03*
Y60350D02*
D03*
Y73050D02*
D03*
X164200D02*
D03*
Y60350D02*
D03*
Y47650D02*
D03*
Y34950D02*
D03*
X218200D02*
D03*
Y47650D02*
D03*
Y60350D02*
D03*
Y73050D02*
D03*
D40*
X307200Y144000D02*
D03*
Y166300D02*
D03*
X274000Y143850D02*
D03*
Y166150D02*
D03*
X133200Y143850D02*
D03*
Y166150D02*
D03*
X104200Y143850D02*
D03*
Y166150D02*
D03*
D41*
X22750Y140251D02*
D03*
X40250D02*
D03*
X61500D02*
D03*
X79000D02*
D03*
D42*
X60000Y98751D02*
D03*
X79000D02*
D03*
X69500Y121751D02*
D03*
X22000Y98751D02*
D03*
X41000D02*
D03*
X31500Y121751D02*
D03*
D43*
X59350Y158251D02*
D03*
X81650D02*
D03*
X20350D02*
D03*
X42650D02*
D03*
D44*
X150000Y252000D02*
D03*
Y210000D02*
D03*
D45*
X163000Y310000D02*
D03*
Y280000D02*
D03*
X138000Y310000D02*
D03*
Y280000D02*
D03*
X113000Y310000D02*
D03*
Y280000D02*
D03*
X88000Y310000D02*
D03*
Y280000D02*
D03*
X410000Y431500D02*
D03*
X410000Y402500D02*
D03*
X288000Y403000D02*
D03*
Y432000D02*
D03*
D46*
X368000Y289800D02*
D03*
Y385800D02*
D03*
X258000Y385800D02*
D03*
Y289800D02*
D03*
D47*
X389500Y421000D02*
D03*
X328500D02*
D03*
X197500D02*
D03*
X258500D02*
D03*
D48*
X462200Y128405D02*
D03*
X436800Y153805D02*
D03*
X487600D02*
D03*
D49*
X573000Y259000D02*
D03*
X70000Y230000D02*
D03*
X512000Y259000D02*
D03*
X636000D02*
D03*
D50*
X625000Y320000D02*
D03*
X647000D02*
D03*
X560000Y360000D02*
D03*
X585000D02*
D03*
D51*
X562700Y400000D02*
D03*
X562700Y130000D02*
D03*
D52*
X537300Y400000D02*
D03*
X537300Y130000D02*
D03*
D53*
X405000Y477000D02*
D03*
X655000D02*
D03*
X295000D02*
D03*
X45000D02*
D03*
D54*
X571550Y491200D02*
D03*
X543850D02*
D03*
X516150D02*
D03*
X488450D02*
D03*
X502300Y462800D02*
D03*
X474600D02*
D03*
X557700D02*
D03*
X530000D02*
D03*
X170000D02*
D03*
X197700D02*
D03*
X225400D02*
D03*
X142300D02*
D03*
X128450Y491200D02*
D03*
X156150D02*
D03*
X183850D02*
D03*
X211550D02*
D03*
D55*
X585400Y462800D02*
D03*
X114600D02*
D03*
D56*
X360200Y130000D02*
D03*
X185200D02*
D03*
D57*
X385600Y104600D02*
D03*
Y155400D02*
D03*
X334800D02*
D03*
Y104600D02*
D03*
X210600D02*
D03*
Y155400D02*
D03*
X159800D02*
D03*
Y104600D02*
D03*
D58*
X172400Y350000D02*
D03*
X147000Y350000D02*
D03*
X121600D02*
D03*
X96200D02*
D03*
X70800D02*
D03*
D59*
X35000Y35000D02*
D03*
X665000D02*
D03*
D60*
X209000Y210000D02*
D03*
X329000Y394000D02*
D03*
M02*
